{
.appVersion = "1352";
classes = (
{
automatic = 1;

glyphs = (
{
color = 6;
glyphname = .notdef;
lastChange = "2022-04-05 22:58:06 +0000";
layers = (
{
layerId = "5E1A2ACF-25BB-4872-A226-5327BC7330DB";
paths = (
{
closed = 1;
nodes = (
"479 0 LINE",
"488 8 LINE",
"488 621 LINE",
"479 630 LINE",
"58 630 LINE",
"50 620 LINE",
"50 9 LINE",
"58 0 LINE"
);
},
{
closed = 1;
nodes = (
"154 150 LINE",
"244 316 LINE",
"154 479 LINE",
"173 514 LINE",
"263 350 LINE",
"354 514 LINE",
"373 479 LINE",
"283 314 LINE",
"373 150 LINE",
"354 116 LINE",
"263 279 LINE",
"173 116 LINE"
);
},
{
closed = 1;
nodes = (
"67 613 LINE",
"471 613 LINE",
"471 16 LINE",
"67 16 LINE"
);
},
{
closed = 1;
nodes = (
"437 49 LINE",
"437 577 LINE",
"102 577 LINE",
"102 49 LINE"
);
}
);
width = 538;
}
);
note = .notdef;
},
{
glyphname = A;
lastChange = "2022-04-04 13:01:16 +0000";
layers = (
{
anchors = (
{
name = bottom;
position = "{178, 0}";
},
{
name = ogonek;
position = "{335, 0}";
},
{
name = top;
position = "{177, 591}";
}
);
background = {
paths = (
{
closed = 1;
nodes = (
"32 0 LINE",
"73 162 LINE",
"281 162 LINE",
"323 0 LINE",
"335 0 LINE",
"184 591 LINE",
"171 591 LINE",
"20 0 LINE"
);
},
{
closed = 1;
nodes = (
"76 173 LINE",
"169 534 LINE",
"177 572 LINE",
"187 532 LINE",
"278 173 LINE"
);
}
);
};
layerId = "5E1A2ACF-25BB-4872-A226-5327BC7330DB";
paths = (
{
closed = 1;
nodes = (
"37 0 LINE",
"76 160 LINE",
"278 160 LINE",
"318 0 LINE",
"335 0 LINE",
"184 591 LINE",
"171 591 LINE",
"20 0 LINE"
);
},
{
closed = 1;
nodes = (
"174 532 LINE",
"178 549 LINE",
"182 532 LINE",
"274 176 LINE",
"80 176 LINE"
);
}
);
width = 355;
}
);
leftKerningGroup = A;
note = A;
rightKerningGroup = A;
unicode = 0041;
},
{
glyphname = AE;
lastChange = "2022-04-05 22:44:43 +0000";
layers = (
{
anchors = (
{
name = bottom;
position = "{249, 0}";
},
{
name = top;
position = "{288, 591}";
}
);
layerId = "5E1A2ACF-25BB-4872-A226-5327BC7330DB";
paths = (
{
closed = 1;
nodes = (
"28 0 LINE",
"89 160 LINE",
"302 160 LINE",
"300 176 LINE",
"95 176 LINE",
"250 588 LINE",
"234 591 LINE",
"10 0 LINE"
);
},
{
closed = 1;
nodes = (
"491 0 LINE",
"491 16 LINE",
"331 16 LINE",
"291 303 LINE",
"440 303 LINE",
"440 319 LINE",
"289 319 LINE",
"253 575 LINE",
"431 575 LINE",
"431 591 LINE",
"234 591 LINE",
"317 0 LINE"
);
}
);
width = 518;
}
);
leftKerningGroup = A;
note = AE;
rightKerningGroup = E;
unicode = 00C6;
},
{
glyphname = B;
lastChange = "2022-04-04 13:41:40 +0000";
layers = (
{
background = {
paths = (
{
closed = 1;
nodes = (
"234 0 LINE SMOOTH",
"307 0 OFFCURVE",
"355 16 OFFCURVE",
"355 120 CURVE SMOOTH",
"355 209 LINE SMOOTH",
"355 269 OFFCURVE",
"322 312 OFFCURVE",
"262 312 CURVE",
"318 321 OFFCURVE",
"350 363 OFFCURVE",
"350 419 CURVE SMOOTH",
"350 494 LINE SMOOTH",
"350 566 OFFCURVE",
"302 591 OFFCURVE",
"243 591 CURVE SMOOTH",
"82 591 LINE",
"82 0 LINE"
);
},
{
closed = 1;
nodes = (
"94 306 LINE",
"227 306 LINE SMOOTH",
"291 306 OFFCURVE",
"343 287 OFFCURVE",
"343 214 CURVE SMOOTH",
"343 125 LINE SMOOTH",
"343 26 OFFCURVE",
"301 11 OFFCURVE",
"231 11 CURVE SMOOTH",
"94 11 LINE"
);
},
{
closed = 1;
nodes = (
"94 580 LINE",
"243 580 LINE SMOOTH",
"298 580 OFFCURVE",
"338 553 OFFCURVE",
"338 496 CURVE SMOOTH",
"338 420 LINE SMOOTH",
"338 355 OFFCURVE",
"299 317 OFFCURVE",
"222 317 CURVE SMOOTH",
"94 317 LINE"
);
}
);
};
layerId = "5E1A2ACF-25BB-4872-A226-5327BC7330DB";
paths = (
{
closed = 1;
nodes = (
"232 0 LINE SMOOTH",
"305 0 OFFCURVE",
"355 16 OFFCURVE",
"355 120 CURVE SMOOTH",
"355 209 LINE SMOOTH",
"355 269 OFFCURVE",
"320 312 OFFCURVE",
"260 312 CURVE",
"316 321 OFFCURVE",
"350 363 OFFCURVE",
"350 419 CURVE SMOOTH",
"350 494 LINE SMOOTH",
"350 566 OFFCURVE",
"302 591 OFFCURVE",
"241 591 CURVE SMOOTH",
"78 591 LINE",
"78 0 LINE"
);
},
{
closed = 1;
nodes = (
"94 303 LINE",
"225 303 LINE SMOOTH",
"289 303 OFFCURVE",
"339 284 OFFCURVE",
"339 214 CURVE SMOOTH",
"339 125 LINE SMOOTH",
"339 31 OFFCURVE",
"299 16 OFFCURVE",
"229 16 CURVE SMOOTH",
"94 16 LINE"
);
},
{
closed = 1;
nodes = (
"94 575 LINE",
"241 575 LINE SMOOTH",
"294 575 OFFCURVE",
"334 548 OFFCURVE",
"334 496 CURVE SMOOTH",
"334 420 LINE SMOOTH",
"334 357 OFFCURVE",
"295 319 OFFCURVE",
"220 319 CURVE SMOOTH",
"94 319 LINE"
);
}
);
width = 417;
}
);
leftMetricsKey = H;
note = B;
unicode = 0042;
},
{
glyphname = C;
lastChange = "2022-04-05 22:44:43 +0000";
layers = (
{
anchors = (
{
name = bottom;
position = "{204, -9}";
},
{
name = top;
position = "{204, 591}";
}
);
layerId = "5E1A2ACF-25BB-4872-A226-5327BC7330DB";
paths = (
{
closed = 1;
nodes = (
"282 -12 OFFCURVE",
"340 2 OFFCURVE",
"340 118 CURVE SMOOTH",
"340 189 LINE",
"324 189 LINE",
"324 116 LINE SMOOTH",
"324 19 OFFCURVE",
"273 4 OFFCURVE",
"203 4 CURVE SMOOTH",
"138 4 OFFCURVE",
"83 19 OFFCURVE",
"83 116 CURVE SMOOTH",
"83 467 LINE SMOOTH",
"83 566 OFFCURVE",
"128 583 OFFCURVE",
"203 583 CURVE SMOOTH",
"274 583 OFFCURVE",
"324 568 OFFCURVE",
"324 473 CURVE SMOOTH",
"324 381 LINE",
"340 381 LINE",
"340 469 LINE SMOOTH",
"340 583 OFFCURVE",
"281 599 OFFCURVE",
"204 599 CURVE SMOOTH",
"127 599 OFFCURVE",
"67 585 OFFCURVE",
"67 469 CURVE SMOOTH",
"67 118 LINE SMOOTH",
"67 4 OFFCURVE",
"126 -12 OFFCURVE",
"202 -12 CURVE SMOOTH"
);
}
);
width = 407;
}
);
leftKerningGroup = O;
leftMetricsKey = O;
note = C;
rightKerningGroup = C;
rightMetricsKey = O;
unicode = 0043;
},
{
glyphname = D;
lastChange = "2022-04-04 13:43:54 +0000";
layers = (
{
anchors = (
{
name = bottom;
position = "{190, 0}";
},
{
name = center;
position = "{122, 296}";
},
{
name = top;
position = "{196, 591}";
}
);
layerId = "5E1A2ACF-25BB-4872-A226-5327BC7330DB";
paths = (
{
closed = 1;
nodes = (
"234 0 LINE SMOOTH",
"310 0 OFFCURVE",
"359 25 OFFCURVE",
"359 130 CURVE SMOOTH",
"359 461 LINE SMOOTH",
"359 566 OFFCURVE",
"305 591 OFFCURVE",
"234 591 CURVE SMOOTH",
"78 591 LINE",
"78 0 LINE"
);
},
{
closed = 1;
nodes = (
"94 576 LINE",
"234 576 LINE SMOOTH",
"303 576 OFFCURVE",
"343 546 OFFCURVE",
"343 455 CURVE SMOOTH",
"343 135 LINE SMOOTH",
"343 39 OFFCURVE",
"302 16 OFFCURVE",
"234 16 CURVE SMOOTH",
"94 16 LINE"
);
}
);
width = 426;
}
);
leftKerningGroup = H;
leftMetricsKey = H;
note = D;
rightKerningGroup = O;
rightMetricsKey = O;
unicode = 0044;
},
{
glyphname = E;
lastChange = "2022-04-05 22:44:43 +0000";
layers = (
{
anchors = (
{
name = bottom;
position = "{200, 0}";
},
{
name = ogonek;
position = "{304, 0}";
},
{
name = top;
position = "{200, 591}";
},
{
name = topleft;
position = "{49, 591}";
}
);
background = {
paths = (
{
closed = 1;
nodes = (
"320 0 LINE",
"320 11 LINE",
"91 11 LINE",
"91 306 LINE",
"269 306 LINE",
"269 317 LINE",
"91 317 LINE",
"91 580 LINE",
"320 580 LINE",
"320 591 LINE",
"79 591 LINE",
"79 0 LINE"
);
}
);
};
layerId = "5E1A2ACF-25BB-4872-A226-5327BC7330DB";
paths = (
{
closed = 1;
nodes = (
"323 0 LINE",
"323 16 LINE",
"94 16 LINE",
"94 303 LINE",
"272 303 LINE",
"272 319 LINE",
"94 319 LINE",
"94 575 LINE",
"323 575 LINE",
"323 591 LINE",
"78 591 LINE",
"78 0 LINE"
);
}
);
width = 347;
}
);
leftKerningGroup = H;
leftMetricsKey = H;
note = E;
rightKerningGroup = E;
unicode = 0045;
},
{
glyphname = F;
lastChange = "2022-04-05 22:44:43 +0000";
layers = (
{
background = {
paths = (
{
closed = 1;
nodes = (
"94 0 LINE",
"94 306 LINE",
"272 306 LINE",
"272 317 LINE",
"94 317 LINE",
"94 580 LINE",
"323 580 LINE",
"323 591 LINE",
"82 591 LINE",
"82 0 LINE"
);
}
);
};
layerId = "5E1A2ACF-25BB-4872-A226-5327BC7330DB";
paths = (
{
closed = 1;
nodes = (
"94 0 LINE",
"94 303 LINE",
"272 303 LINE",
"272 319 LINE",
"94 319 LINE",
"94 575 LINE",
"323 575 LINE",
"323 591 LINE",
"78 591 LINE",
"78 0 LINE"
);
}
);
width = 339;
}
);
leftKerningGroup = H;
leftMetricsKey = H;
note = F;
rightKerningGroup = F;
unicode = 0046;
},
{
glyphname = G;
lastChange = "2022-04-05 22:44:43 +0000";
layers = (
{
anchors = (
{
name = bottom;
position = "{205, 0}";
},
{
name = top;
position = "{205, 591}";
}
);
layerId = "5E1A2ACF-25BB-4872-A226-5327BC7330DB";
paths = (
{
closed = 1;
nodes = (
"267 -12 OFFCURVE",
"317 27 OFFCURVE",
"328 63 CURVE",
"328 0 LINE",
"344 0 LINE",
"344 271 LINE",
"221 271 LINE",
"221 256 LINE",
"328 256 LINE",
"328 125 LINE SMOOTH",
"328 49 OFFCURVE",
"275 4 OFFCURVE",
"207 4 CURVE SMOOTH",
"138 4 OFFCURVE",
"83 18 OFFCURVE",
"83 125 CURVE SMOOTH",
"83 468 LINE SMOOTH",
"83 566 OFFCURVE",
"130 583 OFFCURVE",
"207 583 CURVE SMOOTH",
"284 583 OFFCURVE",
"328 566 OFFCURVE",
"328 468 CURVE SMOOTH",
"328 401 LINE",
"344 401 LINE",
"344 469 LINE SMOOTH",
"344 583 OFFCURVE",
"288 599 OFFCURVE",
"209 599 CURVE SMOOTH",
"130 599 OFFCURVE",
"67 585 OFFCURVE",
"67 469 CURVE SMOOTH",
"67 118 LINE SMOOTH",
"67 4 OFFCURVE",
"130 -12 OFFCURVE",
"206 -12 CURVE SMOOTH"
);
}
);
width = 409;
}
);
leftKerningGroup = O;
leftMetricsKey = O;
note = G;
rightKerningGroup = G;
rightMetricsKey = "=O-2";
unicode = 0047;
},
{
glyphname = H;
lastChange = "2022-04-05 22:44:43 +0000";
layers = (
{
anchors = (
{
name = bottom;
position = "{219, 0}";
},
{
name = center;
position = "{219, 296}";
},
{
name = top;
position = "{219, 591}";
},
{
name = topleft;
position = "{52, 591}";
}
);
layerId = "5E1A2ACF-25BB-4872-A226-5327BC7330DB";
paths = (
{
closed = 1;
nodes = (
"94 0 LINE",
"94 302 LINE",
"343 302 LINE",
"343 0 LINE",
"359 0 LINE",
"359 591 LINE",
"343 591 LINE",
"343 318 LINE",
"94 318 LINE",
"94 591 LINE",
"78 591 LINE",
"78 0 LINE"
);
}
);
width = 437;
}
);
leftKerningGroup = H;
note = H;
rightKerningGroup = H;
unicode = 0048;
},
{
glyphname = Hbar;
lastChange = "2021-12-09 03:35:29 +0000";
layers = (
{
layerId = "5E1A2ACF-25BB-4872-A226-5327BC7330DB";
paths = (
{
closed = 1;
nodes = (
"99 0 LINE",
"99 306 LINE",
"348 306 LINE",
"348 0 LINE",
"360 0 LINE",
"360 494 LINE",
"410 494 LINE",
"410 504 LINE",
"360 504 LINE",
"360 591 LINE",
"348 591 LINE",
"348 504 LINE",
"99 504 LINE",
"99 591 LINE",
"87 591 LINE",
"87 504 LINE",
"38 504 LINE",
"38 494 LINE",
"87 494 LINE",
"87 0 LINE"
);
},
{
closed = 1;
nodes = (
"99 494 LINE",
"348 494 LINE",
"348 317 LINE",
"99 317 LINE"
);
}
);
width = 448;
}
);
leftKerningGroup = H;
note = Hbar;
rightKerningGroup = H;
unicode = 0126;
},
{
glyphname = I;
lastChange = "2022-04-05 22:44:43 +0000";
layers = (
{
anchors = (
{
name = bottom;
position = "{87, 0}";
},
{
name = ogonek;
position = "{93, 0}";
},
{
name = top;
position = "{87, 591}";
},
{
name = topleft;
position = "{51, 591}";
}
);
layerId = "5E1A2ACF-25BB-4872-A226-5327BC7330DB";
paths = (
{
closed = 1;
nodes = (
"94 0 LINE",
"94 591 LINE",
"78 591 LINE",
"78 0 LINE"
);
}
);
width = 172;
}
);
leftKerningGroup = H;
leftMetricsKey = H;
note = I;
rightKerningGroup = H;
rightMetricsKey = H;
unicode = 0049;
},
{
glyphname = J;
lastChange = "2022-04-05 22:57:56 +0000";
layers = (
{
anchors = (
{
name = bottom;
position = "{99, 0}";
},
{
name = top;
position = "{119, 591}";
}
);
layerId = "5E1A2ACF-25BB-4872-A226-5327BC7330DB";
paths = (
{
closed = 1;
nodes = (
"28 0 LINE SMOOTH",
"63 0 OFFCURVE",
"87 4 OFFCURVE",
"102 15 CURVE SMOOTH",
"127 32 OFFCURVE",
"129 57 OFFCURVE",
"129 117 CURVE SMOOTH",
"129 591 LINE",
"113 591 LINE",
"113 92 LINE SMOOTH",
"113 62 OFFCURVE",
"106 36 OFFCURVE",
"91 26 CURVE SMOOTH",
"78 17 OFFCURVE",
"58 16 OFFCURVE",
"31 16 CURVE SMOOTH",
"8 16 LINE",
"8 0 LINE"
);
}
);
width = 207;
}
);
leftKerningGroup = J;
note = J;
rightKerningGroup = J;
rightMetricsKey = H;
unicode = 004A;
},
{
glyphname = K;
lastChange = "2022-04-05 22:44:43 +0000";
layers = (
{
anchors = (
{
name = bottom;
position = "{188, 0}";
},
{
name = top;
position = "{189, 591}";
}
);
layerId = "5E1A2ACF-25BB-4872-A226-5327BC7330DB";
paths = (
{
closed = 1;
nodes = (
"325 0 LINE",
"140 306 LINE",
"321 591 LINE",
"302 591 LINE",
"122 306 LINE",
"306 0 LINE"
);
},
{
closed = 1;
nodes = (
"94 0 LINE",
"94 591 LINE",
"78 591 LINE",
"78 0 LINE"
);
}
);
width = 339;
}
);
leftKerningGroup = H;
leftMetricsKey = H;
note = K;
rightKerningGroup = K;
unicode = 004B;
},
{
glyphname = L;
lastChange = "2022-04-05 22:44:43 +0000";
layers = (
{
anchors = (
{
name = bottom;
position = "{183, 0}";
},
{
name = center;
position = "{161, 296}";
},
{
name = top;
position = "{84, 591}";
},
{
name = topright;
position = "{217, 495}";
}
);
layerId = "5E1A2ACF-25BB-4872-A226-5327BC7330DB";
paths = (
{
closed = 1;
nodes = (
"292 0 LINE",
"292 16 LINE",
"94 16 LINE",
"94 591 LINE",
"78 591 LINE",
"78 0 LINE"
);
}
);
width = 297;
}
);
leftKerningGroup = H;
leftMetricsKey = H;
note = L;
rightKerningGroup = L;
unicode = 004C;
},
{
glyphname = Lslash;
lastChange = "2022-04-05 22:44:43 +0000";
layers = (
{
layerId = "5E1A2ACF-25BB-4872-A226-5327BC7330DB";
paths = (
{
closed = 1;
nodes = (
"298 0 LINE",
"298 16 LINE",
"100 16 LINE",
"100 162 LINE",
"183 201 LINE",
"183 218 LINE",
"100 180 LINE",
"100 591 LINE",
"84 591 LINE",
"84 172 LINE",
"20 143 LINE",
"20 125 LINE",
"84 155 LINE",
"84 0 LINE"
);
}
);
width = 303;
}
);
leftKerningGroup = H;
note = Lslash;
rightKerningGroup = L;
unicode = 0141;
},
{
glyphname = M;
lastChange = "2022-04-05 22:44:43 +0000";
layers = (
{
layerId = "5E1A2ACF-25BB-4872-A226-5327BC7330DB";
paths = (
{
closed = 1;
nodes = (
"94 0 LINE",
"94 537 LINE",
"258 0 LINE",
"272 0 LINE",
"436 537 LINE",
"436 0 LINE",
"452 0 LINE",
"452 591 LINE",
"436 591 LINE",
"265 32 LINE",
"95 591 LINE",
"78 591 LINE",
"78 0 LINE"
);
}
);
width = 530;
}
);
leftKerningGroup = H;
leftMetricsKey = H;
note = M;
rightKerningGroup = H;
rightMetricsKey = H;
unicode = 004D;
},
{
glyphname = N;
lastChange = "2022-04-05 22:44:43 +0000";
layers = (
{
anchors = (
{
name = bottom;
position = "{223, 0}";
},
{
name = top;
position = "{229, 591}";
}
);
layerId = "5E1A2ACF-25BB-4872-A226-5327BC7330DB";
paths = (
{
closed = 1;
nodes = (
"94 0 LINE",
"94 565 LINE",
"339 0 LINE",
"360 0 LINE",
"360 591 LINE",
"344 591 LINE",
"344 29 LINE",
"100 591 LINE",
"78 591 LINE",
"78 0 LINE"
);
}
);
width = 438;
}
);
leftKerningGroup = H;
leftMetricsKey = H;
note = N;
rightKerningGroup = H;
rightMetricsKey = H;
unicode = 004E;
},
{
glyphname = Eng;
lastChange = "2022-04-05 22:44:43 +0000";
layers = (
{
layerId = "5E1A2ACF-25BB-4872-A226-5327BC7330DB";
paths = (
{
closed = 1;
nodes = (
"359 0 LINE",
"359 591 LINE",
"344 591 LINE",
"344 29 LINE",
"100 591 LINE",
"78 591 LINE",
"78 0 LINE",
"94 0 LINE",
"94 565 LINE",
"349 -23 LINE"
);
},
{
closed = 1;
nodes = (
"335 -245 OFFCURVE",
"359 -215 OFFCURVE",
"359 -162 CURVE SMOOTH",
"359 0 LINE",
"343 0 LINE",
"343 -161 LINE SMOOTH",
"343 -197 OFFCURVE",
"330 -230 OFFCURVE",
"287 -230 CURVE SMOOTH",
"268 -230 OFFCURVE",
"251 -228 OFFCURVE",
"237 -226 CURVE",
"237 -242 LINE",
"236 -242 OFFCURVE",
"261 -245 OFFCURVE",
"286 -245 CURVE SMOOTH"
);
}
);
width = 437;
}
);
leftKerningGroup = H;
note = Eng;
rightKerningGroup = H;
unicode = 014A;
},
{
glyphname = O;
lastChange = "2022-04-05 22:44:43 +0000";
layers = (
{
anchors = (
{
name = bottom;
position = "{207, 0}";
},
{
name = center;
position = "{207, 296}";
},
{
name = ogonek;
position = "{233, -3}";
},
{
name = top;
position = "{206, 591}";
},
{
name = topleft;
position = "{46, 591}";
},
{
name = topright;
position = "{261, 591}";
}
);
background = {
paths = (
{
closed = 1;
nodes = (
"348 469 LINE SMOOTH",
"348 583 OFFCURVE",
"285 599 OFFCURVE",
"208 599 CURVE SMOOTH",
"131 599 OFFCURVE",
"67 585 OFFCURVE",
"67 469 CURVE SMOOTH",
"67 118 LINE SMOOTH",
"67 4 OFFCURVE",
"130 -12 OFFCURVE",
"206 -12 CURVE SMOOTH",
"286 -12 OFFCURVE",
"348 2 OFFCURVE",
"348 118 CURVE SMOOTH"
);
},
{
closed = 1;
nodes = (
"332 121 LINE SMOOTH",
"332 17 OFFCURVE",
"277 4 OFFCURVE",
"207 4 CURVE SMOOTH",
"138 4 OFFCURVE",
"83 17 OFFCURVE",
"83 121 CURVE SMOOTH",
"83 466 LINE SMOOTH",
"83 570 OFFCURVE",
"138 583 OFFCURVE",
"207 583 CURVE SMOOTH",
"275 583 OFFCURVE",
"332 570 OFFCURVE",
"332 466 CURVE SMOOTH"
);
}
);
};
layerId = "5E1A2ACF-25BB-4872-A226-5327BC7330DB";
paths = (
{
closed = 1;
nodes = (
"310 -12 OFFCURVE",
"348 22 OFFCURVE",
"348 118 CURVE SMOOTH",
"348 469 LINE SMOOTH",
"348 561 OFFCURVE",
"311 599 OFFCURVE",
"208 599 CURVE SMOOTH",
"109 599 OFFCURVE",
"67 565 OFFCURVE",
"67 469 CURVE SMOOTH",
"67 118 LINE SMOOTH",
"67 20 OFFCURVE",
"109 -12 OFFCURVE",
"206 -12 CURVE SMOOTH"
);
},
{
closed = 1;
nodes = (
"117 4 OFFCURVE",
"83 35 OFFCURVE",
"83 121 CURVE SMOOTH",
"83 466 LINE SMOOTH",
"83 550 OFFCURVE",
"115 583 OFFCURVE",
"207 583 CURVE SMOOTH",
"300 583 OFFCURVE",
"332 549 OFFCURVE",
"332 466 CURVE SMOOTH",
"332 121 LINE SMOOTH",
"332 37 OFFCURVE",
"300 4 OFFCURVE",
"207 4 CURVE SMOOTH"
);
}
);
width = 415;
}
);
leftKerningGroup = O;
note = O;
rightKerningGroup = O;
unicode = 004F;
},
{
glyphname = Oslash;
lastChange = "2022-04-05 22:44:43 +0000";
layers = (
{
anchors = (
{
name = bottom;
position = "{212, 0}";
},
{
name = center;
position = "{207, 296}";
},
{
name = ogonek;
position = "{233, -3}";
},
{
name = top;
position = "{201, 589}";
},
{
name = topleft;
position = "{46, 591}";
},
{
name = topright;
position = "{261, 591}";
}
);
layerId = "5E1A2ACF-25BB-4872-A226-5327BC7330DB";
paths = (
{
closed = 1;
nodes = (
"48 -56 LINE",
"90 28 LINE",
"115 -6 OFFCURVE",
"158 -12 OFFCURVE",
"206 -12 CURVE SMOOTH",
"286 -12 OFFCURVE",
"348 2 OFFCURVE",
"348 118 CURVE SMOOTH",
"348 469 LINE SMOOTH",
"348 490 OFFCURVE",
"346 508 OFFCURVE",
"342 524 CURVE",
"391 621 LINE",
"374 621 LINE",
"334 543 LINE",
"312 591 OFFCURVE",
"264 599 OFFCURVE",
"208 599 CURVE SMOOTH",
"131 599 OFFCURVE",
"67 585 OFFCURVE",
"67 469 CURVE SMOOTH",
"67 118 LINE SMOOTH",
"67 86 OFFCURVE",
"72 62 OFFCURVE",
"81 44 CURVE",
"30 -56 LINE"
);
},
{
closed = 1;
nodes = (
"161 4 OFFCURVE",
"121 10 OFFCURVE",
"99 45 CURVE",
"330 500 LINE",
"331 490 OFFCURVE",
"332 479 OFFCURVE",
"332 466 CURVE SMOOTH",
"332 121 LINE SMOOTH",
"332 17 OFFCURVE",
"277 4 OFFCURVE",
"207 4 CURVE SMOOTH"
);
},
{
closed = 1;
nodes = (
"86 79 OFFCURVE",
"83 98 OFFCURVE",
"83 121 CURVE SMOOTH",
"83 466 LINE SMOOTH",
"83 570 OFFCURVE",
"138 583 OFFCURVE",
"207 583 CURVE SMOOTH",
"260 583 OFFCURVE",
"306 575 OFFCURVE",
"324 523 CURVE",
"91 64 LINE"
);
}
);
width = 436;
}
);
leftKerningGroup = O;
note = Oslash;
rightKerningGroup = O;
unicode = 00D8;
},
{
glyphname = OE;
lastChange = "2022-04-05 22:44:43 +0000";
layers = (
{
anchors = (
{
name = bottom;
position = "{454, 0}";
},
{
name = center;
position = "{207, 296}";
},
{
name = ogonek;
position = "{558, 0}";
},
{
name = top;
position = "{454, 591}";
},
{
name = topleft;
position = "{303, 591}";
},
{
name = topright;
position = "{261, 591}";
}
);
background = {
paths = (
{
closed = 1;
nodes = (
"261 -12 OFFCURVE",
"307 -4 OFFCURVE",
"328 45 CURVE",
"328 0 LINE",
"569 0 LINE",
"569 11 LINE",
"340 11 LINE",
"340 306 LINE",
"518 306 LINE",
"518 317 LINE",
"340 317 LINE",
"340 580 LINE",
"569 580 LINE",
"569 591 LINE",
"328 591 LINE",
"328 541 LINE",
"307 590 OFFCURVE",
"261 599 OFFCURVE",
"204 599 CURVE SMOOTH",
"127 599 OFFCURVE",
"67 585 OFFCURVE",
"67 469 CURVE SMOOTH",
"67 118 LINE SMOOTH",
"67 4 OFFCURVE",
"126 -12 OFFCURVE",
"202 -12 CURVE SMOOTH"
);
},
{
closed = 1;
nodes = (
"134 -3 OFFCURVE",
"79 10 OFFCURVE",
"79 114 CURVE SMOOTH",
"79 472 LINE SMOOTH",
"79 576 OFFCURVE",
"134 589 OFFCURVE",
"203 589 CURVE SMOOTH",
"271 589 OFFCURVE",
"328 576 OFFCURVE",
"328 472 CURVE SMOOTH",
"328 106 LINE SMOOTH",
"328 9 OFFCURVE",
"271 -3 OFFCURVE",
"203 -3 CURVE SMOOTH"
);
}
);
};
layerId = "5E1A2ACF-25BB-4872-A226-5327BC7330DB";
paths = (
{
closed = 1;
nodes = (
"262 -12 OFFCURVE",
"309 -5 OFFCURVE",
"332 38 CURVE",
"332 0 LINE",
"577 0 LINE",
"577 16 LINE",
"348 16 LINE",
"348 303 LINE",
"526 303 LINE",
"526 319 LINE",
"348 319 LINE",
"348 575 LINE",
"577 575 LINE",
"577 591 LINE",
"332 591 LINE",
"332 548 LINE",
"309 591 OFFCURVE",
"262 599 OFFCURVE",
"208 599 CURVE SMOOTH",
"131 599 OFFCURVE",
"67 585 OFFCURVE",
"67 469 CURVE SMOOTH",
"67 118 LINE SMOOTH",
"67 4 OFFCURVE",
"130 -12 OFFCURVE",
"206 -12 CURVE SMOOTH"
);
},
{
closed = 1;
nodes = (
"138 4 OFFCURVE",
"83 17 OFFCURVE",
"83 121 CURVE SMOOTH",
"83 466 LINE SMOOTH",
"83 570 OFFCURVE",
"138 583 OFFCURVE",
"207 583 CURVE SMOOTH",
"275 583 OFFCURVE",
"332 570 OFFCURVE",
"332 466 CURVE SMOOTH",
"332 121 LINE SMOOTH",
"332 17 OFFCURVE",
"277 4 OFFCURVE",
"207 4 CURVE SMOOTH"
);
}
);
width = 601;
}
);
leftKerningGroup = O;
leftMetricsKey = O;
note = OE;
rightKerningGroup = E;
rightMetricsKey = E;
unicode = 0152;
},
{
glyphname = P;
lastChange = "2022-04-05 22:44:43 +0000";
layers = (
{
layerId = "5E1A2ACF-25BB-4872-A226-5327BC7330DB";
paths = (
{
closed = 1;
nodes = (
"94 0 LINE",
"94 271 LINE",
"205 271 LINE SMOOTH",
"327 271 OFFCURVE",
"354 313 OFFCURVE",
"354 418 CURVE SMOOTH",
"354 494 LINE SMOOTH",
"354 569 OFFCURVE",
"310 591 OFFCURVE",
"230 591 CURVE SMOOTH",
"78 591 LINE",
"78 0 LINE"
);
},
{
closed = 1;
nodes = (
"94 575 LINE",
"229 575 LINE SMOOTH",
"314 575 OFFCURVE",
"338 551 OFFCURVE",
"338 471 CURVE SMOOTH",
"338 417 LINE SMOOTH",
"338 320 OFFCURVE",
"314 287 OFFCURVE",
"205 287 CURVE SMOOTH",
"94 287 LINE"
);
}
);
width = 388;
}
);
leftKerningGroup = H;
leftMetricsKey = H;
note = P;
rightKerningGroup = P;
unicode = 0050;
},
{
glyphname = Thorn;
lastChange = "2022-04-05 22:44:43 +0000";
layers = (
{
layerId = "5E1A2ACF-25BB-4872-A226-5327BC7330DB";
paths = (
{
closed = 1;
nodes = (
"66 0 LINE",
"66 151 LINE",
"200 151 LINE SMOOTH",
"294 151 OFFCURVE",
"320 211 OFFCURVE",
"320 270 CURVE SMOOTH",
"320 374 LINE SMOOTH",
"320 446 OFFCURVE",
"271 471 OFFCURVE",
"214 471 CURVE SMOOTH",
"66 471 LINE",
"66 591 LINE",
"50 591 LINE",
"50 0 LINE"
);
},
{
closed = 1;
nodes = (
"66 455 LINE",
"218 455 LINE SMOOTH",
"263 455 OFFCURVE",
"304 428 OFFCURVE",
"304 371 CURVE SMOOTH",
"304 270 LINE SMOOTH",
"304 197 OFFCURVE",
"261 167 OFFCURVE",
"196 167 CURVE SMOOTH",
"66 167 LINE"
);
}
);
width = 370;
}
);
note = Thorn;
unicode = 00DE;
},
{
glyphname = Q;
lastChange = "2022-04-05 22:44:43 +0000";
layers = (
{
layerId = "5E1A2ACF-25BB-4872-A226-5327BC7330DB";
paths = (
{
closed = 1;
nodes = (
"330 -101 LINE",
"275 -5 LINE",
"319 7 OFFCURVE",
"348 38 OFFCURVE",
"348 118 CURVE SMOOTH",
"348 469 LINE SMOOTH",
"348 583 OFFCURVE",
"285 599 OFFCURVE",
"208 599 CURVE SMOOTH",
"131 599 OFFCURVE",
"67 585 OFFCURVE",
"67 469 CURVE SMOOTH",
"67 118 LINE SMOOTH",
"67 4 OFFCURVE",
"130 -12 OFFCURVE",
"206 -12 CURVE SMOOTH",
"225 -12 OFFCURVE",
"242 -11 OFFCURVE",
"258 -9 CURVE",
"317 -110 LINE"
);
},
{
closed = 1;
nodes = (
"138 4 OFFCURVE",
"83 17 OFFCURVE",
"83 121 CURVE SMOOTH",
"83 466 LINE SMOOTH",
"83 570 OFFCURVE",
"138 583 OFFCURVE",
"207 583 CURVE SMOOTH",
"275 583 OFFCURVE",
"332 570 OFFCURVE",
"332 466 CURVE SMOOTH",
"332 121 LINE SMOOTH",
"332 17 OFFCURVE",
"277 4 OFFCURVE",
"207 4 CURVE SMOOTH"
);
}
);
width = 415;
}
);
leftKerningGroup = O;
leftMetricsKey = O;
note = Q;
rightKerningGroup = O;
rightMetricsKey = O;
unicode = 0051;
},
{
glyphname = R;
lastChange = "2022-04-05 22:44:43 +0000";
layers = (
{
anchors = (
{
name = bottom;
position = "{211, 0}";
},
{
name = top;
position = "{206, 591}";
}
);
background = {
paths = (
{
closed = 1;
nodes = (
"95 0 LINE",
"95 292 LINE",
"214 292 LINE SMOOTH",
"255 292 OFFCURVE",
"281 257 OFFCURVE",
"297 205 CURVE SMOOTH",
"358 0 LINE",
"372 0 LINE",
"303 224 LINE SMOOTH",
"292 256 OFFCURVE",
"270 293 OFFCURVE",
"237 296 CURVE",
"300 296 OFFCURVE",
"351 328 OFFCURVE",
"351 411 CURVE SMOOTH",
"351 494 LINE SMOOTH",
"351 566 OFFCURVE",
"302 591 OFFCURVE",
"245 591 CURVE SMOOTH",
"83 591 LINE",
"83 0 LINE"
);
},
{
closed = 1;
nodes = (
"95 303 LINE",
"95 580 LINE",
"253 580 LINE SMOOTH",
"298 580 OFFCURVE",
"339 553 OFFCURVE",
"339 496 CURVE SMOOTH",
"339 409 LINE SMOOTH",
"339 331 OFFCURVE",
"288 303 OFFCURVE",
"220 303 CURVE SMOOTH"
);
}
);
};
layerId = "5E1A2ACF-25BB-4872-A226-5327BC7330DB";
paths = (
{
closed = 1;
nodes = (
"94 0 LINE",
"94 287 LINE",
"205 287 LINE SMOOTH",
"254 287 OFFCURVE",
"280 252 OFFCURVE",
"296 200 CURVE SMOOTH",
"357 0 LINE",
"374 0 LINE",
"305 224 LINE SMOOTH",
"295 256 OFFCURVE",
"271 288 OFFCURVE",
"250 291 CURVE",
"299 297 OFFCURVE",
"350 328 OFFCURVE",
"350 411 CURVE SMOOTH",
"350 494 LINE SMOOTH",
"350 566 OFFCURVE",
"301 591 OFFCURVE",
"244 591 CURVE SMOOTH",
"78 591 LINE",
"78 0 LINE"
);
},
{
closed = 1;
nodes = (
"94 575 LINE",
"248 575 LINE SMOOTH",
"293 575 OFFCURVE",
"334 548 OFFCURVE",
"334 491 CURVE SMOOTH",
"334 409 LINE SMOOTH",
"334 331 OFFCURVE",
"283 303 OFFCURVE",
"215 303 CURVE SMOOTH",
"94 303 LINE"
);
}
);
width = 414;
}
);
leftKerningGroup = H;
leftMetricsKey = H;
note = R;
rightKerningGroup = R;
unicode = 0052;
},
{
glyphname = S;
lastChange = "2022-04-05 22:44:43 +0000";
layers = (
{
anchors = (
{
name = bottom;
position = "{169, 0}";
},
{
name = top;
position = "{169, 591}";
}
);
layerId = "5E1A2ACF-25BB-4872-A226-5327BC7330DB";
paths = (
{
closed = 1;
nodes = (
"242 -9 OFFCURVE",
"304 31 OFFCURVE",
"304 146 CURVE SMOOTH",
"304 249 OFFCURVE",
"264 272 OFFCURVE",
"168 310 CURVE SMOOTH",
"109 333 OFFCURVE",
"57 356 OFFCURVE",
"57 448 CURVE SMOOTH",
"57 523 OFFCURVE",
"86 579 OFFCURVE",
"169 579 CURVE SMOOTH",
"241 579 OFFCURVE",
"283 537 OFFCURVE",
"283 465 CURVE SMOOTH",
"283 429 LINE",
"299 429 LINE",
"299 469 LINE SMOOTH",
"299 549 OFFCURVE",
"249 595 OFFCURVE",
"169 595 CURVE SMOOTH",
"77 595 OFFCURVE",
"41 537 OFFCURVE",
"41 448 CURVE SMOOTH",
"41 354 OFFCURVE",
"87 324 OFFCURVE",
"159 296 CURVE SMOOTH",
"229 269 OFFCURVE",
"288 250 OFFCURVE",
"288 146 CURVE SMOOTH",
"288 42 OFFCURVE",
"235 7 OFFCURVE",
"165 7 CURVE SMOOTH",
"101 7 OFFCURVE",
"54 42 OFFCURVE",
"54 163 CURVE SMOOTH",
"54 175 LINE",
"38 175 LINE",
"38 163 LINE SMOOTH",
"38 32 OFFCURVE",
"88 -9 OFFCURVE",
"165 -9 CURVE SMOOTH"
);
}
);
width = 342;
}
);
leftKerningGroup = S;
note = S;
rightKerningGroup = S;
unicode = 0053;
},
{
glyphname = Germandbls;
lastChange = "2022-04-05 22:57:56 +0000";
layers = (
{
associatedMasterId = "5E1A2ACF-25BB-4872-A226-5327BC7330DB";
background = {
paths = (
{
closed = 1;
nodes = (
"718 -8 OFFCURVE",
"794 36 OFFCURVE",
"794 171 CURVE SMOOTH",
"794 290 OFFCURVE",
"757 313 OFFCURVE",
"669 345 CURVE SMOOTH",
"626 361 OFFCURVE",
"587 368 OFFCURVE",
"587 427 CURVE SMOOTH",
"587 456 OFFCURVE",
"590 467 OFFCURVE",
"607 467 CURVE SMOOTH",
"628 467 OFFCURVE",
"628 453 OFFCURVE",
"628 399 CURVE SMOOTH",
"628 373 LINE",
"681 373 OFFCURVE",
"734 373 OFFCURVE",
"787 373 CURVE",
"787 449 LINE SMOOTH",
"787 546 OFFCURVE",
"725 593 OFFCURVE",
"605 593 CURVE SMOOTH",
"465 593 OFFCURVE",
"422 548 OFFCURVE",
"422 422 CURVE SMOOTH",
"422 332 OFFCURVE",
"443 279 OFFCURVE",
"518 246 CURVE SMOOTH",
"598 211 OFFCURVE",
"625 211 OFFCURVE",
"625 147 CURVE SMOOTH",
"625 101 OFFCURVE",
"620 92 OFFCURVE",
"605 92 CURVE SMOOTH",
"591 92 OFFCURVE",
"584 101 OFFCURVE",
"584 155 CURVE SMOOTH",
"584 206 LINE",
"528 206 OFFCURVE",
"473 206 OFFCURVE",
"417 206 CURVE",
"417 169 LINE SMOOTH",
"417 26 OFFCURVE",
"480 -8 OFFCURVE",
"599 -8 CURVE SMOOTH"
);
},
{
closed = 1;
nodes = (
"321 -8 OFFCURVE",
"397 36 OFFCURVE",
"397 171 CURVE SMOOTH",
"397 290 OFFCURVE",
"360 313 OFFCURVE",
"272 345 CURVE SMOOTH",
"229 361 OFFCURVE",
"190 368 OFFCURVE",
"190 427 CURVE SMOOTH",
"190 456 OFFCURVE",
"193 467 OFFCURVE",
"210 467 CURVE SMOOTH",
"231 467 OFFCURVE",
"231 453 OFFCURVE",
"231 399 CURVE SMOOTH",
"231 373 LINE",
"284 373 OFFCURVE",
"337 373 OFFCURVE",
"390 373 CURVE",
"390 449 LINE SMOOTH",
"390 546 OFFCURVE",
"328 593 OFFCURVE",
"208 593 CURVE SMOOTH",
"68 593 OFFCURVE",
"25 548 OFFCURVE",
"25 422 CURVE SMOOTH",
"25 332 OFFCURVE",
"46 279 OFFCURVE",
"121 246 CURVE SMOOTH",
"201 211 OFFCURVE",
"228 211 OFFCURVE",
"228 147 CURVE SMOOTH",
"228 101 OFFCURVE",
"223 92 OFFCURVE",
"208 92 CURVE SMOOTH",
"194 92 OFFCURVE",
"187 101 OFFCURVE",
"187 155 CURVE SMOOTH",
"187 206 LINE",
"131 206 OFFCURVE",
"76 206 OFFCURVE",
"20 206 CURVE",
"20 169 LINE SMOOTH",
"20 26 OFFCURVE",
"83 -8 OFFCURVE",
"202 -8 CURVE SMOOTH"
);
}
);
};
layerId = "8A3706BD-364F-4FE3-9C2E-7E87DF0DB4CC";
name = Black;
paths = (
{
closed = 1;
nodes = (
"215 -25 LINE",
"214 542 LINE SMOOTH",
"214 556 OFFCURVE",
"221 558 OFFCURVE",
"258 558 CURVE SMOOTH",
"302 558 OFFCURVE",
"302 538 OFFCURVE",
"302 483 CURVE SMOOTH",
"302 435 LINE SMOOTH",
"302 396 OFFCURVE",
"298 373 OFFCURVE",
"276 373 CURVE SMOOTH",
"239 373 LINE",
"238 293 LINE",
"256 293 LINE SMOOTH",
"301 293 OFFCURVE",
"301 270 OFFCURVE",
"301 239 CURVE SMOOTH",
"301 186 LINE SMOOTH",
"301 94 OFFCURVE",
"298 78 OFFCURVE",
"261 78 CURVE SMOOTH",
"241 78 LINE",
"241 0 LINE",
"285 0 LINE SMOOTH",
"398 0 OFFCURVE",
"474 16 OFFCURVE",
"474 121 CURVE SMOOTH",
"474 244 LINE SMOOTH",
"474 303 OFFCURVE",
"419 334 OFFCURVE",
"371 338 CURVE",
"371 342 LINE",
"413 345 OFFCURVE",
"456 382 OFFCURVE",
"456 438 CURVE SMOOTH",
"456 533 LINE SMOOTH",
"456 606 OFFCURVE",
"385 631 OFFCURVE",
"256 631 CURVE SMOOTH",
"89 631 OFFCURVE",
"58 624 OFFCURVE",
"58 584 CURVE",
"58 -25 LINE"
);
}
);
width = 499;
},
{
layerId = "5E1A2ACF-25BB-4872-A226-5327BC7330DB";
paths = (
{
closed = 1;
nodes = (
"94 -59 LINE",
"94 519 LINE SMOOTH",
"94 552 OFFCURVE",
"90 577 OFFCURVE",
"198 577 CURVE SMOOTH",
"270 577 OFFCURVE",
"303 552 OFFCURVE",
"303 491 CURVE SMOOTH",
"303 457 LINE SMOOTH",
"303 385 OFFCURVE",
"274 348 OFFCURVE",
"212 348 CURVE SMOOTH",
"158 348 LINE",
"158 332 LINE",
"201 332 LINE SMOOTH",
"261 332 OFFCURVE",
"313 312 OFFCURVE",
"313 236 CURVE SMOOTH",
"313 123 LINE SMOOTH",
"313 31 OFFCURVE",
"274 15 OFFCURVE",
"215 15 CURVE SMOOTH",
"138 15 LINE",
"138 0 LINE",
"215 0 LINE SMOOTH",
"280 0 OFFCURVE",
"329 15 OFFCURVE",
"329 119 CURVE SMOOTH",
"329 244 LINE SMOOTH",
"329 300 OFFCURVE",
"290 334 OFFCURVE",
"244 340 CURVE",
"287 344 OFFCURVE",
"319 385 OFFCURVE",
"319 457 CURVE SMOOTH",
"319 498 LINE SMOOTH",
"319 570 OFFCURVE",
"273 593 OFFCURVE",
"198 593 CURVE SMOOTH",
"91 593 OFFCURVE",
"78 573 OFFCURVE",
"78 527 CURVE SMOOTH",
"78 -59 LINE"
);
}
);
width = 391;
}
);
leftMetricsKey = H;
rightKerningGroup = B;
rightMetricsKey = B;
unicode = 1E9E;
},
{
glyphname = Schwa;
lastChange = "2022-04-05 22:44:43 +0000";
layers = (
{
layerId = "5E1A2ACF-25BB-4872-A226-5327BC7330DB";
paths = (
{
closed = 1;
nodes = (
"254 -8 OFFCURVE",
"314 6 OFFCURVE",
"314 122 CURVE SMOOTH",
"314 473 LINE SMOOTH",
"314 587 OFFCURVE",
"255 603 OFFCURVE",
"179 603 CURVE SMOOTH",
"106 603 OFFCURVE",
"41 589 OFFCURVE",
"41 473 CURVE SMOOTH",
"41 402 LINE",
"57 402 LINE",
"57 468 LINE SMOOTH",
"57 572 OFFCURVE",
"112 587 OFFCURVE",
"178 587 CURVE SMOOTH",
"243 587 OFFCURVE",
"298 572 OFFCURVE",
"298 468 CURVE SMOOTH",
"298 130 LINE SMOOTH",
"298 25 OFFCURVE",
"249 8 OFFCURVE",
"178 8 CURVE SMOOTH",
"107 8 OFFCURVE",
"57 23 OFFCURVE",
"57 124 CURVE SMOOTH",
"57 247 LINE",
"41 247 LINE",
"41 122 LINE SMOOTH",
"41 8 OFFCURVE",
"100 -8 OFFCURVE",
"177 -8 CURVE SMOOTH"
);
},
{
closed = 1;
nodes = (
"306 231 LINE",
"306 247 LINE",
"41 247 LINE",
"41 231 LINE"
);
}
);
width = 363;
},
{
anchors = (
{
name = bottom;
position = "{197, 0}";
},
{
name = top;
position = "{197, 591}";
}
);
associatedMasterId = "5E1A2ACF-25BB-4872-A226-5327BC7330DB";
layerId = "8A3706BD-364F-4FE3-9C2E-7E87DF0DB4CC";
name = Black;
paths = (
{
closed = 1;
nodes = (
"302 -12 OFFCURVE",
"375 14 OFFCURVE",
"375 173 CURVE SMOOTH",
"375 465 LINE SMOOTH",
"375 564 OFFCURVE",
"302 600 OFFCURVE",
"193 600 CURVE SMOOTH",
"84 600 OFFCURVE",
"18 564 OFFCURVE",
"18 465 CURVE SMOOTH",
"18 327 LINE",
"177 327 LINE",
"177 473 LINE SMOOTH",
"177 496 OFFCURVE",
"184 503 OFFCURVE",
"193 503 CURVE SMOOTH",
"203 503 OFFCURVE",
"209 496 OFFCURVE",
"209 473 CURVE SMOOTH",
"209 110 LINE SMOOTH",
"209 87 OFFCURVE",
"203 80 OFFCURVE",
"193 80 CURVE SMOOTH",
"184 80 OFFCURVE",
"177 87 OFFCURVE",
"177 110 CURVE SMOOTH",
"177 248 LINE",
"18 248 LINE",
"18 174 LINE SMOOTH",
"18 14 OFFCURVE",
"84 -12 OFFCURVE",
"193 -12 CURVE SMOOTH"
);
},
{
closed = 1;
nodes = (
"230 216 LINE",
"230 289 LINE",
"18 289 LINE",
"18 216 LINE"
);
}
);
width = 395;
}
);
leftKerningGroup = a;
leftMetricsKey = "=o-8";
rightKerningGroup = o;
rightMetricsKey = o;
unicode = 018F;
},
{
glyphname = T;
lastChange = "2022-04-05 22:44:43 +0000";
layers = (
{
anchors = (
{
name = bottom;
position = "{130, 0}";
},
{
name = center;
position = "{130, 395}";
},
{
name = top;
position = "{130, 591}";
}
);
layerId = "5E1A2ACF-25BB-4872-A226-5327BC7330DB";
paths = (
{
closed = 1;
nodes = (
"139 0 LINE",
"139 575 LINE",
"251 575 LINE",
"251 591 LINE",
"12 591 LINE",
"12 575 LINE",
"123 575 LINE",
"123 0 LINE"
);
}
);
width = 263;
}
);
leftKerningGroup = T;
note = T;
rightKerningGroup = T;
unicode = 0054;
},
{
glyphname = U;
lastChange = "2022-04-04 14:21:28 +0000";
layers = (
{
anchors = (
{
name = bottom;
position = "{209, 0}";
},
{
name = ogonek;
position = "{232, -11}";
},
{
name = top;
position = "{215, 591}";
},
{
name = topright;
position = "{332, 591}";
}
);
layerId = "5E1A2ACF-25BB-4872-A226-5327BC7330DB";
paths = (
{
closed = 1;
nodes = (
"285 -9 OFFCURVE",
"355 9 OFFCURVE",
"355 113 CURVE SMOOTH",
"355 591 LINE",
"339 591 LINE",
"339 116 LINE SMOOTH",
"339 24 OFFCURVE",
"270 7 OFFCURVE",
"209 7 CURVE SMOOTH",
"148 7 OFFCURVE",
"90 24 OFFCURVE",
"90 116 CURVE SMOOTH",
"90 591 LINE",
"74 591 LINE",
"74 113 LINE SMOOTH",
"74 9 OFFCURVE",
"134 -9 OFFCURVE",
"209 -9 CURVE SMOOTH"
);
}
);
width = 429;
}
);
leftKerningGroup = U;
leftMetricsKey = "=H-4";
note = U;
rightKerningGroup = U;
rightMetricsKey = "=H-4";
unicode = 0055;
},
{
glyphname = V;
lastChange = "2022-04-05 22:44:43 +0000";
layers = (
{
layerId = "5E1A2ACF-25BB-4872-A226-5327BC7330DB";
paths = (
{
closed = 1;
nodes = (
"165 0 LINE",
"287 591 LINE",
"271 591 LINE",
"159 44 LINE",
"41 591 LINE",
"25 591 LINE",
"152 0 LINE"
);
}
);
width = 312;
}
);
leftKerningGroup = V;
note = V;
rightKerningGroup = V;
unicode = 0056;
},
{
glyphname = W;
lastChange = "2022-04-05 22:44:43 +0000";
layers = (
{
anchors = (
{
name = bottom;
position = "{261, 0}";
},
{
name = top;
position = "{261, 591}";
}
);
background = {
paths = (
{
closed = 1;
nodes = (
"28 591 LINE",
"60 391 OFFCURVE",
"96 201 OFFCURVE",
"128 0 CURVE",
"140 0 LINE",
"261 565 LINE",
"378 0 LINE",
"393 0 LINE",
"425 201 OFFCURVE",
"461 390 OFFCURVE",
"493 591 CURVE",
"480 591 LINE",
"385 38 LINE",
"268 591 LINE",
"254 591 LINE",
"136 38 LINE",
"41 591 LINE"
);
},
{
closed = 1;
nodes = (
"28 591 LINE",
"155 0 LINE",
"168 0 LINE",
"290 591 LINE",
"278 591 LINE",
"162 24 LINE",
"40 591 LINE"
);
}
);
};
layerId = "5E1A2ACF-25BB-4872-A226-5327BC7330DB";
paths = (
{
closed = 1;
nodes = (
"141 0 LINE",
"258 553 LINE",
"371 0 LINE",
"390 0 LINE",
"492 591 LINE",
"476 591 LINE",
"380 35 LINE",
"266 591 LINE",
"250 591 LINE",
"134 45 LINE",
"41 591 LINE",
"25 591 LINE",
"125 0 LINE"
);
}
);
width = 517;
}
);
leftKerningGroup = W;
note = W;
rightKerningGroup = W;
unicode = 0057;
},
{
glyphname = X;
lastChange = "2022-04-04 14:24:44 +0000";
layers = (
{
layerId = "5E1A2ACF-25BB-4872-A226-5327BC7330DB";
paths = (
{
closed = 1;
nodes = (
"39 0 LINE",
"138 290 LINE",
"154 290 LINE",
"250 0 LINE",
"268 0 LINE",
"168 298 LINE",
"270 591 LINE",
"253 591 LINE",
"154 306 LINE",
"137 306 LINE",
"49 591 LINE",
"33 591 LINE",
"123 298 LINE",
"22 0 LINE"
);
}
);
width = 292;
}
);
note = X;
unicode = 0058;
},
{
glyphname = Y;
lastChange = "2022-04-04 14:25:05 +0000";
layers = (
{
anchors = (
{
name = bottom;
position = "{138, 0}";
},
{
name = top;
position = "{139, 591}";
},
{
name = topleft;
position = "{31, 591}";
}
);
layerId = "5E1A2ACF-25BB-4872-A226-5327BC7330DB";
paths = (
{
closed = 1;
nodes = (
"145 0 LINE",
"145 253 LINE",
"268 591 LINE",
"251 591 LINE",
"138 275 LINE",
"37 591 LINE",
"20 591 LINE",
"129 253 LINE",
"129 0 LINE"
);
}
);
width = 288;
}
);
leftKerningGroup = Y;
note = Y;
rightKerningGroup = Y;
unicode = 0059;
},
{
glyphname = Z;
lastChange = "2022-04-05 22:44:43 +0000";
layers = (
{
anchors = (
{
name = bottom;
position = "{133, 0}";
},
{
name = center;
position = "{133, 296}";
},
{
name = top;
position = "{133, 591}";
}
);
layerId = "5E1A2ACF-25BB-4872-A226-5327BC7330DB";
paths = (
{
closed = 1;
nodes = (
"241 0 LINE",
"241 16 LINE",
"37 16 LINE",
"235 577 LINE",
"235 591 LINE",
"33 591 LINE",
"33 575 LINE",
"219 577 LINE",
"18 10 LINE",
"18 0 LINE"
);
}
);
width = 263;
}
);
leftKerningGroup = Z;
note = Z;
rightKerningGroup = Z;
unicode = 005A;
},
{
color = 6;
glyphname = a;
lastChange = "2022-04-05 22:44:43 +0000";
layers = (
{
anchors = (
{
name = bottom;
position = "{177, 0}";
},
{
name = ogonek;
position = "{290, 0}";
},
{
name = top;
position = "{177, 495}";
}
);
background = {
paths = (
{
closed = 1;
nodes = (
"188 -7 OFFCURVE",
"223 4 OFFCURVE",
"250 31 CURVE SMOOTH",
"263 46 OFFCURVE",
"273 62 OFFCURVE",
"279 79 CURVE",
"281 0 LINE",
"290 0 LINE",
"290 402 LINE SMOOTH",
"290 455 OFFCURVE",
"283 502 OFFCURVE",
"178 502 CURVE SMOOTH",
"82 502 OFFCURVE",
"62 452 OFFCURVE",
"62 377 CURVE SMOOTH",
"62 334 LINE",
"73 334 LINE",
"73 375 LINE SMOOTH",
"73 448 OFFCURVE",
"90 493 OFFCURVE",
"178 493 CURVE SMOOTH",
"228 493 OFFCURVE",
"279 481 OFFCURVE",
"279 414 CURVE SMOOTH",
"279 400 LINE SMOOTH",
"279 350 OFFCURVE",
"248 328 OFFCURVE",
"181 291 CURVE SMOOTH",
"144 270 OFFCURVE",
"51 237 OFFCURVE",
"51 146 CURVE SMOOTH",
"51 112 LINE SMOOTH",
"51 -3 OFFCURVE",
"111 -7 OFFCURVE",
"152 -7 CURVE SMOOTH"
);
},
{
closed = 1;
nodes = (
"117 3 OFFCURVE",
"62 5 OFFCURVE",
"62 112 CURVE SMOOTH",
"62 142 LINE SMOOTH",
"62 225 OFFCURVE",
"131 251 OFFCURVE",
"179 278 CURVE SMOOTH",
"223 303 OFFCURVE",
"265 323 OFFCURVE",
"279 357 CURVE",
"279 157 LINE SMOOTH",
"279 110 OFFCURVE",
"275 74 OFFCURVE",
"242 39 CURVE SMOOTH",
"218 14 OFFCURVE",
"187 3 OFFCURVE",
"154 3 CURVE SMOOTH"
);
},
{
closed = 1;
nodes = (
"188 -7 OFFCURVE",
"223 4 OFFCURVE",
"250 31 CURVE SMOOTH",
"263 46 OFFCURVE",
"272 62 OFFCURVE",
"278 79 CURVE",
"280 0 LINE",
"290 0 LINE",
"290 402 LINE SMOOTH",
"290 455 OFFCURVE",
"283 502 OFFCURVE",
"178 502 CURVE SMOOTH",
"82 502 OFFCURVE",
"62 452 OFFCURVE",
"62 377 CURVE SMOOTH",
"62 334 LINE",
"74 334 LINE",
"74 375 LINE SMOOTH",
"74 447 OFFCURVE",
"91 492 OFFCURVE",
"178 492 CURVE SMOOTH",
"228 492 OFFCURVE",
"278 480 OFFCURVE",
"278 414 CURVE SMOOTH",
"278 400 LINE SMOOTH",
"278 350 OFFCURVE",
"247 328 OFFCURVE",
"181 291 CURVE SMOOTH",
"144 270 OFFCURVE",
"51 237 OFFCURVE",
"51 146 CURVE SMOOTH",
"51 112 LINE SMOOTH",
"51 -3 OFFCURVE",
"111 -7 OFFCURVE",
"152 -7 CURVE SMOOTH"
);
},
{
closed = 1;
nodes = (
"117 3 OFFCURVE",
"63 5 OFFCURVE",
"63 112 CURVE SMOOTH",
"63 142 LINE SMOOTH",
"63 225 OFFCURVE",
"131 252 OFFCURVE",
"179 278 CURVE SMOOTH",
"223 302 OFFCURVE",
"264 323 OFFCURVE",
"278 357 CURVE",
"278 157 LINE SMOOTH",
"278 110 OFFCURVE",
"275 74 OFFCURVE",
"242 39 CURVE SMOOTH",
"218 14 OFFCURVE",
"187 3 OFFCURVE",
"154 3 CURVE SMOOTH"
);
}
);
};
layerId = "5E1A2ACF-25BB-4872-A226-5327BC7330DB";
paths = (
{
closed = 1;
nodes = (
"216 -4 OFFCURVE",
"258 26 OFFCURVE",
"274 73 CURVE",
"274 0 LINE",
"289 0 LINE",
"289 402 LINE SMOOTH",
"289 455 OFFCURVE",
"285 502 OFFCURVE",
"177 502 CURVE SMOOTH",
"84 502 OFFCURVE",
"61 454 OFFCURVE",
"61 377 CURVE SMOOTH",
"61 334 LINE",
"77 334 LINE",
"77 375 LINE SMOOTH",
"77 437 OFFCURVE",
"89 486 OFFCURVE",
"177 486 CURVE SMOOTH",
"223 486 OFFCURVE",
"273 481 OFFCURVE",
"273 414 CURVE SMOOTH",
"273 400 LINE SMOOTH",
"273 350 OFFCURVE",
"247 329 OFFCURVE",
"168 285 CURVE SMOOTH",
"143 271 OFFCURVE",
"50 232 OFFCURVE",
"50 146 CURVE SMOOTH",
"50 112 LINE SMOOTH",
"50 10 OFFCURVE",
"110 -4 OFFCURVE",
"156 -4 CURVE SMOOTH"
);
},
{
closed = 1;
nodes = (
"120 12 OFFCURVE",
"66 18 OFFCURVE",
"66 112 CURVE SMOOTH",
"66 138 LINE SMOOTH",
"66 214 OFFCURVE",
"123 241 OFFCURVE",
"173 269 CURVE SMOOTH",
"212 291 OFFCURVE",
"252 312 OFFCURVE",
"273 341 CURVE",
"273 157 LINE SMOOTH",
"273 75 OFFCURVE",
"246 12 OFFCURVE",
"159 12 CURVE SMOOTH"
);
}
);
width = 342;
}
);
leftKerningGroup = a;
note = a;
rightKerningGroup = n;
rightMetricsKey = n;
unicode = 0061;
},
{
glyphname = ae;
lastChange = "2022-04-05 22:44:43 +0000";
layers = (
{
anchors = (
{
name = bottom;
position = "{278, 0}";
},
{
name = ogonek;
position = "{461, 6}";
},
{
name = top;
position = "{295, 493}";
}
);
layerId = "5E1A2ACF-25BB-4872-A226-5327BC7330DB";
paths = (
{
closed = 1;
nodes = (
"506 -7 OFFCURVE",
"512 62 OFFCURVE",
"512 124 CURVE SMOOTH",
"512 167 LINE",
"496 167 LINE",
"496 127 LINE SMOOTH",
"496 66 OFFCURVE",
"491 9 OFFCURVE",
"393 9 CURVE SMOOTH",
"294 9 OFFCURVE",
"289 68 OFFCURVE",
"289 127 CURVE SMOOTH",
"289 263 LINE",
"512 263 LINE",
"512 372 LINE SMOOTH",
"512 438 OFFCURVE",
"504 503 OFFCURVE",
"393 503 CURVE SMOOTH",
"329 503 OFFCURVE",
"299 480 OFFCURVE",
"285 448 CURVE",
"277 480 OFFCURVE",
"252 502 OFFCURVE",
"177 502 CURVE SMOOTH",
"84 502 OFFCURVE",
"61 454 OFFCURVE",
"61 377 CURVE SMOOTH",
"61 334 LINE",
"77 334 LINE",
"77 375 LINE SMOOTH",
"77 437 OFFCURVE",
"89 486 OFFCURVE",
"177 486 CURVE SMOOTH",
"223 486 OFFCURVE",
"273 481 OFFCURVE",
"273 414 CURVE SMOOTH",
"273 400 LINE SMOOTH",
"273 350 OFFCURVE",
"247 329 OFFCURVE",
"168 285 CURVE SMOOTH",
"143 271 OFFCURVE",
"50 232 OFFCURVE",
"50 146 CURVE SMOOTH",
"50 112 LINE SMOOTH",
"50 10 OFFCURVE",
"110 -4 OFFCURVE",
"156 -4 CURVE SMOOTH",
"216 -4 OFFCURVE",
"258 26 OFFCURVE",
"274 73 CURVE",
"274 0 LINE",
"289 0 LINE",
"289 37 LINE",
"304 11 OFFCURVE",
"334 -7 OFFCURVE",
"393 -7 CURVE SMOOTH"
);
},
{
closed = 1;
nodes = (
"120 12 OFFCURVE",
"66 18 OFFCURVE",
"66 112 CURVE SMOOTH",
"66 138 LINE SMOOTH",
"66 214 OFFCURVE",
"123 241 OFFCURVE",
"173 269 CURVE SMOOTH",
"212 291 OFFCURVE",
"252 312 OFFCURVE",
"273 341 CURVE",
"273 157 LINE SMOOTH",
"273 75 OFFCURVE",
"246 12 OFFCURVE",
"159 12 CURVE SMOOTH"
);
},
{
closed = 1;
nodes = (
"289 363 LINE SMOOTH",
"289 438 OFFCURVE",
"304 487 OFFCURVE",
"393 487 CURVE SMOOTH",
"493 487 OFFCURVE",
"496 433 OFFCURVE",
"496 363 CURVE SMOOTH",
"496 279 LINE",
"289 279 LINE"
);
}
);
width = 558;
}
);
leftKerningGroup = a;
leftMetricsKey = a;
note = ae;
rightKerningGroup = e;
rightMetricsKey = e;
unicode = 00E6;
},
{
glyphname = b;
lastChange = "2022-04-05 22:57:56 +0000";
layers = (
{
layerId = "5E1A2ACF-25BB-4872-A226-5327BC7330DB";
paths = (
{
closed = 1;
nodes = (
"294 -7 OFFCURVE",
"300 62 OFFCURVE",
"300 124 CURVE SMOOTH",
"300 372 LINE SMOOTH",
"300 433 OFFCURVE",
"294 503 OFFCURVE",
"181 503 CURVE SMOOTH",
"118 503 OFFCURVE",
"90 478 OFFCURVE",
"77 449 CURVE",
"77 630 LINE",
"61 630 LINE",
"61 0 LINE",
"75 0 LINE",
"77 47 LINE",
"90 16 OFFCURVE",
"114 -7 OFFCURVE",
"181 -7 CURVE SMOOTH"
);
},
{
closed = 1;
nodes = (
"77 9 OFFCURVE",
"77 74 OFFCURVE",
"77 133 CURVE SMOOTH",
"77 366 LINE SMOOTH",
"77 434 OFFCURVE",
"100 487 OFFCURVE",
"181 487 CURVE SMOOTH",
"279 487 OFFCURVE",
"284 422 OFFCURVE",
"284 369 CURVE SMOOTH",
"284 133 LINE SMOOTH",
"284 74 OFFCURVE",
"279 9 OFFCURVE",
"181 9 CURVE SMOOTH"
);
}
);
width = 349;
}
);
leftKerningGroup = b;
leftMetricsKey = n;
note = b;
rightKerningGroup = o;
rightMetricsKey = o;
unicode = 0062;
},
{
glyphname = c;
lastChange = "2022-04-05 22:44:43 +0000";
layers = (
{
anchors = (
{
name = bottom;
position = "{167, 0}";
},
{
name = top;
position = "{167, 495}";
}
);
layerId = "5E1A2ACF-25BB-4872-A226-5327BC7330DB";
paths = (
{
closed = 1;
nodes = (
"282 -7 OFFCURVE",
"288 62 OFFCURVE",
"288 124 CURVE SMOOTH",
"288 167 LINE",
"272 167 LINE",
"272 127 LINE SMOOTH",
"272 74 OFFCURVE",
"267 9 OFFCURVE",
"169 9 CURVE SMOOTH",
"70 9 OFFCURVE",
"65 74 OFFCURVE",
"65 127 CURVE SMOOTH",
"65 369 LINE SMOOTH",
"65 422 OFFCURVE",
"70 487 OFFCURVE",
"169 487 CURVE SMOOTH",
"267 487 OFFCURVE",
"272 422 OFFCURVE",
"272 369 CURVE SMOOTH",
"272 328 LINE",
"288 328 LINE",
"288 372 LINE SMOOTH",
"288 433 OFFCURVE",
"282 503 OFFCURVE",
"169 503 CURVE SMOOTH",
"54 503 OFFCURVE",
"49 433 OFFCURVE",
"49 372 CURVE SMOOTH",
"49 124 LINE SMOOTH",
"49 62 OFFCURVE",
"54 -7 OFFCURVE",
"169 -7 CURVE SMOOTH"
);
}
);
width = 327;
}
);
leftKerningGroup = o;
leftMetricsKey = o;
note = c;
rightKerningGroup = c;
rightMetricsKey = "=o-10";
unicode = 0063;
},
{
glyphname = d;
lastChange = "2022-04-05 22:57:56 +0000";
layers = (
{
anchors = (
{
name = bottom;
position = "{175, 0}";
},
{
name = center;
position = "{175, 248}";
},
{
name = top;
position = "{175, 630}";
},
{
name = topright;
position = "{337, 513}";
}
);
layerId = "5E1A2ACF-25BB-4872-A226-5327BC7330DB";
paths = (
{
closed = 1;
nodes = (
"224 -7 OFFCURVE",
"263 22 OFFCURVE",
"273 50 CURVE",
"275 0 LINE",
"288 0 LINE",
"288 630 LINE",
"272 630 LINE",
"272 466 LINE",
"264 474 OFFCURVE",
"237 503 OFFCURVE",
"168 503 CURVE SMOOTH",
"55 503 OFFCURVE",
"49 433 OFFCURVE",
"49 372 CURVE SMOOTH",
"49 124 LINE SMOOTH",
"49 62 OFFCURVE",
"55 -7 OFFCURVE",
"168 -7 CURVE SMOOTH"
);
},
{
closed = 1;
nodes = (
"65 9 OFFCURVE",
"65 74 OFFCURVE",
"65 127 CURVE SMOOTH",
"65 369 LINE SMOOTH",
"65 422 OFFCURVE",
"65 487 OFFCURVE",
"168 487 CURVE SMOOTH",
"250 487 OFFCURVE",
"266 450 OFFCURVE",
"272 437 CURVE",
"272 127 LINE SMOOTH",
"272 65 OFFCURVE",
"252 9 OFFCURVE",
"168 9 CURVE SMOOTH"
);
}
);
width = 356;
}
);
leftKerningGroup = o;
leftMetricsKey = o;
note = d;
rightKerningGroup = d;
unicode = 0064;
},
{
glyphname = eth;
lastChange = "2021-12-09 03:35:29 +0000";
layers = (
{
layerId = "5E1A2ACF-25BB-4872-A226-5327BC7330DB";
paths = (
{
closed = 1;
nodes = (
"266 -7 OFFCURVE",
"288 43 OFFCURVE",
"288 123 CURVE SMOOTH",
"288 449 LINE SMOOTH",
"288 516 OFFCURVE",
"285 567 OFFCURVE",
"274 599 CURVE SMOOTH",
"258 646 OFFCURVE",
"226 658 OFFCURVE",
"191 661 CURVE",
"216 707 LINE",
"204 707 LINE",
"180 661 LINE",
"141 660 OFFCURVE",
"111 653 OFFCURVE",
"92 646 CURVE",
"92 636 LINE",
"110 641 OFFCURVE",
"149 651 OFFCURVE",
"170 651 CURVE SMOOTH",
"174 651 LINE",
"143 591 LINE",
"155 591 LINE",
"186 650 LINE",
"266 645 OFFCURVE",
"271 585 OFFCURVE",
"276 463 CURVE",
"256 486 OFFCURVE",
"223 503 OFFCURVE",
"168 503 CURVE SMOOTH",
"55 503 OFFCURVE",
"49 433 OFFCURVE",
"49 372 CURVE SMOOTH",
"49 124 LINE SMOOTH",
"49 62 OFFCURVE",
"55 -7 OFFCURVE",
"168 -7 CURVE SMOOTH"
);
},
{
closed = 1;
nodes = (
"65 3 OFFCURVE",
"60 68 OFFCURVE",
"60 127 CURVE SMOOTH",
"60 369 LINE SMOOTH",
"60 428 OFFCURVE",
"65 493 OFFCURVE",
"168 493 CURVE SMOOTH",
"245 493 OFFCURVE",
"268 454 OFFCURVE",
"277 445 CURVE",
"277 127 LINE SMOOTH",
"277 71 OFFCURVE",
"272 3 OFFCURVE",
"168 3 CURVE SMOOTH"
);
}
);
width = 337;
}
);
leftKerningGroup = o;
note = eth;
rightKerningGroup = d;
unicode = 00F0;
},
{
glyphname = e;
lastChange = "2022-04-05 22:44:43 +0000";
layers = (
{
anchors = (
{
name = bottom;
position = "{168, 0}";
},
{
name = ogonek;
position = "{237, 6}";
},
{
name = top;
position = "{174, 495}";
}
);
background = {
paths = (
{
closed = 1;
nodes = (
"283 -7 OFFCURVE",
"289 63 OFFCURVE",
"289 125 CURVE SMOOTH",
"289 168 LINE",
"277 168 LINE",
"277 128 LINE SMOOTH",
"277 69 OFFCURVE",
"272 5 OFFCURVE",
"170 5 CURVE SMOOTH",
"67 5 OFFCURVE",
"62 69 OFFCURVE",
"62 128 CURVE SMOOTH",
"62 262 LINE",
"289 262 LINE",
"289 373 LINE SMOOTH",
"289 434 OFFCURVE",
"283 505 OFFCURVE",
"170 505 CURVE SMOOTH",
"55 505 OFFCURVE",
"50 434 OFFCURVE",
"50 373 CURVE SMOOTH",
"50 125 LINE SMOOTH",
"50 63 OFFCURVE",
"55 -7 OFFCURVE",
"170 -7 CURVE SMOOTH"
);
},
{
closed = 1;
nodes = (
"62 272 LINE",
"62 370 LINE SMOOTH",
"62 429 OFFCURVE",
"67 493 OFFCURVE",
"170 493 CURVE SMOOTH",
"272 493 OFFCURVE",
"277 429 OFFCURVE",
"277 370 CURVE SMOOTH",
"277 272 LINE"
);
}
);
};
guideLines = (
{
angle = 90;
position = "{62, 80}";
},
{
angle = 90;
position = "{50, 34}";
}
);
layerId = "5E1A2ACF-25BB-4872-A226-5327BC7330DB";
paths = (
{
closed = 1;
nodes = (
"282 -7 OFFCURVE",
"288 62 OFFCURVE",
"288 124 CURVE SMOOTH",
"288 167 LINE",
"272 167 LINE",
"272 127 LINE SMOOTH",
"272 66 OFFCURVE",
"267 9 OFFCURVE",
"169 9 CURVE SMOOTH",
"70 9 OFFCURVE",
"65 68 OFFCURVE",
"65 127 CURVE SMOOTH",
"65 263 LINE",
"288 263 LINE",
"288 372 LINE SMOOTH",
"288 438 OFFCURVE",
"280 503 OFFCURVE",
"169 503 CURVE SMOOTH",
"58 503 OFFCURVE",
"49 433 OFFCURVE",
"49 372 CURVE SMOOTH",
"49 124 LINE SMOOTH",
"49 62 OFFCURVE",
"54 -7 OFFCURVE",
"169 -7 CURVE SMOOTH"
);
},
{
closed = 1;
nodes = (
"65 363 LINE SMOOTH",
"65 438 OFFCURVE",
"80 487 OFFCURVE",
"169 487 CURVE SMOOTH",
"269 487 OFFCURVE",
"272 433 OFFCURVE",
"272 363 CURVE SMOOTH",
"272 279 LINE",
"65 279 LINE"
);
}
);
width = 334;
}
);
leftKerningGroup = o;
leftMetricsKey = o;
note = e;
rightKerningGroup = e;
rightMetricsKey = "=o-3";
unicode = 0065;
},
{
glyphname = f;
lastChange = "2022-04-05 22:57:56 +0000";
layers = (
{
background = {
paths = (
{
closed = 1;
nodes = (
"72 0 LINE",
"72 461 LINE",
"190 461 LINE",
"190 471 LINE",
"72 471 LINE",
"72 552 LINE SMOOTH",
"72 587 OFFCURVE",
"83 627 OFFCURVE",
"130 627 CURVE SMOOTH",
"147 627 OFFCURVE",
"162 626 OFFCURVE",
"173 625 CURVE SMOOTH",
"190 623 LINE",
"190 632 LINE",
"177 635 OFFCURVE",
"156 636 OFFCURVE",
"131 636 CURVE SMOOTH",
"79 636 OFFCURVE",
"61 603 OFFCURVE",
"61 547 CURVE SMOOTH",
"61 471 LINE",
"30 471 LINE",
"30 461 LINE",
"61 461 LINE",
"61 0 LINE"
);
}
);
};
layerId = "5E1A2ACF-25BB-4872-A226-5327BC7330DB";
paths = (
{
closed = 1;
nodes = (
"75 0 LINE",
"75 458 LINE",
"191 458 LINE",
"191 474 LINE",
"75 474 LINE",
"75 548 LINE SMOOTH",
"75 585 OFFCURVE",
"86 621 OFFCURVE",
"131 621 CURVE SMOOTH",
"150 621 OFFCURVE",
"167 619 OFFCURVE",
"191 616 CURVE",
"191 632 LINE",
"182 633 OFFCURVE",
"157 636 OFFCURVE",
"132 636 CURVE SMOOTH",
"80 636 OFFCURVE",
"59 605 OFFCURVE",
"59 543 CURVE SMOOTH",
"59 474 LINE",
"28 474 LINE",
"28 458 LINE",
"59 458 LINE",
"59 0 LINE"
);
}
);
width = 175;
}
);
note = f;
unicode = 0066;
},
{
glyphname = g;
lastChange = "2022-04-05 22:44:43 +0000";
layers = (
{
anchors = (
{
name = bottom;
position = "{169, -116}";
},
{
name = top;
position = "{177, 495}";
}
);
layerId = "5E1A2ACF-25BB-4872-A226-5327BC7330DB";
paths = (
{
closed = 1;
nodes = (
"249 -115 OFFCURVE",
"288 -71 OFFCURVE",
"288 5 CURVE SMOOTH",
"288 495 LINE",
"275 495 LINE",
"272 466 LINE",
"264 474 OFFCURVE",
"237 503 OFFCURVE",
"168 503 CURVE SMOOTH",
"55 503 OFFCURVE",
"49 433 OFFCURVE",
"49 372 CURVE SMOOTH",
"49 153 LINE SMOOTH",
"49 91 OFFCURVE",
"55 22 OFFCURVE",
"168 22 CURVE SMOOTH",
"222 22 OFFCURVE",
"261 49 OFFCURVE",
"272 76 CURVE",
"272 3 LINE SMOOTH",
"272 -78 OFFCURVE",
"220 -99 OFFCURVE",
"166 -99 CURVE SMOOTH",
"143 -99 OFFCURVE",
"118 -97 OFFCURVE",
"102 -94 CURVE",
"102 -111 LINE",
"111 -112 OFFCURVE",
"136 -115 OFFCURVE",
"166 -115 CURVE SMOOTH"
);
},
{
closed = 1;
nodes = (
"65 38 OFFCURVE",
"65 103 OFFCURVE",
"65 156 CURVE SMOOTH",
"65 369 LINE SMOOTH",
"65 422 OFFCURVE",
"65 487 OFFCURVE",
"168 487 CURVE SMOOTH",
"250 487 OFFCURVE",
"266 450 OFFCURVE",
"272 437 CURVE",
"272 156 LINE SMOOTH",
"272 94 OFFCURVE",
"252 38 OFFCURVE",
"168 38 CURVE SMOOTH"
);
}
);
width = 341;
}
);
leftKerningGroup = o;
leftMetricsKey = o;
note = g;
rightKerningGroup = g;
unicode = 0067;
},
{
glyphname = h;
lastChange = "2022-04-05 22:44:43 +0000";
layers = (
{
anchors = (
{
name = bottom;
position = "{184, 0}";
},
{
name = center;
position = "{105, 545}";
},
{
name = top;
position = "{71, 630}";
}
);
layerId = "5E1A2ACF-25BB-4872-A226-5327BC7330DB";
paths = (
{
closed = 1;
nodes = (
"77 0 LINE",
"77 389 LINE",
"82 446 OFFCURVE",
"113 487 OFFCURVE",
"186 487 CURVE SMOOTH",
"286 487 OFFCURVE",
"289 422 OFFCURVE",
"289 363 CURVE SMOOTH",
"289 0 LINE",
"305 0 LINE",
"305 372 LINE SMOOTH",
"305 433 OFFCURVE",
"299 503 OFFCURVE",
"186 503 CURVE SMOOTH",
"123 503 OFFCURVE",
"92 476 OFFCURVE",
"77 445 CURVE",
"77 630 LINE",
"61 630 LINE",
"61 0 LINE"
);
}
);
width = 358;
}
);
leftKerningGroup = n;
leftMetricsKey = n;
note = h;
rightKerningGroup = n;
rightMetricsKey = n;
unicode = 0068;
},
{
glyphname = idotless;
lastChange = "2022-04-05 22:44:43 +0000";
layers = (
{
anchors = (
{
name = bottom;
position = "{70, 0}";
},
{
name = ogonek;
position = "{75, 0}";
},
{
name = top;
position = "{70, 495}";
}
);
layerId = "5E1A2ACF-25BB-4872-A226-5327BC7330DB";
paths = (
{
closed = 1;
nodes = (
"78 0 LINE",
"78 495 LINE",
"62 495 LINE",
"62 0 LINE"
);
}
);
width = 139;
}
);
note = dotlessi;
unicode = 0131;
},
{
glyphname = jdotless;
lastChange = "2022-04-05 22:44:43 +0000";
layers = (
{
anchors = (
{
name = bottom;
position = "{54, -116}";
},
{
name = top;
position = "{66, 495}";
}
);
layerId = "5E1A2ACF-25BB-4872-A226-5327BC7330DB";
paths = (
{
closed = 1;
nodes = (
"50 -116 OFFCURVE",
"74 -86 OFFCURVE",
"74 -33 CURVE SMOOTH",
"74 495 LINE",
"58 495 LINE",
"58 -32 LINE SMOOTH",
"58 -68 OFFCURVE",
"45 -101 OFFCURVE",
"2 -101 CURVE SMOOTH",
"-17 -101 OFFCURVE",
"-34 -99 OFFCURVE",
"-48 -97 CURVE",
"-48 -113 LINE",
"-49 -113 OFFCURVE",
"-24 -116 OFFCURVE",
"1 -116 CURVE SMOOTH"
);
}
);
width = 128;
}
);
leftKerningGroup = j;
rightKerningGroup = j;
unicode = 0237;
},
{
glyphname = k;
lastChange = "2022-04-05 22:44:43 +0000";
layers = (
{
anchors = (
{
name = bottom;
position = "{159, 0}";
},
{
name = top;
position = "{146, 630}";
}
);
layerId = "5E1A2ACF-25BB-4872-A226-5327BC7330DB";
paths = (
{
closed = 1;
nodes = (
"77 0 LINE",
"77 280 LINE",
"114 280 LINE",
"260 0 LINE",
"277 0 LINE",
"128 287 LINE",
"271 495 LINE",
"252 495 LINE",
"115 296 LINE",
"77 296 LINE",
"77 630 LINE",
"61 630 LINE",
"61 0 LINE"
);
}
);
width = 289;
}
);
leftKerningGroup = b;
leftMetricsKey = n;
note = k;
rightKerningGroup = k;
unicode = 006B;
},
{
glyphname = kgreenlandic;
lastChange = "2022-04-05 22:44:43 +0000";
layers = (
{
layerId = "5E1A2ACF-25BB-4872-A226-5327BC7330DB";
paths = (
{
closed = 1;
nodes = (
"77 0 LINE",
"77 208 LINE",
"86 231 OFFCURVE",
"101 261 OFFCURVE",
"120 293 CURVE",
"270 0 LINE",
"287 0 LINE",
"130 309 LINE",
"172 376 OFFCURVE",
"230 444 OFFCURVE",
"291 467 CURVE",
"291 483 LINE",
"202 453 OFFCURVE",
"114 327 OFFCURVE",
"77 243 CURVE",
"77 630 LINE",
"61 630 LINE",
"61 0 LINE"
);
}
);
width = 309;
}
);
leftKerningGroup = b;
leftMetricsKey = n;
note = kgreenlandic;
rightKerningGroup = k;
unicode = 0138;
},
{
glyphname = l;
lastChange = "2022-04-05 22:44:43 +0000";
layers = (
{
anchors = (
{
name = bottom;
position = "{70, 0}";
},
{
name = center;
position = "{70, 315}";
},
{
name = top;
position = "{70, 630}";
},
{
name = topright;
position = "{113, 516}";
}
);
layerId = "5E1A2ACF-25BB-4872-A226-5327BC7330DB";
paths = (
{
closed = 1;
nodes = (
"77 0 LINE",
"77 630 LINE",
"61 630 LINE",
"61 0 LINE"
);
}
);
width = 145;
}
);
leftKerningGroup = b;
leftMetricsKey = n;
note = l;
rightKerningGroup = d;
rightMetricsKey = d;
unicode = 006C;
},
{
glyphname = lslash;
lastChange = "2022-04-05 22:44:43 +0000";
layers = (
{
layerId = "5E1A2ACF-25BB-4872-A226-5327BC7330DB";
paths = (
{
closed = 1;
nodes = (
"137 0 LINE",
"137 200 LINE",
"217 237 LINE",
"217 247 LINE",
"137 211 LINE",
"137 630 LINE",
"126 630 LINE",
"126 206 LINE",
"49 171 LINE",
"49 160 LINE",
"126 195 LINE",
"126 0 LINE"
);
}
);
width = 266;
}
);
leftKerningGroup = b;
note = lslash;
unicode = 0142;
},
{
glyphname = m;
lastChange = "2022-04-05 22:44:43 +0000";
layers = (
{
layerId = "5E1A2ACF-25BB-4872-A226-5327BC7330DB";
paths = (
{
closed = 1;
nodes = (
"77 0 LINE",
"77 389 LINE",
"82 446 OFFCURVE",
"113 487 OFFCURVE",
"186 487 CURVE SMOOTH",
"286 487 OFFCURVE",
"289 422 OFFCURVE",
"289 363 CURVE SMOOTH",
"289 0 LINE",
"305 0 LINE",
"305 372 LINE",
"310 440 OFFCURVE",
"342 487 OFFCURVE",
"415 487 CURVE SMOOTH",
"515 487 OFFCURVE",
"518 422 OFFCURVE",
"518 363 CURVE SMOOTH",
"518 0 LINE",
"534 0 LINE",
"534 372 LINE SMOOTH",
"534 433 OFFCURVE",
"528 503 OFFCURVE",
"415 503 CURVE SMOOTH",
"354 503 OFFCURVE",
"315 475 OFFCURVE",
"300 430 CURVE",
"291 470 OFFCURVE",
"264 503 OFFCURVE",
"186 503 CURVE SMOOTH",
"123 503 OFFCURVE",
"92 476 OFFCURVE",
"77 445 CURVE",
"75 495 LINE",
"61 495 LINE",
"61 0 LINE"
);
}
);
width = 587;
}
);
leftKerningGroup = n;
leftMetricsKey = n;
note = m;
rightKerningGroup = n;
rightMetricsKey = n;
unicode = 006D;
},
{
glyphname = n;
lastChange = "2022-04-05 22:44:43 +0000";
layers = (
{
anchors = (
{
name = bottom;
position = "{183, 0}";
},
{
name = top;
position = "{183, 495}";
}
);
background = {
paths = (
{
closed = 1;
nodes = (
"61 0 LINE",
"77 0 LINE",
"77 389 LINE",
"82 446 OFFCURVE",
"113 487 OFFCURVE",
"186 487 CURVE SMOOTH",
"286 487 OFFCURVE",
"289 422 OFFCURVE",
"289 363 CURVE SMOOTH",
"289 0 LINE",
"305 0 LINE",
"305 372 LINE SMOOTH",
"305 433 OFFCURVE",
"299 503 OFFCURVE",
"186 503 CURVE SMOOTH",
"123 503 OFFCURVE",
"92 476 OFFCURVE",
"77 445 CURVE",
"75 495 LINE",
"61 495 LINE"
);
}
);
};
layerId = "5E1A2ACF-25BB-4872-A226-5327BC7330DB";
paths = (
{
closed = 1;
nodes = (
"77 0 LINE",
"77 384 LINE SMOOTH",
"77 441 OFFCURVE",
"112 487 OFFCURVE",
"186 487 CURVE SMOOTH",
"286 487 OFFCURVE",
"289 422 OFFCURVE",
"289 363 CURVE SMOOTH",
"289 0 LINE",
"305 0 LINE",
"305 372 LINE SMOOTH",
"305 433 OFFCURVE",
"299 503 OFFCURVE",
"186 503 CURVE SMOOTH",
"123 503 OFFCURVE",
"92 474 OFFCURVE",
"77 443 CURVE",
"75 495 LINE",
"61 495 LINE",
"61 0 LINE"
);
}
);
width = 358;
}
);
leftKerningGroup = n;
note = n;
rightKerningGroup = n;
unicode = 006E;
},
{
glyphname = eng;
lastChange = "2021-12-09 03:35:29 +0000";
layers = (
{
layerId = "5E1A2ACF-25BB-4872-A226-5327BC7330DB";
paths = (
{
closed = 1;
nodes = (
"205 -115 LINE SMOOTH",
"254 -112 OFFCURVE",
"289 -91 OFFCURVE",
"289 -31 CURVE SMOOTH",
"289 372 LINE SMOOTH",
"289 433 OFFCURVE",
"283 503 OFFCURVE",
"170 503 CURVE SMOOTH",
"107 503 OFFCURVE",
"76 476 OFFCURVE",
"61 445 CURVE",
"58 495 LINE",
"49 495 LINE",
"49 0 LINE",
"61 0 LINE",
"61 417 LINE",
"66 452 OFFCURVE",
"97 493 OFFCURVE",
"170 493 CURVE SMOOTH",
"274 493 OFFCURVE",
"277 428 OFFCURVE",
"277 369 CURVE SMOOTH",
"277 -32 LINE SMOOTH",
"277 -85 OFFCURVE",
"242 -106 OFFCURVE",
"190 -106 CURVE SMOOTH",
"183 -106 OFFCURVE",
"176 -105 OFFCURVE",
"169 -104 CURVE",
"169 -114 LINE",
"177 -115 OFFCURVE",
"186 -115 OFFCURVE",
"195 -115 CURVE SMOOTH"
);
}
);
width = 339;
}
);
leftKerningGroup = n;
note = eng;
rightKerningGroup = n;
unicode = 014B;
},
{
glyphname = o;
lastChange = "2022-04-05 22:44:43 +0000";
layers = (
{
anchors = (
{
name = bottom;
position = "{170, 0}";
},
{
name = center;
position = "{170, 248}";
},
{
name = ogonek;
position = "{193, 0}";
},
{
name = top;
position = "{170, 495}";
},
{
name = topright;
position = "{204, 495}";
}
);
background = {
paths = (
{
closed = 1;
nodes = (
"283 -7 OFFCURVE",
"289 62 OFFCURVE",
"289 124 CURVE SMOOTH",
"289 372 LINE SMOOTH",
"289 433 OFFCURVE",
"283 503 OFFCURVE",
"170 503 CURVE SMOOTH",
"55 503 OFFCURVE",
"50 433 OFFCURVE",
"50 372 CURVE SMOOTH",
"50 124 LINE SMOOTH",
"50 62 OFFCURVE",
"55 -7 OFFCURVE",
"170 -7 CURVE SMOOTH"
);
},
{
closed = 1;
nodes = (
"66 3 OFFCURVE",
"61 68 OFFCURVE",
"61 127 CURVE SMOOTH",
"61 369 LINE SMOOTH",
"61 428 OFFCURVE",
"66 493 OFFCURVE",
"170 493 CURVE SMOOTH",
"273 493 OFFCURVE",
"278 428 OFFCURVE",
"278 369 CURVE SMOOTH",
"278 127 LINE SMOOTH",
"278 68 OFFCURVE",
"273 3 OFFCURVE",
"170 3 CURVE SMOOTH"
);
}
);
};
layerId = "5E1A2ACF-25BB-4872-A226-5327BC7330DB";
paths = (
{
closed = 1;
nodes = (
"282 -7 OFFCURVE",
"293 62 OFFCURVE",
"293 124 CURVE SMOOTH",
"293 372 LINE SMOOTH",
"293 433 OFFCURVE",
"282 503 OFFCURVE",
"173 503 CURVE SMOOTH",
"54 503 OFFCURVE",
"49 433 OFFCURVE",
"49 372 CURVE SMOOTH",
"49 124 LINE SMOOTH",
"49 62 OFFCURVE",
"54 -7 OFFCURVE",
"169 -7 CURVE SMOOTH"
);
},
{
closed = 1;
nodes = (
"65 9 OFFCURVE",
"65 74 OFFCURVE",
"65 127 CURVE SMOOTH",
"65 369 LINE SMOOTH",
"65 422 OFFCURVE",
"65 487 OFFCURVE",
"173 487 CURVE SMOOTH",
"272 487 OFFCURVE",
"277 422 OFFCURVE",
"277 369 CURVE SMOOTH",
"277 127 LINE SMOOTH",
"277 74 OFFCURVE",
"272 9 OFFCURVE",
"169 9 CURVE SMOOTH"
);
}
);
width = 342;
}
);
leftKerningGroup = o;
note = o;
rightKerningGroup = o;
unicode = 006F;
},
{
glyphname = oslash;
lastChange = "2022-04-05 22:44:43 +0000";
layers = (
{
anchors = (
{
name = top;
position = "{178, 495}";
}
);
layerId = "5E1A2ACF-25BB-4872-A226-5327BC7330DB";
paths = (
{
closed = 1;
nodes = (
"34 -46 LINE",
"74 33 LINE",
"90 9 OFFCURVE",
"120 -7 OFFCURVE",
"176 -7 CURVE SMOOTH",
"289 -7 OFFCURVE",
"300 62 OFFCURVE",
"300 124 CURVE SMOOTH",
"300 372 LINE SMOOTH",
"300 399 OFFCURVE",
"298 428 OFFCURVE",
"286 451 CURVE",
"335 548 LINE",
"318 548 LINE",
"277 466 LINE",
"259 488 OFFCURVE",
"230 503 OFFCURVE",
"180 503 CURVE SMOOTH",
"61 503 OFFCURVE",
"56 433 OFFCURVE",
"56 372 CURVE SMOOTH",
"56 124 LINE SMOOTH",
"56 99 OFFCURVE",
"57 73 OFFCURVE",
"65 51 CURVE",
"16 -46 LINE"
);
},
{
closed = 1;
nodes = (
"122 9 OFFCURVE",
"96 27 OFFCURVE",
"83 51 CURVE",
"276 432 LINE",
"283 412 OFFCURVE",
"284 390 OFFCURVE",
"284 369 CURVE SMOOTH",
"284 127 LINE SMOOTH",
"284 74 OFFCURVE",
"279 9 OFFCURVE",
"176 9 CURVE SMOOTH"
);
},
{
closed = 1;
nodes = (
"72 90 OFFCURVE",
"72 109 OFFCURVE",
"72 127 CURVE SMOOTH",
"72 369 LINE SMOOTH",
"72 422 OFFCURVE",
"72 487 OFFCURVE",
"180 487 CURVE SMOOTH",
"228 487 OFFCURVE",
"254 472 OFFCURVE",
"268 450 CURVE",
"76 72 LINE"
);
}
);
width = 357;
}
);
leftKerningGroup = o;
note = oslash;
rightKerningGroup = o;
unicode = 00F8;
},
{
glyphname = oe;
lastChange = "2022-04-05 22:44:43 +0000";
layers = (
{
anchors = (
{
name = bottom;
position = "{396, 0}";
},
{
name = center;
position = "{170, 248}";
},
{
name = ogonek;
position = "{465, 6}";
},
{
name = top;
position = "{402, 495}";
},
{
name = topright;
position = "{204, 495}";
}
);
background = {
paths = (
{
closed = 1;
nodes = (
"245 -7 OFFCURVE",
"271 24 OFFCURVE",
"282 64 CURVE",
"293 24 OFFCURVE",
"320 -7 OFFCURVE",
"397 -7 CURVE SMOOTH",
"510 -7 OFFCURVE",
"516 62 OFFCURVE",
"516 124 CURVE SMOOTH",
"516 167 LINE",
"505 167 LINE",
"505 127 LINE SMOOTH",
"505 68 OFFCURVE",
"500 3 OFFCURVE",
"397 3 CURVE SMOOTH",
"304 3 OFFCURVE",
"288 56 OFFCURVE",
"288 110 CURVE SMOOTH",
"288 263 LINE",
"516 263 LINE",
"516 372 LINE SMOOTH",
"516 433 OFFCURVE",
"510 503 OFFCURVE",
"397 503 CURVE SMOOTH",
"320 503 OFFCURVE",
"292 471 OFFCURVE",
"282 432 CURVE",
"272 471 OFFCURVE",
"244 503 OFFCURVE",
"169 503 CURVE SMOOTH",
"54 503 OFFCURVE",
"49 433 OFFCURVE",
"49 372 CURVE SMOOTH",
"49 124 LINE SMOOTH",
"49 62 OFFCURVE",
"54 -7 OFFCURVE",
"169 -7 CURVE SMOOTH"
);
},
{
closed = 1;
nodes = (
"65 3 OFFCURVE",
"60 68 OFFCURVE",
"60 127 CURVE SMOOTH",
"60 369 LINE SMOOTH",
"60 428 OFFCURVE",
"65 493 OFFCURVE",
"169 493 CURVE SMOOTH",
"261 493 OFFCURVE",
"277 440 OFFCURVE",
"277 386 CURVE SMOOTH",
"277 127 LINE SMOOTH",
"277 68 OFFCURVE",
"272 3 OFFCURVE",
"169 3 CURVE SMOOTH"
);
},
{
closed = 1;
nodes = (
"288 273 LINE",
"288 386 LINE SMOOTH",
"288 440 OFFCURVE",
"304 493 OFFCURVE",
"397 493 CURVE SMOOTH",
"500 493 OFFCURVE",
"505 428 OFFCURVE",
"505 369 CURVE SMOOTH",
"505 273 LINE"
);
}
);
};
layerId = "5E1A2ACF-25BB-4872-A226-5327BC7330DB";
paths = (
{
closed = 1;
nodes = (
"241 -7 OFFCURVE",
"271 21 OFFCURVE",
"284 57 CURVE",
"295 21 OFFCURVE",
"324 -7 OFFCURVE",
"397 -7 CURVE SMOOTH",
"510 -7 OFFCURVE",
"516 62 OFFCURVE",
"516 124 CURVE SMOOTH",
"516 167 LINE",
"500 167 LINE",
"500 127 LINE SMOOTH",
"500 66 OFFCURVE",
"495 9 OFFCURVE",
"397 9 CURVE SMOOTH",
"298 9 OFFCURVE",
"293 68 OFFCURVE",
"293 127 CURVE SMOOTH",
"293 263 LINE",
"516 263 LINE",
"516 372 LINE SMOOTH",
"516 438 OFFCURVE",
"508 503 OFFCURVE",
"397 503 CURVE SMOOTH",
"326 503 OFFCURVE",
"297 474 OFFCURVE",
"285 437 CURVE",
"273 474 OFFCURVE",
"243 503 OFFCURVE",
"173 503 CURVE SMOOTH",
"54 503 OFFCURVE",
"49 433 OFFCURVE",
"49 372 CURVE SMOOTH",
"49 124 LINE SMOOTH",
"49 62 OFFCURVE",
"54 -7 OFFCURVE",
"169 -7 CURVE SMOOTH"
);
},
{
closed = 1;
nodes = (
"65 9 OFFCURVE",
"65 74 OFFCURVE",
"65 127 CURVE SMOOTH",
"65 369 LINE SMOOTH",
"65 422 OFFCURVE",
"65 487 OFFCURVE",
"173 487 CURVE SMOOTH",
"272 487 OFFCURVE",
"277 422 OFFCURVE",
"277 369 CURVE SMOOTH",
"277 127 LINE SMOOTH",
"277 74 OFFCURVE",
"272 9 OFFCURVE",
"169 9 CURVE SMOOTH"
);
},
{
closed = 1;
nodes = (
"293 363 LINE SMOOTH",
"293 438 OFFCURVE",
"308 487 OFFCURVE",
"397 487 CURVE SMOOTH",
"497 487 OFFCURVE",
"500 433 OFFCURVE",
"500 363 CURVE SMOOTH",
"500 279 LINE",
"293 279 LINE"
);
}
);
width = 560;
}
);
leftKerningGroup = o;
note = oe;
rightKerningGroup = e;
unicode = 0153;
},
{
glyphname = p;
lastChange = "2022-04-05 22:44:43 +0000";
layers = (
{
layerId = "5E1A2ACF-25BB-4872-A226-5327BC7330DB";
paths = (
{
closed = 1;
nodes = (
"77 -116 LINE",
"77 38 LINE",
"85 16 OFFCURVE",
"114 -7 OFFCURVE",
"181 -7 CURVE SMOOTH",
"294 -7 OFFCURVE",
"300 62 OFFCURVE",
"300 124 CURVE SMOOTH",
"300 372 LINE SMOOTH",
"300 433 OFFCURVE",
"294 503 OFFCURVE",
"181 503 CURVE SMOOTH",
"112 503 OFFCURVE",
"84 471 OFFCURVE",
"77 445 CURVE",
"75 495 LINE",
"61 495 LINE",
"61 -116 LINE"
);
},
{
closed = 1;
nodes = (
"77 9 OFFCURVE",
"77 74 OFFCURVE",
"77 127 CURVE SMOOTH",
"77 363 LINE SMOOTH",
"77 428 OFFCURVE",
"85 487 OFFCURVE",
"181 487 CURVE SMOOTH",
"284 487 OFFCURVE",
"284 428 OFFCURVE",
"284 369 CURVE SMOOTH",
"284 127 LINE SMOOTH",
"284 74 OFFCURVE",
"284 9 OFFCURVE",
"181 9 CURVE SMOOTH"
);
}
);
width = 349;
}
);
leftKerningGroup = n;
leftMetricsKey = n;
note = p;
rightKerningGroup = o;
rightMetricsKey = o;
unicode = 0070;
},
{
glyphname = thorn;
lastChange = "2022-04-05 22:44:43 +0000";
layers = (
{
layerId = "5E1A2ACF-25BB-4872-A226-5327BC7330DB";
paths = (
{
closed = 1;
nodes = (
"80 -116 LINE",
"80 38 LINE",
"88 16 OFFCURVE",
"117 -7 OFFCURVE",
"184 -7 CURVE SMOOTH",
"297 -7 OFFCURVE",
"303 62 OFFCURVE",
"303 124 CURVE SMOOTH",
"303 372 LINE SMOOTH",
"303 433 OFFCURVE",
"297 503 OFFCURVE",
"184 503 CURVE SMOOTH",
"115 503 OFFCURVE",
"87 471 OFFCURVE",
"80 445 CURVE",
"80 630 LINE",
"64 630 LINE",
"64 -116 LINE"
);
},
{
closed = 1;
nodes = (
"80 9 OFFCURVE",
"80 74 OFFCURVE",
"80 127 CURVE SMOOTH",
"80 363 LINE SMOOTH",
"80 428 OFFCURVE",
"88 487 OFFCURVE",
"184 487 CURVE SMOOTH",
"287 487 OFFCURVE",
"287 428 OFFCURVE",
"287 369 CURVE SMOOTH",
"287 127 LINE SMOOTH",
"287 74 OFFCURVE",
"287 9 OFFCURVE",
"184 9 CURVE SMOOTH"
);
}
);
width = 352;
}
);
note = thorn;
rightMetricsKey = o;
unicode = 00FE;
},
{
glyphname = q;
lastChange = "2022-04-05 22:44:43 +0000";
layers = (
{
layerId = "5E1A2ACF-25BB-4872-A226-5327BC7330DB";
paths = (
{
closed = 1;
nodes = (
"288 -116 LINE",
"288 495 LINE",
"274 495 LINE",
"272 445 LINE",
"265 471 OFFCURVE",
"237 503 OFFCURVE",
"168 503 CURVE SMOOTH",
"55 503 OFFCURVE",
"49 433 OFFCURVE",
"49 372 CURVE SMOOTH",
"49 124 LINE SMOOTH",
"49 62 OFFCURVE",
"55 -7 OFFCURVE",
"168 -7 CURVE SMOOTH",
"235 -7 OFFCURVE",
"264 16 OFFCURVE",
"272 38 CURVE",
"272 -116 LINE"
);
},
{
closed = 1;
nodes = (
"65 9 OFFCURVE",
"65 74 OFFCURVE",
"65 127 CURVE SMOOTH",
"65 369 LINE SMOOTH",
"65 428 OFFCURVE",
"65 487 OFFCURVE",
"168 487 CURVE SMOOTH",
"264 487 OFFCURVE",
"272 428 OFFCURVE",
"272 363 CURVE SMOOTH",
"272 127 LINE SMOOTH",
"272 74 OFFCURVE",
"272 9 OFFCURVE",
"168 9 CURVE SMOOTH"
);
}
);
width = 356;
}
);
leftKerningGroup = o;
leftMetricsKey = o;
note = q;
rightKerningGroup = d;
rightMetricsKey = d;
unicode = 0071;
},
{
glyphname = r;
lastChange = "2022-04-05 22:44:43 +0000";
layers = (
{
anchors = (
{
name = bottom;
position = "{68, 0}";
},
{
name = top;
position = "{131, 495}";
}
);
background = {
paths = (
{
closed = 1;
nodes = (
"74 0 LINE",
"74 425 LINE",
"79 446 OFFCURVE",
"110 492 OFFCURVE",
"182 492 CURVE SMOOTH",
"197 492 OFFCURVE",
"209 491 OFFCURVE",
"220 490 CURVE",
"220 500 LINE",
"209 501 OFFCURVE",
"197 502 OFFCURVE",
"182 502 CURVE SMOOTH",
"139 502 OFFCURVE",
"93 488 OFFCURVE",
"74 449 CURVE",
"72 495 LINE",
"62 495 LINE",
"62 0 LINE"
);
}
);
};
layerId = "5E1A2ACF-25BB-4872-A226-5327BC7330DB";
paths = (
{
closed = 1;
nodes = (
"77 0 LINE",
"77 389 LINE SMOOTH",
"77 442 OFFCURVE",
"113 487 OFFCURVE",
"186 487 CURVE SMOOTH",
"200 487 OFFCURVE",
"212 486 OFFCURVE",
"223 484 CURVE",
"223 500 LINE",
"212 502 OFFCURVE",
"200 503 OFFCURVE",
"186 503 CURVE SMOOTH",
"123 503 OFFCURVE",
"92 476 OFFCURVE",
"77 445 CURVE",
"75 495 LINE",
"61 495 LINE",
"61 0 LINE"
);
}
);
width = 223;
}
);
leftKerningGroup = n;
leftMetricsKey = n;
note = r;
rightKerningGroup = r;
unicode = 0072;
},
{
glyphname = s;
lastChange = "2022-04-05 22:44:43 +0000";
layers = (
{
anchors = (
{
name = bottom;
position = "{159, 0}";
},
{
name = top;
position = "{162, 495}";
}
);
background = {
paths = (
{
closed = 1;
nodes = (
"218 -6 OFFCURVE",
"275 19 OFFCURVE",
"275 96 CURVE SMOOTH",
"275 134 LINE SMOOTH",
"275 217 OFFCURVE",
"209 238 OFFCURVE",
"150 265 CURVE SMOOTH",
"98 287 OFFCURVE",
"53 311 OFFCURVE",
"53 372 CURVE SMOOTH",
"53 404 LINE SMOOTH",
"53 455 OFFCURVE",
"91 492 OFFCURVE",
"157 492 CURVE SMOOTH",
"223 492 OFFCURVE",
"264 465 OFFCURVE",
"264 401 CURVE SMOOTH",
"264 336 LINE",
"276 336 LINE",
"276 401 LINE SMOOTH",
"276 473 OFFCURVE",
"226 502 OFFCURVE",
"157 502 CURVE SMOOTH",
"86 502 OFFCURVE",
"41 460 OFFCURVE",
"41 404 CURVE SMOOTH",
"41 370 LINE SMOOTH",
"41 304 OFFCURVE",
"97 275 OFFCURVE",
"148 254 CURVE SMOOTH",
"203 230 OFFCURVE",
"263 209 OFFCURVE",
"263 134 CURVE SMOOTH",
"263 96 LINE SMOOTH",
"263 28 OFFCURVE",
"217 4 OFFCURVE",
"155 4 CURVE SMOOTH",
"91 4 OFFCURVE",
"49 34 OFFCURVE",
"49 99 CURVE SMOOTH",
"49 166 LINE",
"37 166 LINE",
"37 99 LINE SMOOTH",
"37 26 OFFCURVE",
"86 -6 OFFCURVE",
"155 -6 CURVE SMOOTH"
);
}
);
};
layerId = "5E1A2ACF-25BB-4872-A226-5327BC7330DB";
paths = (
{
closed = 1;
nodes = (
"220 -6 OFFCURVE",
"277 19 OFFCURVE",
"277 96 CURVE SMOOTH",
"277 134 LINE SMOOTH",
"277 217 OFFCURVE",
"216 242 OFFCURVE",
"157 269 CURVE SMOOTH",
"114 289 OFFCURVE",
"54 311 OFFCURVE",
"54 377 CURVE SMOOTH",
"54 395 LINE SMOOTH",
"54 449 OFFCURVE",
"92 486 OFFCURVE",
"159 486 CURVE SMOOTH",
"226 486 OFFCURVE",
"262 459 OFFCURVE",
"262 395 CURVE SMOOTH",
"262 336 LINE",
"278 336 LINE",
"278 401 LINE SMOOTH",
"278 473 OFFCURVE",
"228 502 OFFCURVE",
"159 502 CURVE SMOOTH",
"83 502 OFFCURVE",
"38 460 OFFCURVE",
"38 404 CURVE SMOOTH",
"38 370 LINE SMOOTH",
"38 304 OFFCURVE",
"89 282 OFFCURVE",
"152 254 CURVE SMOOTH",
"207 230 OFFCURVE",
"261 209 OFFCURVE",
"261 134 CURVE SMOOTH",
"261 96 LINE SMOOTH",
"261 34 OFFCURVE",
"220 10 OFFCURVE",
"157 10 CURVE SMOOTH",
"97 10 OFFCURVE",
"55 40 OFFCURVE",
"55 99 CURVE SMOOTH",
"55 166 LINE",
"39 166 LINE",
"39 99 LINE SMOOTH",
"39 26 OFFCURVE",
"88 -6 OFFCURVE",
"157 -6 CURVE SMOOTH"
);
}
);
width = 314;
}
);
leftKerningGroup = s;
note = s;
rightKerningGroup = s;
unicode = 0073;
},
{
glyphname = germandbls;
lastChange = "2022-04-05 22:44:43 +0000";
layers = (
{
layerId = "5E1A2ACF-25BB-4872-A226-5327BC7330DB";
paths = (
{
closed = 1;
nodes = (
"55 -146 OFFCURVE",
"74 -115 OFFCURVE",
"74 -60 CURVE SMOOTH",
"74 528 LINE SMOOTH",
"74 575 OFFCURVE",
"83 617 OFFCURVE",
"178 617 CURVE SMOOTH",
"250 617 OFFCURVE",
"283 592 OFFCURVE",
"283 531 CURVE SMOOTH",
"283 433 LINE SMOOTH",
"283 385 OFFCURVE",
"251 349 OFFCURVE",
"192 349 CURVE SMOOTH",
"138 349 LINE",
"138 333 LINE",
"181 333 LINE SMOOTH",
"241 333 OFFCURVE",
"295 309 OFFCURVE",
"295 239 CURVE SMOOTH",
"295 123 LINE SMOOTH",
"295 31 OFFCURVE",
"254 16 OFFCURVE",
"195 16 CURVE SMOOTH",
"118 16 LINE",
"118 0 LINE",
"195 0 LINE SMOOTH",
"260 0 OFFCURVE",
"311 15 OFFCURVE",
"311 119 CURVE SMOOTH",
"311 244 LINE SMOOTH",
"311 300 OFFCURVE",
"270 335 OFFCURVE",
"224 341 CURVE",
"224 342 LINE",
"267 346 OFFCURVE",
"300 385 OFFCURVE",
"300 429 CURVE SMOOTH",
"300 538 LINE SMOOTH",
"300 610 OFFCURVE",
"253 633 OFFCURVE",
"178 633 CURVE SMOOTH",
"81 633 OFFCURVE",
"58 599 OFFCURVE",
"58 527 CURVE SMOOTH",
"58 457 LINE",
"27 457 LINE",
"27 441 LINE",
"58 441 LINE",
"58 -55 LINE SMOOTH",
"58 -104 OFFCURVE",
"48 -131 OFFCURVE",
"-4 -131 CURVE SMOOTH",
"-16 -131 OFFCURVE",
"-31 -131 OFFCURVE",
"-44 -130 CURVE SMOOTH",
"-66 -128 LINE",
"-66 -143 LINE",
"-55 -144 OFFCURVE",
"-22 -146 OFFCURVE",
"2 -146 CURVE SMOOTH"
);
}
);
width = 347;
}
);
note = germandbls;
unicode = 00DF;
},
{
glyphname = longs;
lastChange = "2022-04-05 22:44:43 +0000";
layers = (
{
layerId = "5E1A2ACF-25BB-4872-A226-5327BC7330DB";
paths = (
{
closed = 1;
nodes = (
"65 -147 OFFCURVE",
"88 -114 OFFCURVE",
"88 -58 CURVE SMOOTH",
"88 552 LINE SMOOTH",
"88 584 OFFCURVE",
"96 621 OFFCURVE",
"149 621 CURVE SMOOTH",
"156 621 OFFCURVE",
"190 620 OFFCURVE",
"203 617 CURVE",
"203 632 LINE",
"196 633 OFFCURVE",
"174 636 OFFCURVE",
"144 636 CURVE SMOOTH",
"92 636 OFFCURVE",
"71 603 OFFCURVE",
"71 547 CURVE SMOOTH",
"71 441 LINE",
"40 441 LINE",
"40 425 LINE",
"71 425 LINE",
"72 -63 LINE SMOOTH",
"72 -98 OFFCURVE",
"53 -132 OFFCURVE",
"16 -132 CURVE SMOOTH",
"-4 -132 OFFCURVE",
"-33 -130 OFFCURVE",
"-44 -128 CURVE",
"-44 -143 LINE",
"-30 -145 OFFCURVE",
"-10 -147 OFFCURVE",
"17 -147 CURVE SMOOTH"
);
}
);
width = 187;
}
);
note = longs;
rightMetricsKey = f;
unicode = 017F;
},
{
glyphname = t;
lastChange = "2022-04-05 22:57:56 +0000";
layers = (
{
anchors = (
{
name = bottom;
position = "{132, 0}";
},
{
name = center;
position = "{105, 378}";
},
{
name = top;
position = "{105, 495}";
},
{
name = topright;
position = "{136, 528}";
}
);
layerId = "5E1A2ACF-25BB-4872-A226-5327BC7330DB";
paths = (
{
closed = 1;
nodes = (
"160 0 OFFCURVE",
"185 3 OFFCURVE",
"194 4 CURVE",
"194 20 LINE",
"170 17 OFFCURVE",
"153 15 OFFCURVE",
"134 15 CURVE SMOOTH",
"89 15 OFFCURVE",
"78 51 OFFCURVE",
"78 88 CURVE SMOOTH",
"78 479 LINE",
"194 479 LINE",
"194 495 LINE",
"78 495 LINE",
"78 592 LINE",
"65 592 LINE",
"62 495 LINE",
"24 493 LINE",
"24 479 LINE",
"62 479 LINE",
"62 93 LINE SMOOTH",
"62 31 OFFCURVE",
"83 0 OFFCURVE",
"135 0 CURVE SMOOTH"
);
}
);
width = 204;
}
);
leftKerningGroup = t;
note = t;
rightKerningGroup = t;
unicode = 0074;
},
{
glyphname = u;
lastChange = "2022-04-05 22:44:43 +0000";
layers = (
{
anchors = (
{
name = bottom;
position = "{183, 0}";
},
{
name = ogonek;
position = "{303, 0}";
},
{
name = top;
position = "{183, 495}";
},
{
name = topright;
position = "{271, 495}";
}
);
background = {
paths = (
{
closed = 1;
nodes = (
"245 -9 OFFCURVE",
"276 18 OFFCURVE",
"291 50 CURVE",
"294 0 LINE",
"303 0 LINE",
"303 495 LINE",
"291 495 LINE",
"291 78 LINE",
"286 43 OFFCURVE",
"255 3 OFFCURVE",
"182 3 CURVE SMOOTH",
"78 3 OFFCURVE",
"75 67 OFFCURVE",
"75 126 CURVE SMOOTH",
"75 495 LINE",
"63 495 LINE",
"63 123 LINE SMOOTH",
"63 61 OFFCURVE",
"69 -9 OFFCURVE",
"182 -9 CURVE SMOOTH"
);
}
);
};
layerId = "5E1A2ACF-25BB-4872-A226-5327BC7330DB";
paths = (
{
closed = 1;
nodes = (
"243 -8 OFFCURVE",
"274 19 OFFCURVE",
"289 50 CURVE",
"291 0 LINE",
"305 0 LINE",
"305 495 LINE",
"289 495 LINE",
"289 106 LINE",
"284 49 OFFCURVE",
"253 8 OFFCURVE",
"180 8 CURVE SMOOTH",
"80 8 OFFCURVE",
"77 73 OFFCURVE",
"77 132 CURVE SMOOTH",
"77 495 LINE",
"61 495 LINE",
"61 123 LINE SMOOTH",
"61 62 OFFCURVE",
"67 -8 OFFCURVE",
"180 -8 CURVE SMOOTH"
);
}
);
width = 373;
}
);
leftKerningGroup = u;
leftMetricsKey = n;
note = u;
rightKerningGroup = u;
rightMetricsKey = d;
unicode = 0075;
},
{
glyphname = v;
lastChange = "2022-04-05 22:44:43 +0000";
layers = (
{
layerId = "5E1A2ACF-25BB-4872-A226-5327BC7330DB";
paths = (
{
closed = 1;
nodes = (
"156 0 LINE",
"277 495 LINE",
"261 495 LINE",
"147 27 LINE",
"34 495 LINE",
"18 495 LINE",
"138 0 LINE"
);
}
);
width = 292;
}
);
leftKerningGroup = v;
note = v;
rightKerningGroup = v;
unicode = 0076;
},
{
glyphname = w;
lastChange = "2022-04-05 22:44:43 +0000";
layers = (
{
anchors = (
{
name = bottom;
position = "{269, 0}";
},
{
name = top;
position = "{269, 495}";
}
);
layerId = "5E1A2ACF-25BB-4872-A226-5327BC7330DB";
paths = (
{
closed = 1;
nodes = (
"156 0 LINE",
"269 462 LINE",
"381 0 LINE",
"399 0 LINE",
"520 495 LINE",
"504 495 LINE",
"390 27 LINE",
"277 495 LINE",
"261 495 LINE",
"147 27 LINE",
"34 495 LINE",
"18 495 LINE",
"138 0 LINE"
);
}
);
width = 535;
}
);
leftKerningGroup = v;
leftMetricsKey = v;
note = w;
rightKerningGroup = v;
rightMetricsKey = v;
unicode = 0077;
},
{
glyphname = x;
lastChange = "2022-04-05 22:44:43 +0000";
layers = (
{
layerId = "5E1A2ACF-25BB-4872-A226-5327BC7330DB";
paths = (
{
closed = 1;
nodes = (
"31 0 LINE",
"129 255 LINE",
"157 255 LINE",
"255 0 LINE",
"274 0 LINE",
"170 264 LINE",
"264 495 LINE",
"247 495 LINE",
"156 271 LINE",
"130 271 LINE",
"46 495 LINE",
"29 495 LINE",
"115 263 LINE",
"13 0 LINE"
);
}
);
width = 287;
}
);
note = x;
unicode = 0078;
},
{
glyphname = y;
lastChange = "2022-04-04 15:05:26 +0000";
layers = (
{
anchors = (
{
name = bottom;
position = "{205, 0}";
},
{
name = top;
position = "{150, 495}";
}
);
layerId = "5E1A2ACF-25BB-4872-A226-5327BC7330DB";
paths = (
{
closed = 1;
nodes = (
"115 -115 OFFCURVE",
"143 -70 OFFCURVE",
"160 -1 CURVE SMOOTH",
"281 495 LINE",
"265 495 LINE",
"151 27 LINE",
"38 495 LINE",
"22 495 LINE",
"143 -4 LINE",
"130 -82 OFFCURVE",
"86 -101 OFFCURVE",
"55 -101 CURVE SMOOTH",
"32 -101 OFFCURVE",
"9 -96 OFFCURVE",
"6 -95 CURVE",
"6 -109 LINE",
"9 -110 OFFCURVE",
"35 -115 OFFCURVE",
"55 -115 CURVE SMOOTH"
);
}
);
width = 296;
}
);
leftKerningGroup = y;
note = y;
rightKerningGroup = v;
rightMetricsKey = v;
unicode = 0079;
},
{
glyphname = z;
lastChange = "2022-04-05 22:44:43 +0000";
layers = (
{
anchors = (
{
name = bottom;
position = "{115, 0}";
},
{
name = center;
position = "{115, 248}";
},
{
name = top;
position = "{120, 495}";
}
);
layerId = "5E1A2ACF-25BB-4872-A226-5327BC7330DB";
paths = (
{
closed = 1;
nodes = (
"221 0 LINE",
"221 16 LINE",
"37 16 LINE",
"221 483 LINE",
"221 495 LINE",
"28 495 LINE",
"28 479 LINE",
"200 479 LINE",
"16 7 LINE",
"16 0 LINE"
);
}
);
width = 239;
}
);
leftKerningGroup = z;
note = z;
rightKerningGroup = z;
unicode = 007A;
},
{
color = 0;
glyphname = f_f;
lastChange = "2022-04-05 22:58:06 +0000";
layers = (
{
anchors = (
{
name = caret_1;
position = "{196, 0}";
}
);
background = {
paths = (
{
closed = 1;
nodes = (
"318 621 OFFCURVE",
"335 619 OFFCURVE",
"359 616 CURVE",
"359 632 LINE",
"350 633 OFFCURVE",
"325 636 OFFCURVE",
"300 636 CURVE SMOOTH",
"248 636 OFFCURVE",
"227 605 OFFCURVE",
"227 543 CURVE SMOOTH",
"227 474 LINE",
"75 474 LINE",
"75 548 LINE SMOOTH",
"75 585 OFFCURVE",
"86 621 OFFCURVE",
"131 621 CURVE SMOOTH",
"157 621 OFFCURVE",
"188 620 OFFCURVE",
"230 615 CURVE",
"240 630 LINE",
"210 634 OFFCURVE",
"173 636 OFFCURVE",
"136 636 CURVE SMOOTH",
"80 636 OFFCURVE",
"59 605 OFFCURVE",
"59 543 CURVE SMOOTH",
"59 474 LINE",
"28 474 LINE",
"28 458 LINE",
"59 458 LINE",
"59 0 LINE",
"75 0 LINE",
"75 458 LINE",
"227 458 LINE",
"227 0 LINE",
"243 0 LINE",
"243 458 LINE",
"359 458 LINE",
"359 474 LINE",
"243 474 LINE",
"243 548 LINE SMOOTH",
"243 585 OFFCURVE",
"254 621 OFFCURVE",
"299 621 CURVE SMOOTH"
);
}
);
};
layerId = "5E1A2ACF-25BB-4872-A226-5327BC7330DB";
paths = (
{
closed = 1;
nodes = (
"75 0 LINE",
"75 458 LINE",
"227 458 LINE",
"227 0 LINE",
"243 0 LINE",
"243 458 LINE",
"359 458 LINE",
"359 474 LINE",
"243 474 LINE",
"243 548 LINE SMOOTH",
"243 585 OFFCURVE",
"254 621 OFFCURVE",
"299 621 CURVE SMOOTH",
"318 621 OFFCURVE",
"335 619 OFFCURVE",
"359 616 CURVE",
"359 632 LINE",
"350 633 OFFCURVE",
"325 636 OFFCURVE",
"300 636 CURVE SMOOTH",
"248 636 OFFCURVE",
"227 605 OFFCURVE",
"227 543 CURVE SMOOTH",
"227 474 LINE",
"75 474 LINE",
"75 548 LINE SMOOTH",
"75 585 OFFCURVE",
"86 621 OFFCURVE",
"131 621 CURVE SMOOTH",
"157 621 OFFCURVE",
"188 620 OFFCURVE",
"230 615 CURVE",
"240 630 LINE",
"210 634 OFFCURVE",
"173 636 OFFCURVE",
"136 636 CURVE SMOOTH",
"80 636 OFFCURVE",
"59 605 OFFCURVE",
"59 543 CURVE SMOOTH",
"59 474 LINE",
"28 474 LINE",
"28 458 LINE",
"59 458 LINE",
"59 0 LINE"
);
}
);
width = 343;
}
);
leftMetricsKey = f;
note = f_f;
rightMetricsKey = f;
},
{
color = 0;
glyphname = f_f_i;
lastChange = "2022-04-05 22:58:06 +0000";
layers = (
{
anchors = (
{
name = caret_1;
position = "{166, 0}";
},
{
name = caret_2;
position = "{344, 0}";
}
);
layerId = "5E1A2ACF-25BB-4872-A226-5327BC7330DB";
paths = (
{
closed = 1;
nodes = (
"243 0 LINE",
"243 458 LINE",
"413 458 LINE",
"413 474 LINE",
"243 474 LINE",
"243 548 LINE SMOOTH",
"243 585 OFFCURVE",
"254 621 OFFCURVE",
"299 621 CURVE SMOOTH",
"332 621 OFFCURVE",
"374 620 OFFCURVE",
"424 609 CURVE",
"424 625 LINE",
"400 631 OFFCURVE",
"353 636 OFFCURVE",
"304 636 CURVE SMOOTH",
"248 636 OFFCURVE",
"227 605 OFFCURVE",
"227 543 CURVE SMOOTH",
"227 474 LINE",
"196 474 LINE",
"196 458 LINE",
"227 458 LINE",
"227 0 LINE"
);
},
{
closed = 1;
nodes = (
"75 0 LINE",
"75 458 LINE",
"226 458 LINE",
"226 474 LINE",
"75 474 LINE",
"75 548 LINE SMOOTH",
"75 585 OFFCURVE",
"86 621 OFFCURVE",
"131 621 CURVE SMOOTH",
"157 621 OFFCURVE",
"188 620 OFFCURVE",
"230 615 CURVE",
"240 630 LINE",
"210 634 OFFCURVE",
"173 636 OFFCURVE",
"136 636 CURVE SMOOTH",
"80 636 OFFCURVE",
"59 605 OFFCURVE",
"59 543 CURVE SMOOTH",
"59 474 LINE",
"28 474 LINE",
"28 458 LINE",
"59 458 LINE",
"59 0 LINE"
);
},
{
closed = 1;
nodes = (
"419 0 LINE",
"419 474 LINE",
"403 474 LINE",
"403 0 LINE"
);
},
{
closed = 1;
nodes = (
"226 474 LINE",
"284 474 LINE",
"284 458 LINE",
"226 458 LINE"
);
}
);
width = 479;
}
);
leftMetricsKey = f;
note = f_f_i;
rightMetricsKey = i;
},
{
color = 0;
glyphname = f_f_l;
lastChange = "2022-04-05 22:58:06 +0000";
layers = (
{
anchors = (
{
name = caret_1;
position = "{184, 0}";
},
{
name = caret_2;
position = "{372, 0}";
}
);
background = {
paths = (
{
closed = 1;
nodes = (
"284 458 LINE",
"284 474 LINE",
"226 474 LINE",
"226 458 LINE"
);
},
{
closed = 1;
nodes = (
"209 634 OFFCURVE",
"172 636 OFFCURVE",
"136 636 CURVE SMOOTH",
"80 636 OFFCURVE",
"59 605 OFFCURVE",
"59 543 CURVE",
"59 474 LINE",
"28 474 LINE",
"28 458 LINE",
"59 458 LINE",
"59 0 LINE",
"75 0 LINE",
"75 458 LINE",
"226 458 LINE",
"226 474 LINE",
"75 474 LINE",
"75 548 LINE SMOOTH",
"75 585 OFFCURVE",
"86 621 OFFCURVE",
"131 621 CURVE SMOOTH",
"157 621 OFFCURVE",
"188 620 OFFCURVE",
"229 615 CURVE",
"238 630 LINE"
);
},
{
closed = 1;
nodes = (
"374 634 OFFCURVE",
"338 636 OFFCURVE",
"303 636 CURVE SMOOTH",
"247 636 OFFCURVE",
"226 605 OFFCURVE",
"226 543 CURVE",
"226 474 LINE",
"195 474 LINE",
"195 458 LINE",
"226 458 LINE",
"226 0 LINE",
"242 0 LINE",
"242 458 LINE",
"371 458 LINE",
"371 474 LINE",
"242 474 LINE",
"242 548 LINE SMOOTH",
"242 585 OFFCURVE",
"253 621 OFFCURVE",
"298 621 CURVE SMOOTH",
"324 621 OFFCURVE",
"355 622 OFFCURVE",
"417 613 CURVE",
"418 627 LINE"
);
},
{
closed = 1;
nodes = (
"418 627 LINE",
"402 617 LINE",
"402 0 LINE",
"418 0 LINE"
);
}
);
};
layerId = "5E1A2ACF-25BB-4872-A226-5327BC7330DB";
paths = (
{
closed = 1;
nodes = (
"242 0 LINE",
"242 458 LINE",
"338 458 LINE",
"338 474 LINE",
"242 474 LINE",
"242 548 LINE SMOOTH",
"242 585 OFFCURVE",
"253 621 OFFCURVE",
"298 621 CURVE SMOOTH",
"324 621 OFFCURVE",
"355 622 OFFCURVE",
"417 613 CURVE",
"418 627 LINE",
"374 634 OFFCURVE",
"338 636 OFFCURVE",
"303 636 CURVE SMOOTH",
"247 636 OFFCURVE",
"226 605 OFFCURVE",
"226 543 CURVE SMOOTH",
"226 474 LINE",
"195 474 LINE",
"195 458 LINE",
"226 458 LINE",
"226 0 LINE"
);
},
{
closed = 1;
nodes = (
"75 0 LINE",
"75 458 LINE",
"226 458 LINE",
"226 474 LINE",
"75 474 LINE",
"75 548 LINE SMOOTH",
"75 585 OFFCURVE",
"86 621 OFFCURVE",
"131 621 CURVE SMOOTH",
"157 621 OFFCURVE",
"188 620 OFFCURVE",
"229 615 CURVE",
"238 630 LINE",
"209 634 OFFCURVE",
"172 636 OFFCURVE",
"136 636 CURVE SMOOTH",
"80 636 OFFCURVE",
"59 605 OFFCURVE",
"59 543 CURVE SMOOTH",
"59 474 LINE",
"28 474 LINE",
"28 458 LINE",
"59 458 LINE",
"59 0 LINE"
);
},
{
closed = 1;
nodes = (
"226 474 LINE",
"284 474 LINE",
"284 458 LINE",
"226 458 LINE"
);
},
{
closed = 1;
nodes = (
"418 0 LINE",
"418 627 LINE",
"402 617 LINE",
"402 0 LINE"
);
}
);
width = 486;
}
);
leftMetricsKey = f;
note = f_f_l;
rightMetricsKey = l;
},
{
color = 0;
glyphname = fi;
lastChange = "2022-04-05 22:57:56 +0000";
layers = (
{
anchors = (
{
name = caret_1;
position = "{207, 0}";
}
);
layerId = "5E1A2ACF-25BB-4872-A226-5327BC7330DB";
paths = (
{
closed = 1;
nodes = (
"75 0 LINE",
"75 458 LINE",
"245 458 LINE",
"245 474 LINE",
"75 474 LINE",
"75 548 LINE SMOOTH",
"75 585 OFFCURVE",
"86 621 OFFCURVE",
"131 621 CURVE SMOOTH",
"164 621 OFFCURVE",
"206 620 OFFCURVE",
"256 609 CURVE",
"256 625 LINE",
"232 631 OFFCURVE",
"185 636 OFFCURVE",
"136 636 CURVE SMOOTH",
"80 636 OFFCURVE",
"59 605 OFFCURVE",
"59 543 CURVE SMOOTH",
"59 474 LINE",
"28 474 LINE",
"28 458 LINE",
"59 458 LINE",
"59 0 LINE"
);
},
{
closed = 1;
nodes = (
"251 0 LINE",
"251 474 LINE",
"235 474 LINE",
"235 0 LINE"
);
}
);
width = 311;
}
);
leftMetricsKey = f;
note = fi;
rightMetricsKey = i;
unicode = FB01;
},
{
color = 0;
glyphname = fl;
lastChange = "2022-04-05 22:57:56 +0000";
layers = (
{
anchors = (
{
name = caret_1;
position = "{204, 0}";
}
);
layerId = "5E1A2ACF-25BB-4872-A226-5327BC7330DB";
paths = (
{
closed = 1;
nodes = (
"75 0 LINE",
"75 458 LINE",
"190 458 LINE",
"190 474 LINE",
"75 474 LINE",
"75 548 LINE SMOOTH",
"75 585 OFFCURVE",
"86 621 OFFCURVE",
"131 621 CURVE SMOOTH",
"157 621 OFFCURVE",
"188 622 OFFCURVE",
"248 613 CURVE",
"251 627 LINE",
"207 634 OFFCURVE",
"171 636 OFFCURVE",
"136 636 CURVE SMOOTH",
"80 636 OFFCURVE",
"59 605 OFFCURVE",
"59 543 CURVE SMOOTH",
"59 474 LINE",
"28 474 LINE",
"28 458 LINE",
"59 458 LINE",
"59 0 LINE"
);
},
{
closed = 1;
nodes = (
"251 0 LINE",
"251 627 LINE",
"235 617 LINE",
"235 0 LINE"
);
}
);
width = 319;
}
);
leftMetricsKey = f;
note = fl;
rightMetricsKey = l;
unicode = FB02;
},
{
color = 0;
glyphname = longs_t;
lastChange = "2022-04-05 22:58:06 +0000";
layers = (
{
anchors = (
{
name = caret_1;
position = "{98, 0}";
}
);
layerId = "5E1A2ACF-25BB-4872-A226-5327BC7330DB";
paths = (
{
closed = 1;
nodes = (
"54 -144 OFFCURVE",
"78 -114 OFFCURVE",
"78 -61 CURVE SMOOTH",
"78 548 LINE SMOOTH",
"78 585 OFFCURVE",
"89 621 OFFCURVE",
"134 621 CURVE SMOOTH",
"167 621 OFFCURVE",
"209 622 OFFCURVE",
"254 611 CURVE",
"257 623 LINE",
"238 632 OFFCURVE",
"188 636 OFFCURVE",
"139 636 CURVE SMOOTH",
"83 636 OFFCURVE",
"62 605 OFFCURVE",
"62 543 CURVE SMOOTH",
"62 442 LINE",
"31 442 LINE",
"31 426 LINE",
"62 426 LINE",
"62 -60 LINE SMOOTH",
"62 -96 OFFCURVE",
"49 -129 OFFCURVE",
"6 -129 CURVE SMOOTH",
"-13 -129 OFFCURVE",
"-30 -127 OFFCURVE",
"-44 -125 CURVE",
"-44 -141 LINE",
"-45 -141 OFFCURVE",
"-20 -144 OFFCURVE",
"5 -144 CURVE SMOOTH"
);
},
{
closed = 1;
nodes = (
"339 0 OFFCURVE",
"364 3 OFFCURVE",
"373 4 CURVE",
"373 20 LINE",
"349 17 OFFCURVE",
"332 15 OFFCURVE",
"313 15 CURVE SMOOTH",
"268 15 OFFCURVE",
"257 51 OFFCURVE",
"257 88 CURVE SMOOTH",
"257 479 LINE",
"373 479 LINE",
"373 495 LINE",
"257 495 LINE",
"257 623 LINE",
"244 623 LINE",
"241 495 LINE",
"203 493 LINE",
"203 479 LINE",
"241 479 LINE",
"241 93 LINE SMOOTH",
"241 31 OFFCURVE",
"262 0 OFFCURVE",
"314 0 CURVE SMOOTH"
);
}
);
width = 383;
}
);
leftMetricsKey = longs;
note = longs_t;
rightMetricsKey = t;
},
{
color = 0;
glyphname = s_t;
lastChange = "2022-04-05 22:58:06 +0000";
layers = (
{
anchors = (
{
name = caret_1;
position = "{338, 0}";
}
);
background = {
paths = (
{
closed = 1;
nodes = (
"278 401 LINE SMOOTH",
"278 473 OFFCURVE",
"228 502 OFFCURVE",
"159 502 CURVE SMOOTH",
"83 502 OFFCURVE",
"38 460 OFFCURVE",
"38 404 CURVE SMOOTH",
"38 370 LINE SMOOTH",
"38 304 OFFCURVE",
"89 282 OFFCURVE",
"152 254 CURVE SMOOTH",
"207 230 OFFCURVE",
"261 209 OFFCURVE",
"261 134 CURVE SMOOTH",
"261 96 LINE SMOOTH",
"261 34 OFFCURVE",
"220 10 OFFCURVE",
"157 10 CURVE SMOOTH",
"97 10 OFFCURVE",
"55 40 OFFCURVE",
"55 99 CURVE SMOOTH",
"55 166 LINE",
"39 166 LINE",
"39 99 LINE SMOOTH",
"39 26 OFFCURVE",
"88 -6 OFFCURVE",
"157 -6 CURVE",
"220 -6 OFFCURVE",
"277 19 OFFCURVE",
"277 96 CURVE SMOOTH",
"277 134 LINE SMOOTH",
"277 217 OFFCURVE",
"216 242 OFFCURVE",
"157 269 CURVE SMOOTH",
"114 289 OFFCURVE",
"54 311 OFFCURVE",
"54 377 CURVE SMOOTH",
"54 395 LINE SMOOTH",
"54 449 OFFCURVE",
"92 486 OFFCURVE",
"159 486 CURVE SMOOTH",
"226 486 OFFCURVE",
"262 459 OFFCURVE",
"262 395 CURVE SMOOTH",
"262 336 LINE",
"278 336 LINE"
);
},
{
closed = 1;
nodes = (
"376 31 OFFCURVE",
"397 0 OFFCURVE",
"449 0 CURVE SMOOTH",
"474 0 OFFCURVE",
"499 3 OFFCURVE",
"508 4 CURVE",
"508 20 LINE",
"484 17 OFFCURVE",
"467 15 OFFCURVE",
"448 15 CURVE SMOOTH",
"403 15 OFFCURVE",
"392 51 OFFCURVE",
"392 88 CURVE SMOOTH",
"392 479 LINE",
"508 479 LINE",
"508 495 LINE",
"392 495 LINE",
"392 625 LINE",
"379 625 LINE",
"376 495 LINE",
"338 493 LINE",
"338 479 LINE",
"376 479 LINE",
"376 93 LINE"
);
},
{
closed = 1;
nodes = (
"278 548 LINE",
"278 585 OFFCURVE",
"290 618 OFFCURVE",
"343 618 CURVE SMOOTH",
"355 618 OFFCURVE",
"372 615 OFFCURVE",
"379 613 CURVE",
"392 625 LINE",
"375 630 OFFCURVE",
"359 633 OFFCURVE",
"341 633 CURVE SMOOTH",
"284 633 OFFCURVE",
"262 605 OFFCURVE",
"262 543 CURVE SMOOTH",
"262 388 LINE",
"278 387 LINE"
);
}
);
};
layerId = "5E1A2ACF-25BB-4872-A226-5327BC7330DB";
paths = (
{
closed = 1;
nodes = (
"220 -6 OFFCURVE",
"277 19 OFFCURVE",
"277 96 CURVE SMOOTH",
"277 134 LINE SMOOTH",
"277 217 OFFCURVE",
"216 242 OFFCURVE",
"157 269 CURVE SMOOTH",
"114 289 OFFCURVE",
"54 311 OFFCURVE",
"54 377 CURVE SMOOTH",
"54 395 LINE SMOOTH",
"54 449 OFFCURVE",
"92 486 OFFCURVE",
"159 486 CURVE SMOOTH",
"226 486 OFFCURVE",
"262 459 OFFCURVE",
"262 395 CURVE SMOOTH",
"262 336 LINE",
"278 336 LINE",
"278 401 LINE SMOOTH",
"278 473 OFFCURVE",
"228 502 OFFCURVE",
"159 502 CURVE SMOOTH",
"83 502 OFFCURVE",
"38 460 OFFCURVE",
"38 404 CURVE SMOOTH",
"38 370 LINE SMOOTH",
"38 304 OFFCURVE",
"89 282 OFFCURVE",
"152 254 CURVE SMOOTH",
"207 230 OFFCURVE",
"261 209 OFFCURVE",
"261 134 CURVE SMOOTH",
"261 96 LINE SMOOTH",
"261 34 OFFCURVE",
"220 10 OFFCURVE",
"157 10 CURVE SMOOTH",
"97 10 OFFCURVE",
"55 40 OFFCURVE",
"55 99 CURVE SMOOTH",
"55 166 LINE",
"39 166 LINE",
"39 99 LINE SMOOTH",
"39 26 OFFCURVE",
"88 -6 OFFCURVE",
"157 -6 CURVE SMOOTH"
);
},
{
closed = 1;
nodes = (
"474 0 OFFCURVE",
"499 3 OFFCURVE",
"508 4 CURVE",
"508 20 LINE",
"484 17 OFFCURVE",
"467 15 OFFCURVE",
"448 15 CURVE SMOOTH",
"403 15 OFFCURVE",
"392 51 OFFCURVE",
"392 88 CURVE SMOOTH",
"392 479 LINE",
"508 479 LINE",
"508 495 LINE",
"392 495 LINE",
"392 625 LINE",
"379 625 LINE",
"376 495 LINE",
"338 493 LINE",
"338 479 LINE",
"376 479 LINE",
"376 93 LINE SMOOTH",
"376 31 OFFCURVE",
"397 0 OFFCURVE",
"449 0 CURVE SMOOTH"
);
},
{
closed = 1;
nodes = (
"278 548 LINE SMOOTH",
"278 585 OFFCURVE",
"290 618 OFFCURVE",
"343 618 CURVE SMOOTH",
"355 618 OFFCURVE",
"372 615 OFFCURVE",
"379 613 CURVE",
"392 625 LINE",
"375 630 OFFCURVE",
"359 633 OFFCURVE",
"341 633 CURVE SMOOTH",
"284 633 OFFCURVE",
"262 605 OFFCURVE",
"262 543 CURVE SMOOTH",
"262 388 LINE",
"278 387 LINE"
);
}
);
width = 518;
}
);
leftMetricsKey = s;
note = s_t;
rightMetricsKey = t;
},
{
color = 0;
glyphname = t_i;
lastChange = "2022-04-05 22:58:06 +0000";
layers = (
{
anchors = (
{
name = bottom;
position = "{271, 0}";
},
{
name = caret_1;
position = "{218, 0}";
},
{
name = center;
position = "{105, 378}";
},
{
name = ogonek;
position = "{279, 0}";
},
{
name = top;
position = "{274, 570}";
},
{
name = topright;
position = "{136, 528}";
}
);
layerId = "5E1A2ACF-25BB-4872-A226-5327BC7330DB";
paths = (
{
closed = 1;
nodes = (
"160 0 OFFCURVE",
"185 3 OFFCURVE",
"194 4 CURVE",
"194 20 LINE",
"170 17 OFFCURVE",
"153 15 OFFCURVE",
"134 15 CURVE SMOOTH",
"89 15 OFFCURVE",
"78 51 OFFCURVE",
"78 88 CURVE SMOOTH",
"78 479 LINE",
"272 479 LINE",
"272 495 LINE",
"78 495 LINE",
"78 592 LINE",
"65 592 LINE",
"62 495 LINE",
"24 493 LINE",
"24 479 LINE",
"62 479 LINE",
"62 93 LINE SMOOTH",
"62 31 OFFCURVE",
"83 0 OFFCURVE",
"135 0 CURVE SMOOTH"
);
},
{
closed = 1;
nodes = (
"282 0 LINE",
"282 495 LINE",
"266 495 LINE",
"266 0 LINE"
);
},
{
closed = 1;
nodes = (
"284 566 OFFCURVE",
"288 570 OFFCURVE",
"288 580 CURVE SMOOTH",
"288 590 OFFCURVE",
"284 594 OFFCURVE",
"274 594 CURVE SMOOTH",
"264 594 OFFCURVE",
"260 590 OFFCURVE",
"260 580 CURVE SMOOTH",
"260 570 OFFCURVE",
"264 566 OFFCURVE",
"274 566 CURVE SMOOTH"
);
}
);
width = 343;
}
);
leftMetricsKey = t;
note = t_i;
rightKerningGroup = lslash;
rightMetricsKey = i;
},
{
color = 0;
glyphname = t_u;
lastChange = "2022-04-05 22:58:06 +0000";
layers = (
{
anchors = (
{
name = caret_1;
position = "{212, 0}";
}
);
layerId = "5E1A2ACF-25BB-4872-A226-5327BC7330DB";
paths = (
{
closed = 1;
nodes = (
"160 0 OFFCURVE",
"185 3 OFFCURVE",
"194 4 CURVE",
"194 20 LINE",
"170 17 OFFCURVE",
"153 15 OFFCURVE",
"134 15 CURVE SMOOTH",
"89 15 OFFCURVE",
"78 51 OFFCURVE",
"78 88 CURVE SMOOTH",
"78 479 LINE",
"275 479 LINE",
"275 495 LINE",
"78 495 LINE",
"78 592 LINE",
"65 592 LINE",
"62 495 LINE",
"24 493 LINE",
"24 479 LINE",
"62 479 LINE",
"62 93 LINE SMOOTH",
"62 31 OFFCURVE",
"83 0 OFFCURVE",
"135 0 CURVE SMOOTH"
);
},
{
closed = 1;
nodes = (
"441 -8 OFFCURVE",
"472 19 OFFCURVE",
"487 50 CURVE",
"489 0 LINE",
"503 0 LINE",
"503 495 LINE",
"487 495 LINE",
"487 106 LINE",
"482 49 OFFCURVE",
"451 8 OFFCURVE",
"378 8 CURVE SMOOTH",
"278 8 OFFCURVE",
"275 73 OFFCURVE",
"275 132 CURVE SMOOTH",
"275 495 LINE",
"259 495 LINE",
"259 123 LINE SMOOTH",
"259 62 OFFCURVE",
"265 -8 OFFCURVE",
"378 -8 CURVE SMOOTH"
);
}
);
width = 571;
}
);
leftMetricsKey = t;
note = t_u;
rightKerningGroup = lslash;
rightMetricsKey = u;
},
{
color = 6;
glyphname = ordfeminine;
lastChange = "2022-04-05 22:44:43 +0000";
layers = (
{
layerId = "5E1A2ACF-25BB-4872-A226-5327BC7330DB";
paths = (
{
closed = 1;
nodes = (
"150 288 OFFCURVE",
"177 305 OFFCURVE",
"188 334 CURVE",
"182 335 LINE",
"183 292 LINE",
"196 292 LINE",
"196 536 LINE SMOOTH",
"196 568 OFFCURVE",
"194 599 OFFCURVE",
"126 599 CURVE SMOOTH",
"75 599 OFFCURVE",
"54 576 OFFCURVE",
"54 521 CURVE SMOOTH",
"54 492 LINE",
"69 492 LINE",
"69 520 LINE SMOOTH",
"69 557 OFFCURVE",
"75 584 OFFCURVE",
"126 584 CURVE SMOOTH",
"154 584 OFFCURVE",
"181 581 OFFCURVE",
"181 543 CURVE SMOOTH",
"181 535 LINE SMOOTH",
"181 508 OFFCURVE",
"169 496 OFFCURVE",
"120 469 CURVE SMOOTH",
"105 461 OFFCURVE",
"47 436 OFFCURVE",
"47 383 CURVE SMOOTH",
"47 362 LINE SMOOTH",
"47 290 OFFCURVE",
"86 288 OFFCURVE",
"114 288 CURVE SMOOTH"
);
},
{
closed = 1;
nodes = (
"92 303 OFFCURVE",
"63 301 OFFCURVE",
"63 362 CURVE SMOOTH",
"63 378 LINE SMOOTH",
"63 420 OFFCURVE",
"87 433 OFFCURVE",
"133 458 CURVE SMOOTH",
"154 469 OFFCURVE",
"169 480 OFFCURVE",
"180 492 CURVE",
"180 389 LINE SMOOTH",
"180 330 OFFCURVE",
"159 303 OFFCURVE",
"115 303 CURVE SMOOTH"
);
}
);
width = 243;
}
);
note = ordfeminine;
unicode = 00AA;
},
{
color = 6;
glyphname = ordmasculine;
lastChange = "2022-04-04 15:28:00 +0000";
layers = (
{
layerId = "5E1A2ACF-25BB-4872-A226-5327BC7330DB";
paths = (
{
closed = 1;
nodes = (
"178 291 OFFCURVE",
"195 309 OFFCURVE",
"195 370 CURVE SMOOTH",
"195 529 LINE SMOOTH",
"195 585 OFFCURVE",
"177 603 OFFCURVE",
"122 603 CURVE SMOOTH",
"66 603 OFFCURVE",
"48 586 OFFCURVE",
"48 529 CURVE SMOOTH",
"48 370 LINE SMOOTH",
"48 309 OFFCURVE",
"66 291 OFFCURVE",
"122 291 CURVE SMOOTH"
);
},
{
closed = 1;
nodes = (
"76 306 OFFCURVE",
"64 320 OFFCURVE",
"64 370 CURVE SMOOTH",
"64 529 LINE SMOOTH",
"64 574 OFFCURVE",
"78 590 OFFCURVE",
"122 590 CURVE SMOOTH",
"165 590 OFFCURVE",
"179 575 OFFCURVE",
"179 529 CURVE SMOOTH",
"179 370 LINE SMOOTH",
"179 321 OFFCURVE",
"166 306 OFFCURVE",
"121 306 CURVE SMOOTH"
);
}
);
width = 240;
}
);
note = ordmasculine;
unicode = 00BA;
},
{
color = 6;
glyphname = "Be-cy";
lastChange = "2022-04-05 22:44:43 +0000";
layers = (
{
layerId = "5E1A2ACF-25BB-4872-A226-5327BC7330DB";
paths = (
{
closed = 1;
nodes = (
"198 0 LINE SMOOTH",
"311 0 OFFCURVE",
"317 69 OFFCURVE",
"317 131 CURVE SMOOTH",
"317 304 LINE SMOOTH",
"317 365 OFFCURVE",
"311 435 OFFCURVE",
"198 435 CURVE SMOOTH",
"94 435 LINE",
"94 575 LINE",
"319 575 LINE",
"319 591 LINE",
"78 591 LINE",
"78 0 LINE"
);
},
{
closed = 1;
nodes = (
"94 419 LINE",
"198 419 LINE SMOOTH",
"296 419 OFFCURVE",
"301 354 OFFCURVE",
"301 295 CURVE SMOOTH",
"301 140 LINE SMOOTH",
"301 81 OFFCURVE",
"296 16 OFFCURVE",
"198 16 CURVE SMOOTH",
"94 16 LINE"
);
}
);
width = 369;
}
);
note = uni0411;
unicode = 0411;
},
{
color = 6;
glyphname = "Ge-cy";
lastChange = "2022-04-05 22:44:43 +0000";
layers = (
{
layerId = "5E1A2ACF-25BB-4872-A226-5327BC7330DB";
paths = (
{
closed = 1;
nodes = (
"94 0 LINE",
"94 575 LINE",
"319 575 LINE",
"319 591 LINE",
"78 591 LINE",
"78 0 LINE"
);
}
);
width = 339;
}
);
note = uni0413;
unicode = 0413;
},
{
color = 6;
glyphname = "De-cy";
lastChange = "2022-04-05 22:57:56 +0000";
layers = (
{
layerId = "5E1A2ACF-25BB-4872-A226-5327BC7330DB";
paths = (
{
closed = 1;
nodes = (
"26 -99 LINE",
"26 -5 LINE",
"408 -5 LINE",
"408 -99 LINE",
"424 -99 LINE",
"424 11 LINE",
"348 11 LINE",
"348 591 LINE",
"146 591 LINE",
"110 92 LINE SMOOTH",
"106 40 OFFCURVE",
"93 13 OFFCURVE",
"60 11 CURVE SMOOTH",
"10 11 LINE",
"10 -99 LINE"
);
},
{
closed = 1;
nodes = (
"122 32 OFFCURVE",
"125 80 OFFCURVE",
"126 92 CURVE SMOOTH",
"161 575 LINE",
"332 575 LINE",
"332 11 LINE",
"98 11 LINE"
);
}
);
width = 444;
}
);
note = uni0414;
unicode = 0414;
},
{
color = 6;
glyphname = "Zhe-cy";
lastChange = "2022-04-05 22:44:43 +0000";
layers = (
{
layerId = "5E1A2ACF-25BB-4872-A226-5327BC7330DB";
paths = (
{
closed = 1;
nodes = (
"24 0 LINE",
"202 294 LINE",
"234 294 LINE",
"234 0 LINE",
"250 0 LINE",
"250 294 LINE",
"282 294 LINE",
"460 0 LINE",
"479 0 LINE",
"293 306 LINE",
"474 591 LINE",
"456 591 LINE",
"277 310 LINE",
"250 310 LINE",
"250 591 LINE",
"234 591 LINE",
"234 310 LINE",
"206 310 LINE",
"28 591 LINE",
"10 591 LINE",
"191 306 LINE",
"5 0 LINE"
);
}
);
width = 484;
}
);
note = uni0416;
unicode = 0416;
},
{
glyphname = "Iigrave-cy";
lastChange = "2022-04-04 16:02:00 +0000";
layers = (
{
associatedMasterId = "5E1A2ACF-25BB-4872-A226-5327BC7330DB";
background = {
components = (
{
name = breve;
transform = "{1, 0, 0, 1, 3, 0}";
}
);
paths = (
{
closed = 1;
nodes = (
"149 0 LINE",
"177 85 OFFCURVE",
"204 170 OFFCURVE",
"232 255 CURVE",
"232 0 LINE",
"368 0 LINE",
"368 495 LINE",
"233 495 LINE",
"161 278 LINE",
"161 495 LINE",
"25 495 LINE",
"25 0 LINE"
);
}
);
};
components = (
{
name = "Ii-cy";
},
{
name = gravecomb.case;
transform = "{1, 0, 0, 1, 17, 0}";
}
);
layerId = "8A3706BD-364F-4FE3-9C2E-7E87DF0DB4CC";
name = Black;
width = 438;
},
{
components = (
{
name = "Ii-cy";
},
{
name = gravecomb.case;
transform = "{1, 0, 0, 1, 162, 0}";
}
);
layerId = "5E1A2ACF-25BB-4872-A226-5327BC7330DB";
width = 438;
}
);
leftKerningGroup = uni0431;
note = uni0439;
unicode = 040D;
},
{
color = 6;
glyphname = "Ka-cy";
lastChange = "2022-04-05 22:44:43 +0000";
layers = (
{
layerId = "5E1A2ACF-25BB-4872-A226-5327BC7330DB";
paths = (
{
closed = 1;
nodes = (
"94 0 LINE",
"94 296 LINE",
"125 296 LINE",
"302 0 LINE",
"321 0 LINE",
"137 306 LINE",
"316 591 LINE",
"298 591 LINE",
"123 312 LINE",
"94 312 LINE",
"94 591 LINE",
"78 591 LINE",
"78 0 LINE"
);
}
);
width = 329;
}
);
note = uni041A;
unicode = 041A;
},
{
color = 6;
glyphname = "El-cy";
lastChange = "2022-04-05 22:44:43 +0000";
layers = (
{
layerId = "5E1A2ACF-25BB-4872-A226-5327BC7330DB";
paths = (
{
closed = 1;
nodes = (
"75 0 OFFCURVE",
"81 77 OFFCURVE",
"81 92 CURVE",
"116 575 LINE",
"288 575 LINE",
"288 1 LINE",
"304 1 LINE",
"304 591 LINE",
"100 591 LINE",
"65 92 LINE SMOOTH",
"61 41 OFFCURVE",
"47 16 OFFCURVE",
"20 16 CURVE",
"20 0 LINE"
);
}
);
width = 354;
}
);
note = uni041B;
unicode = 041B;
},
{
color = 6;
glyphname = "Pe-cy";
lastChange = "2022-04-05 22:44:43 +0000";
layers = (
{
background = {
paths = (
{
closed = 1;
nodes = (
"90 0 LINE",
"90 580 LINE",
"307 580 LINE",
"307 0 LINE",
"319 0 LINE",
"319 591 LINE",
"78 591 LINE",
"78 0 LINE"
);
}
);
};
layerId = "5E1A2ACF-25BB-4872-A226-5327BC7330DB";
paths = (
{
closed = 1;
nodes = (
"93 0 LINE",
"93 575 LINE",
"302 575 LINE",
"302 0 LINE",
"318 0 LINE",
"318 591 LINE",
"77 591 LINE",
"77 0 LINE"
);
}
);
width = 397;
}
);
note = uni041F;
unicode = 041F;
},
{
color = 6;
glyphname = "Ef-cy";
lastChange = "2022-04-05 22:44:43 +0000";
layers = (
{
layerId = "5E1A2ACF-25BB-4872-A226-5327BC7330DB";
paths = (
{
closed = 1;
nodes = (
"213 0 LINE",
"213 59 LINE",
"222 59 LINE SMOOTH",
"302 59 OFFCURVE",
"359 73 OFFCURVE",
"359 189 CURVE SMOOTH",
"359 403 LINE SMOOTH",
"359 517 OFFCURVE",
"300 533 OFFCURVE",
"223 533 CURVE SMOOTH",
"213 533 LINE",
"213 591 LINE",
"197 591 LINE",
"197 533 LINE",
"186 533 LINE SMOOTH",
"109 533 OFFCURVE",
"50 519 OFFCURVE",
"50 403 CURVE SMOOTH",
"50 189 LINE SMOOTH",
"50 75 OFFCURVE",
"109 59 OFFCURVE",
"185 59 CURVE SMOOTH",
"197 59 LINE",
"197 0 LINE"
);
},
{
closed = 1;
nodes = (
"116 74 OFFCURVE",
"66 83 OFFCURVE",
"66 186 CURVE SMOOTH",
"66 406 LINE SMOOTH",
"66 510 OFFCURVE",
"121 518 OFFCURVE",
"186 518 CURVE SMOOTH",
"197 518 LINE",
"197 74 LINE",
"184 74 LINE SMOOTH"
);
},
{
closed = 1;
nodes = (
"213 518 LINE",
"223 518 LINE SMOOTH",
"286 518 OFFCURVE",
"343 509 OFFCURVE",
"343 406 CURVE SMOOTH",
"343 186 LINE SMOOTH",
"343 82 OFFCURVE",
"292 74 OFFCURVE",
"222 74 CURVE SMOOTH",
"213 74 LINE"
);
}
);
width = 407;
}
);
note = uni0424;
unicode = 0424;
},
{
color = 6;
glyphname = "Che-cy";
lastChange = "2022-04-05 22:44:43 +0000";
layers = (
{
background = {
paths = (
{
closed = 1;
nodes = (
"284 0 LINE",
"296 0 LINE",
"296 591 LINE",
"284 591 LINE",
"284 187 LINE",
"273 176 OFFCURVE",
"247 146 OFFCURVE",
"175 146 CURVE SMOOTH",
"71 146 OFFCURVE",
"68 211 OFFCURVE",
"68 270 CURVE SMOOTH",
"68 591 LINE",
"56 591 LINE",
"56 267 LINE SMOOTH",
"56 205 OFFCURVE",
"62 136 OFFCURVE",
"175 136 CURVE SMOOTH",
"238 136 OFFCURVE",
"275 159 OFFCURVE",
"284 174 CURVE"
);
}
);
};
layerId = "5E1A2ACF-25BB-4872-A226-5327BC7330DB";
paths = (
{
closed = 1;
nodes = (
"294 0 LINE",
"294 591 LINE",
"278 591 LINE",
"278 245 LINE",
"273 188 OFFCURVE",
"242 147 OFFCURVE",
"169 147 CURVE SMOOTH",
"69 147 OFFCURVE",
"66 212 OFFCURVE",
"66 271 CURVE SMOOTH",
"66 591 LINE",
"50 591 LINE",
"50 262 LINE SMOOTH",
"50 201 OFFCURVE",
"56 131 OFFCURVE",
"169 131 CURVE SMOOTH",
"232 131 OFFCURVE",
"263 158 OFFCURVE",
"278 189 CURVE",
"278 0 LINE"
);
}
);
width = 374;
}
);
note = uni0427;
unicode = 0427;
},
{
color = 6;
glyphname = "Tse-cy";
lastChange = "2022-04-05 22:44:43 +0000";
layers = (
{
layerId = "5E1A2ACF-25BB-4872-A226-5327BC7330DB";
paths = (
{
closed = 1;
nodes = (
"315 -74 LINE",
"315 16 LINE",
"295 16 LINE",
"295 591 LINE",
"279 591 LINE",
"279 16 LINE",
"62 16 LINE",
"62 591 LINE",
"46 591 LINE",
"46 0 LINE",
"299 0 LINE",
"299 -74 LINE"
);
}
);
width = 355;
}
);
note = uni0426;
unicode = 0426;
},
{
color = 6;
glyphname = "Sha-cy";
lastChange = "2022-04-05 22:44:43 +0000";
layers = (
{
layerId = "5E1A2ACF-25BB-4872-A226-5327BC7330DB";
paths = (
{
closed = 1;
nodes = (
"524 0 LINE",
"524 591 LINE",
"508 591 LINE",
"508 16 LINE",
"295 16 LINE",
"295 591 LINE",
"279 591 LINE",
"279 16 LINE",
"66 16 LINE",
"66 591 LINE",
"50 591 LINE",
"50 0 LINE"
);
}
);
width = 574;
}
);
note = uni0428;
unicode = 0428;
},
{
color = 6;
glyphname = "Shcha-cy";
lastChange = "2022-04-05 22:44:43 +0000";
layers = (
{
layerId = "5E1A2ACF-25BB-4872-A226-5327BC7330DB";
paths = (
{
closed = 1;
nodes = (
"548 -74 LINE",
"548 16 LINE",
"528 16 LINE",
"528 591 LINE",
"512 591 LINE",
"512 16 LINE",
"295 16 LINE",
"295 591 LINE",
"279 591 LINE",
"279 0 LINE",
"532 0 LINE",
"532 -74 LINE"
);
},
{
closed = 1;
nodes = (
"299 0 LINE",
"295 16 LINE",
"295 591 LINE",
"279 591 LINE",
"279 16 LINE",
"62 16 LINE",
"62 591 LINE",
"46 591 LINE",
"46 0 LINE"
);
}
);
width = 583;
}
);
note = uni0429;
unicode = 0429;
},
{
color = 6;
glyphname = "Dzhe-cy";
lastChange = "2022-04-05 22:44:43 +0000";
layers = (
{
layerId = "5E1A2ACF-25BB-4872-A226-5327BC7330DB";
paths = (
{
closed = 1;
nodes = (
"170 -99 LINE",
"170 0 LINE",
"285 0 LINE",
"285 591 LINE",
"271 591 LINE",
"271 16 LINE",
"54 16 LINE",
"54 591 LINE",
"40 591 LINE",
"40 0 LINE",
"155 0 LINE",
"155 -99 LINE"
);
}
);
width = 325;
}
);
note = uni040F;
unicode = 040F;
},
{
color = 6;
glyphname = "Softsign-cy";
lastChange = "2022-04-05 22:44:43 +0000";
layers = (
{
layerId = "5E1A2ACF-25BB-4872-A226-5327BC7330DB";
paths = (
{
closed = 1;
nodes = (
"174 0 LINE SMOOTH",
"287 0 OFFCURVE",
"293 69 OFFCURVE",
"293 131 CURVE SMOOTH",
"293 304 LINE SMOOTH",
"293 365 OFFCURVE",
"287 435 OFFCURVE",
"174 435 CURVE SMOOTH",
"65 435 LINE",
"65 588 LINE",
"50 588 LINE",
"50 0 LINE"
);
},
{
closed = 1;
nodes = (
"65 420 LINE",
"170 420 LINE SMOOTH",
"273 420 OFFCURVE",
"278 360 OFFCURVE",
"278 301 CURVE SMOOTH",
"278 134 LINE SMOOTH",
"278 75 OFFCURVE",
"273 15 OFFCURVE",
"170 15 CURVE SMOOTH",
"65 15 LINE"
);
}
);
width = 343;
}
);
note = uni042C;
unicode = 042C;
},
{
color = 6;
glyphname = "Hardsign-cy";
lastChange = "2022-04-05 22:44:43 +0000";
layers = (
{
layerId = "5E1A2ACF-25BB-4872-A226-5327BC7330DB";
paths = (
{
closed = 1;
nodes = (
"198 0 LINE SMOOTH",
"311 0 OFFCURVE",
"317 69 OFFCURVE",
"317 131 CURVE SMOOTH",
"317 304 LINE SMOOTH",
"317 365 OFFCURVE",
"311 435 OFFCURVE",
"198 435 CURVE SMOOTH",
"89 435 LINE",
"89 591 LINE",
"10 591 LINE",
"10 575 LINE",
"74 575 LINE",
"74 0 LINE"
);
},
{
closed = 1;
nodes = (
"89 420 LINE",
"194 420 LINE SMOOTH",
"297 420 OFFCURVE",
"302 360 OFFCURVE",
"302 301 CURVE SMOOTH",
"302 134 LINE SMOOTH",
"302 75 OFFCURVE",
"297 15 OFFCURVE",
"194 15 CURVE SMOOTH",
"89 15 LINE"
);
}
);
width = 364;
}
);
note = uni042A;
unicode = 042A;
},
{
color = 6;
glyphname = "Yeru-cy";
lastChange = "2022-04-05 22:44:43 +0000";
layers = (
{
layerId = "5E1A2ACF-25BB-4872-A226-5327BC7330DB";
paths = (
{
closed = 1;
nodes = (
"170 0 LINE SMOOTH",
"283 0 OFFCURVE",
"289 69 OFFCURVE",
"289 131 CURVE SMOOTH",
"289 304 LINE SMOOTH",
"289 365 OFFCURVE",
"283 435 OFFCURVE",
"170 435 CURVE SMOOTH",
"61 435 LINE",
"61 591 LINE",
"46 591 LINE",
"46 0 LINE"
);
},
{
closed = 1;
nodes = (
"61 420 LINE",
"166 420 LINE SMOOTH",
"269 420 OFFCURVE",
"274 360 OFFCURVE",
"274 301 CURVE SMOOTH",
"274 134 LINE SMOOTH",
"274 75 OFFCURVE",
"269 15 OFFCURVE",
"166 15 CURVE SMOOTH",
"61 15 LINE"
);
},
{
closed = 1;
nodes = (
"400 0 LINE",
"400 591 LINE",
"384 591 LINE",
"384 0 LINE"
);
}
);
width = 451;
}
);
note = uni042B;
unicode = 042B;
},
{
color = 6;
glyphname = "Lje-cy";
lastChange = "2022-04-05 22:44:43 +0000";
layers = (
{
layerId = "5E1A2ACF-25BB-4872-A226-5327BC7330DB";
paths = (
{
closed = 1;
nodes = (
"75 0 OFFCURVE",
"81 77 OFFCURVE",
"81 92 CURVE",
"116 575 LINE",
"288 575 LINE",
"288 0 LINE",
"412 0 LINE SMOOTH",
"525 0 OFFCURVE",
"531 69 OFFCURVE",
"531 131 CURVE SMOOTH",
"531 304 LINE SMOOTH",
"531 365 OFFCURVE",
"525 435 OFFCURVE",
"412 435 CURVE SMOOTH",
"304 435 LINE",
"304 591 LINE",
"100 591 LINE",
"65 92 LINE SMOOTH",
"61 41 OFFCURVE",
"47 16 OFFCURVE",
"20 16 CURVE",
"20 0 LINE"
);
},
{
closed = 1;
nodes = (
"304 420 LINE",
"408 420 LINE SMOOTH",
"511 420 OFFCURVE",
"516 360 OFFCURVE",
"516 301 CURVE SMOOTH",
"516 134 LINE SMOOTH",
"516 75 OFFCURVE",
"511 15 OFFCURVE",
"408 15 CURVE SMOOTH",
"304 15 LINE"
);
}
);
width = 578;
}
);
note = uni0409;
unicode = 0409;
},
{
color = 6;
glyphname = "Nje-cy";
lastChange = "2022-04-05 22:44:43 +0000";
layers = (
{
layerId = "5E1A2ACF-25BB-4872-A226-5327BC7330DB";
paths = (
{
closed = 1;
nodes = (
"350 0 LINE SMOOTH",
"463 0 OFFCURVE",
"469 69 OFFCURVE",
"469 131 CURVE SMOOTH",
"469 304 LINE SMOOTH",
"469 365 OFFCURVE",
"463 435 OFFCURVE",
"350 435 CURVE SMOOTH",
"241 435 LINE",
"241 588 LINE",
"226 588 LINE",
"226 0 LINE"
);
},
{
closed = 1;
nodes = (
"62 0 LINE",
"62 302 LINE",
"225 302 LINE",
"225 0 LINE",
"241 0 LINE",
"241 591 LINE",
"225 591 LINE",
"225 318 LINE",
"62 318 LINE",
"62 591 LINE",
"46 591 LINE",
"46 0 LINE"
);
},
{
closed = 1;
nodes = (
"241 420 LINE",
"346 420 LINE SMOOTH",
"449 420 OFFCURVE",
"454 360 OFFCURVE",
"454 301 CURVE SMOOTH",
"454 134 LINE SMOOTH",
"454 75 OFFCURVE",
"449 15 OFFCURVE",
"346 15 CURVE SMOOTH",
"241 15 LINE"
);
}
);
width = 514;
}
);
note = uni040A;
unicode = 040A;
},
{
color = 6;
glyphname = "E-cy";
lastChange = "2022-04-05 22:44:43 +0000";
layers = (
{
layerId = "5E1A2ACF-25BB-4872-A226-5327BC7330DB";
paths = (
{
closed = 1;
nodes = (
"269 -12 OFFCURVE",
"327 2 OFFCURVE",
"327 118 CURVE SMOOTH",
"327 189 LINE",
"311 189 LINE",
"311 116 LINE SMOOTH",
"311 12 OFFCURVE",
"256 2 OFFCURVE",
"190 2 CURVE SMOOTH",
"121 2 OFFCURVE",
"66 12 OFFCURVE",
"66 116 CURVE SMOOTH",
"66 292 LINE",
"238 292 LINE",
"238 308 LINE",
"66 308 LINE",
"66 467 LINE SMOOTH",
"66 572 OFFCURVE",
"115 584 OFFCURVE",
"190 584 CURVE SMOOTH",
"261 584 OFFCURVE",
"311 574 OFFCURVE",
"311 473 CURVE SMOOTH",
"311 381 LINE",
"327 381 LINE",
"327 469 LINE SMOOTH",
"327 583 OFFCURVE",
"268 599 OFFCURVE",
"191 599 CURVE SMOOTH",
"110 599 OFFCURVE",
"50 585 OFFCURVE",
"50 469 CURVE SMOOTH",
"50 118 LINE SMOOTH",
"50 4 OFFCURVE",
"109 -12 OFFCURVE",
"189 -12 CURVE SMOOTH"
);
}
);
width = 377;
}
);
note = uni0404;
unicode = 0404;
},
{
color = 6;
glyphname = "Ereversed-cy";
lastChange = "2022-04-05 22:44:43 +0000";
layers = (
{
layerId = "5E1A2ACF-25BB-4872-A226-5327BC7330DB";
paths = (
{
closed = 1;
nodes = (
"268 -12 OFFCURVE",
"327 4 OFFCURVE",
"327 118 CURVE SMOOTH",
"327 469 LINE SMOOTH",
"327 585 OFFCURVE",
"267 599 OFFCURVE",
"186 599 CURVE SMOOTH",
"109 599 OFFCURVE",
"50 583 OFFCURVE",
"50 469 CURVE SMOOTH",
"50 381 LINE",
"66 381 LINE",
"66 473 LINE SMOOTH",
"66 574 OFFCURVE",
"116 584 OFFCURVE",
"187 584 CURVE SMOOTH",
"262 584 OFFCURVE",
"311 572 OFFCURVE",
"311 467 CURVE SMOOTH",
"311 308 LINE",
"139 308 LINE",
"139 292 LINE",
"311 292 LINE",
"311 116 LINE SMOOTH",
"311 12 OFFCURVE",
"256 2 OFFCURVE",
"187 2 CURVE SMOOTH",
"121 2 OFFCURVE",
"66 12 OFFCURVE",
"66 116 CURVE SMOOTH",
"66 189 LINE",
"50 189 LINE",
"50 118 LINE SMOOTH",
"50 2 OFFCURVE",
"108 -12 OFFCURVE",
"188 -12 CURVE SMOOTH"
);
}
);
width = 377;
}
);
note = uni042D;
unicode = 042D;
},
{
color = 6;
glyphname = "Tshe-cy";
lastChange = "2022-04-05 22:44:43 +0000";
layers = (
{
layerId = "5E1A2ACF-25BB-4872-A226-5327BC7330DB";
paths = (
{
closed = 1;
nodes = (
"147 0 LINE",
"147 323 LINE",
"152 380 OFFCURVE",
"183 421 OFFCURVE",
"256 421 CURVE SMOOTH",
"356 421 OFFCURVE",
"359 356 OFFCURVE",
"359 297 CURVE SMOOTH",
"359 0 LINE",
"375 0 LINE",
"375 306 LINE SMOOTH",
"375 367 OFFCURVE",
"369 437 OFFCURVE",
"256 437 CURVE SMOOTH",
"193 437 OFFCURVE",
"162 410 OFFCURVE",
"147 379 CURVE",
"147 575 LINE",
"259 575 LINE",
"259 591 LINE",
"20 591 LINE",
"20 575 LINE",
"131 575 LINE",
"131 0 LINE"
);
}
);
width = 425;
}
);
note = uni040B;
unicode = 040B;
},
{
color = 6;
glyphname = "Iu-cy";
lastChange = "2022-04-05 22:44:43 +0000";
layers = (
{
layerId = "5E1A2ACF-25BB-4872-A226-5327BC7330DB";
paths = (
{
closed = 1;
nodes = (
"425 -12 OFFCURVE",
"487 2 OFFCURVE",
"487 118 CURVE SMOOTH",
"487 469 LINE SMOOTH",
"487 583 OFFCURVE",
"424 599 OFFCURVE",
"347 599 CURVE SMOOTH",
"270 599 OFFCURVE",
"206 585 OFFCURVE",
"206 469 CURVE SMOOTH",
"206 118 LINE SMOOTH",
"206 4 OFFCURVE",
"269 -12 OFFCURVE",
"345 -12 CURVE SMOOTH"
);
},
{
closed = 1;
nodes = (
"62 0 LINE",
"62 302 LINE",
"215 302 LINE",
"215 318 LINE",
"62 318 LINE",
"62 591 LINE",
"46 591 LINE",
"46 0 LINE"
);
},
{
closed = 1;
nodes = (
"277 4 OFFCURVE",
"222 17 OFFCURVE",
"222 121 CURVE SMOOTH",
"222 466 LINE SMOOTH",
"222 570 OFFCURVE",
"277 583 OFFCURVE",
"346 583 CURVE SMOOTH",
"414 583 OFFCURVE",
"471 570 OFFCURVE",
"471 466 CURVE SMOOTH",
"471 121 LINE SMOOTH",
"471 17 OFFCURVE",
"416 4 OFFCURVE",
"346 4 CURVE SMOOTH"
);
}
);
width = 533;
}
);
note = uni042E;
unicode = 042E;
},
{
color = 6;
glyphname = "Dje-cy";
lastChange = "2022-04-05 22:44:43 +0000";
layers = (
{
layerId = "5E1A2ACF-25BB-4872-A226-5327BC7330DB";
paths = (
{
closed = 1;
nodes = (
"137 0 LINE",
"137 323 LINE",
"142 380 OFFCURVE",
"173 421 OFFCURVE",
"246 421 CURVE SMOOTH",
"346 421 OFFCURVE",
"349 356 OFFCURVE",
"349 297 CURVE SMOOTH",
"349 142 LINE SMOOTH",
"349 55 OFFCURVE",
"330 16 OFFCURVE",
"229 16 CURVE",
"229 0 LINE",
"347 0 OFFCURVE",
"365 45 OFFCURVE",
"365 146 CURVE SMOOTH",
"365 306 LINE SMOOTH",
"365 367 OFFCURVE",
"359 437 OFFCURVE",
"246 437 CURVE SMOOTH",
"183 437 OFFCURVE",
"152 410 OFFCURVE",
"137 379 CURVE",
"137 575 LINE",
"249 575 LINE",
"249 591 LINE",
"10 591 LINE",
"10 575 LINE",
"121 575 LINE",
"121 0 LINE"
);
}
);
width = 414;
}
);
note = uni0402;
unicode = 0402;
},
{
glyphname = "Yat-cy";
lastChange = "2022-04-05 22:44:43 +0000";
layers = (
{
associatedMasterId = "5E1A2ACF-25BB-4872-A226-5327BC7330DB";
background = {
components = (
{
name = hyphen;
transform = "{1.53882, 0, 0, 0.70397, -30, 313}";
}
);
paths = (
{
closed = 1;
nodes = (
"293 0 LINE SMOOTH",
"369 0 OFFCURVE",
"429 10 OFFCURVE",
"429 161 CURVE SMOOTH",
"429 324 LINE SMOOTH",
"429 423 OFFCURVE",
"367 436 OFFCURVE",
"318 436 CURVE SMOOTH",
"239 436 LINE",
"239 591 LINE",
"83 591 LINE",
"83 0 LINE"
);
},
{
closed = 1;
nodes = (
"239 341 LINE",
"256 341 LINE SMOOTH",
"272 341 OFFCURVE",
"273 330 OFFCURVE",
"273 291 CURVE SMOOTH",
"273 166 LINE SMOOTH",
"273 87 OFFCURVE",
"271 80 OFFCURVE",
"257 80 CURVE SMOOTH",
"239 80 LINE"
);
}
);
};
components = (
{
name = hyphen;
transform = "{1.53882, 0, 0, 0.70397, -30, 313}";
}
);
layerId = "8A3706BD-364F-4FE3-9C2E-7E87DF0DB4CC";
name = Black;
paths = (
{
closed = 1;
nodes = (
"293 0 LINE SMOOTH",
"369 0 OFFCURVE",
"429 10 OFFCURVE",
"429 161 CURVE SMOOTH",
"429 324 LINE SMOOTH",
"429 423 OFFCURVE",
"367 436 OFFCURVE",
"318 436 CURVE SMOOTH",
"239 436 LINE",
"239 591 LINE",
"83 591 LINE",
"83 0 LINE"
);
},
{
closed = 1;
nodes = (
"239 341 LINE",
"256 341 LINE SMOOTH",
"272 341 OFFCURVE",
"273 330 OFFCURVE",
"273 291 CURVE SMOOTH",
"273 166 LINE SMOOTH",
"273 87 OFFCURVE",
"271 80 OFFCURVE",
"257 80 CURVE SMOOTH",
"239 80 LINE"
);
}
);
width = 454;
},
{
components = (
{
alignment = -1;
name = hyphen;
transform = "{1.39957, 0, 0, 0.99129, -55, 278}";
}
);
layerId = "5E1A2ACF-25BB-4872-A226-5327BC7330DB";
paths = (
{
closed = 1;
nodes = (
"220 0 LINE SMOOTH",
"333 0 OFFCURVE",
"339 69 OFFCURVE",
"339 131 CURVE SMOOTH",
"339 304 LINE SMOOTH",
"339 365 OFFCURVE",
"333 435 OFFCURVE",
"220 435 CURVE SMOOTH",
"111 435 LINE",
"111 588 LINE",
"96 588 LINE",
"96 0 LINE"
);
},
{
closed = 1;
nodes = (
"111 0 LINE",
"111 591 LINE",
"95 591 LINE",
"95 0 LINE"
);
},
{
closed = 1;
nodes = (
"111 420 LINE",
"216 420 LINE SMOOTH",
"319 420 OFFCURVE",
"324 360 OFFCURVE",
"324 301 CURVE SMOOTH",
"324 134 LINE SMOOTH",
"324 75 OFFCURVE",
"319 15 OFFCURVE",
"216 15 CURVE SMOOTH",
"111 15 LINE"
);
}
);
width = 387;
}
);
unicode = 0462;
},
{
color = 4;
glyphname = "Yusbig-cy";
lastChange = "2022-04-04 16:17:48 +0000";
layers = (
{
associatedMasterId = "5E1A2ACF-25BB-4872-A226-5327BC7330DB";
background = {
paths = (
{
closed = 1;
nodes = (
"197 0 LINE",
"233 230 LINE SMOOTH",
"237 253 OFFCURVE",
"240 276 OFFCURVE",
"244 299 CURVE",
"246 299 LINE",
"247 0 LINE",
"414 0 LINE",
"414 299 LINE",
"416 299 LINE",
"420 274 OFFCURVE",
"423 249 OFFCURVE",
"427 224 CURVE SMOOTH",
"464 0 LINE",
"641 0 LINE",
"586 253 LINE SMOOTH",
"576 300 OFFCURVE",
"546 332 OFFCURVE",
"505 335 CURVE SMOOTH",
"456 339 LINE",
"632 484 LINE",
"632 591 LINE",
"22 591 LINE",
"22 484 LINE",
"199 338 LINE",
"157 336 LINE SMOOTH",
"113 334 OFFCURVE",
"85 298 OFFCURVE",
"75 253 CURVE SMOOTH",
"20 0 LINE"
);
},
{
closed = 1;
nodes = (
"204 484 LINE",
"450 484 LINE",
"327 395 LINE"
);
}
);
};
layerId = "8A3706BD-364F-4FE3-9C2E-7E87DF0DB4CC";
name = Black;
paths = (
{
closed = 1;
nodes = (
"197 0 LINE",
"233 230 LINE SMOOTH",
"237 253 OFFCURVE",
"240 276 OFFCURVE",
"244 299 CURVE",
"246 299 LINE",
"247 0 LINE",
"414 0 LINE",
"414 299 LINE",
"416 299 LINE",
"420 274 OFFCURVE",
"423 249 OFFCURVE",
"427 224 CURVE SMOOTH",
"464 0 LINE",
"641 0 LINE",
"586 253 LINE SMOOTH",
"576 300 OFFCURVE",
"546 332 OFFCURVE",
"505 335 CURVE SMOOTH",
"456 339 LINE",
"632 484 LINE",
"632 591 LINE",
"22 591 LINE",
"22 484 LINE",
"199 338 LINE",
"157 336 LINE SMOOTH",
"113 334 OFFCURVE",
"85 298 OFFCURVE",
"75 253 CURVE SMOOTH",
"20 0 LINE"
);
},
{
closed = 1;
nodes = (
"204 484 LINE",
"450 484 LINE",
"327 395 LINE"
);
}
);
width = 661;
},
{
layerId = "5E1A2ACF-25BB-4872-A226-5327BC7330DB";
paths = (
{
closed = 1;
nodes = (
"56 0 LINE",
"120 223 LINE SMOOTH",
"132 265 OFFCURVE",
"149 309 OFFCURVE",
"216 309 CURVE SMOOTH",
"316 309 LINE",
"316 0 LINE",
"332 0 LINE",
"332 309 LINE",
"433 309 LINE SMOOTH",
"500 309 OFFCURVE",
"517 265 OFFCURVE",
"529 223 CURVE SMOOTH",
"593 0 LINE",
"610 0 LINE",
"545 226 LINE SMOOTH",
"529 280 OFFCURVE",
"510 325 OFFCURVE",
"429 325 CURVE SMOOTH",
"339 325 LINE",
"632 576 LINE",
"632 591 LINE",
"25 591 LINE",
"25 576 LINE",
"310 325 LINE",
"210 325 LINE SMOOTH",
"139 325 OFFCURVE",
"118 274 OFFCURVE",
"104 226 CURVE SMOOTH",
"39 0 LINE"
);
},
{
closed = 1;
nodes = (
"50 575 LINE",
"606 575 LINE",
"325 332 LINE"
);
}
);
width = 657;
}
);
unicode = 046A;
},
{
color = 6;
glyphname = "be-cy";
lastChange = "2022-04-05 22:44:43 +0000";
layers = (
{
layerId = "5E1A2ACF-25BB-4872-A226-5327BC7330DB";
paths = (
{
closed = 1;
nodes = (
"288 -10 OFFCURVE",
"292 62 OFFCURVE",
"292 124 CURVE SMOOTH",
"292 316 LINE SMOOTH",
"292 377 OFFCURVE",
"286 450 OFFCURVE",
"170 450 CURVE SMOOTH",
"110 450 OFFCURVE",
"74 432 OFFCURVE",
"58 394 CURVE",
"64 393 LINE",
"64 493 LINE SMOOTH",
"64 576 OFFCURVE",
"104 593 OFFCURVE",
"164 593 CURVE SMOOTH",
"190 593 LINE SMOOTH",
"231 593 OFFCURVE",
"252 600 OFFCURVE",
"252 616 CURVE SMOOTH",
"252 626 LINE",
"246 626 LINE",
"241 613 OFFCURVE",
"222 609 OFFCURVE",
"198 609 CURVE SMOOTH",
"161 609 LINE SMOOTH",
"98 609 OFFCURVE",
"47 592 OFFCURVE",
"47 493 CURVE SMOOTH",
"47 124 LINE SMOOTH",
"47 62 OFFCURVE",
"55 -10 OFFCURVE",
"170 -10 CURVE SMOOTH"
);
},
{
closed = 1;
nodes = (
"70 6 OFFCURVE",
"63 68 OFFCURVE",
"63 127 CURVE SMOOTH",
"63 331 LINE SMOOTH",
"63 384 OFFCURVE",
"79 434 OFFCURVE",
"170 434 CURVE SMOOTH",
"270 434 OFFCURVE",
"276 372 OFFCURVE",
"276 313 CURVE SMOOTH",
"276 127 LINE SMOOTH",
"276 68 OFFCURVE",
"270 6 OFFCURVE",
"170 6 CURVE SMOOTH"
);
}
);
width = 337;
}
);
leftKerningGroup = uni0431;
note = uni0431;
unicode = 0431;
},
{
color = 6;
glyphname = "ve-cy";
lastChange = "2022-04-05 05:09:38 +0000";
layers = (
{
layerId = "5E1A2ACF-25BB-4872-A226-5327BC7330DB";
paths = (
{
closed = 1;
nodes = (
"204 0 LINE SMOOTH",
"277 0 OFFCURVE",
"327 16 OFFCURVE",
"327 120 CURVE SMOOTH",
"327 163 LINE SMOOTH",
"327 223 OFFCURVE",
"289 266 OFFCURVE",
"241 266 CURVE",
"288 275 OFFCURVE",
"322 317 OFFCURVE",
"322 381 CURVE SMOOTH",
"322 398 LINE SMOOTH",
"322 470 OFFCURVE",
"274 495 OFFCURVE",
"213 495 CURVE SMOOTH",
"50 495 LINE",
"50 0 LINE"
);
},
{
closed = 1;
nodes = (
"66 257 LINE",
"197 257 LINE SMOOTH",
"261 257 OFFCURVE",
"311 238 OFFCURVE",
"311 150 CURVE SMOOTH",
"311 125 LINE SMOOTH",
"311 31 OFFCURVE",
"271 16 OFFCURVE",
"201 16 CURVE SMOOTH",
"66 16 LINE"
);
},
{
closed = 1;
nodes = (
"66 479 LINE",
"213 479 LINE SMOOTH",
"266 479 OFFCURVE",
"306 452 OFFCURVE",
"306 400 CURVE SMOOTH",
"306 380 LINE SMOOTH",
"306 311 OFFCURVE",
"267 273 OFFCURVE",
"192 273 CURVE SMOOTH",
"66 273 LINE"
);
}
);
width = 377;
}
);
leftKerningGroup = uni0431;
note = uni0432;
rightKerningGroup = uni0432;
unicode = 0432;
},
{
color = 6;
glyphname = "ge-cy";
lastChange = "2022-04-05 22:44:43 +0000";
layers = (
{
layerId = "5E1A2ACF-25BB-4872-A226-5327BC7330DB";
paths = (
{
closed = 1;
nodes = (
"66 0 LINE",
"66 479 LINE",
"263 479 LINE",
"263 495 LINE",
"50 495 LINE",
"50 0 LINE"
);
}
);
width = 283;
}
);
leftKerningGroup = uni0431;
note = uni0433;
unicode = 0433;
},
{
color = 6;
glyphname = "de-cy";
lastChange = "2022-04-05 22:44:43 +0000";
layers = (
{
layerId = "5E1A2ACF-25BB-4872-A226-5327BC7330DB";
paths = (
{
closed = 1;
nodes = (
"40 -99 LINE",
"40 -5 LINE",
"414 -5 LINE",
"414 -99 LINE",
"429 -99 LINE",
"429 11 LINE",
"360 11 LINE",
"360 495 LINE",
"156 495 LINE",
"121 92 LINE SMOOTH",
"116 40 OFFCURVE",
"103 13 OFFCURVE",
"80 11 CURVE",
"25 11 LINE",
"25 -99 LINE"
);
},
{
closed = 1;
nodes = (
"133 32 OFFCURVE",
"137 80 OFFCURVE",
"137 92 CURVE",
"172 479 LINE",
"344 479 LINE",
"344 11 LINE",
"109 11 LINE"
);
}
);
width = 454;
}
);
note = uni0434;
rightKerningGroup = uni0432;
unicode = 0434;
},
{
color = 6;
glyphname = "zhe-cy";
lastChange = "2022-04-05 22:44:43 +0000";
layers = (
{
layerId = "5E1A2ACF-25BB-4872-A226-5327BC7330DB";
paths = (
{
closed = 1;
nodes = (
"44 0 LINE",
"194 254 LINE",
"227 254 LINE",
"227 0 LINE",
"242 0 LINE",
"242 254 LINE",
"276 254 LINE",
"425 0 LINE",
"444 0 LINE",
"289 261 LINE",
"436 495 LINE",
"418 495 LINE",
"275 270 LINE",
"242 270 LINE",
"242 495 LINE",
"227 495 LINE",
"227 270 LINE",
"194 270 LINE",
"51 495 LINE",
"33 495 LINE",
"180 261 LINE",
"25 0 LINE"
);
}
);
width = 469;
}
);
leftKerningGroup = uni0431;
note = uni0436;
unicode = 0436;
},
{
color = 6;
glyphname = "ze-cy";
lastChange = "2022-04-05 22:44:43 +0000";
layers = (
{
layerId = "5E1A2ACF-25BB-4872-A226-5327BC7330DB";
paths = (
{
closed = 1;
nodes = (
"290 -7 OFFCURVE",
"342 50 OFFCURVE",
"342 132 CURVE SMOOTH",
"342 186 OFFCURVE",
"311 253 OFFCURVE",
"246 264 CURVE",
"278 270 OFFCURVE",
"331 306 OFFCURVE",
"331 380 CURVE SMOOTH",
"331 463 OFFCURVE",
"290 499 OFFCURVE",
"201 499 CURVE SMOOTH",
"112 499 OFFCURVE",
"66 447 OFFCURVE",
"66 364 CURVE SMOOTH",
"66 333 LINE",
"82 333 LINE",
"82 363 LINE SMOOTH",
"82 429 OFFCURVE",
"117 483 OFFCURVE",
"201 483 CURVE SMOOTH",
"285 483 OFFCURVE",
"314 442 OFFCURVE",
"314 381 CURVE SMOOTH",
"314 306 OFFCURVE",
"260 271 OFFCURVE",
"201 271 CURVE SMOOTH",
"137 271 LINE",
"137 255 LINE",
"201 255 LINE SMOOTH",
"278 255 OFFCURVE",
"326 201 OFFCURVE",
"326 132 CURVE SMOOTH",
"326 71 OFFCURVE",
"291 8 OFFCURVE",
"201 8 CURVE SMOOTH",
"134 8 OFFCURVE",
"76 48 OFFCURVE",
"76 137 CURVE SMOOTH",
"76 158 LINE",
"60 158 LINE",
"60 137 LINE SMOOTH",
"60 44 OFFCURVE",
"111 -7 OFFCURVE",
"201 -7 CURVE SMOOTH"
);
}
);
width = 402;
}
);
note = uni0437;
unicode = 0437;
},
{
color = 6;
glyphname = "ii-cy";
lastChange = "2022-04-05 22:44:43 +0000";
layers = (
{
anchors = (
{
name = bottomright;
position = "{331, 0}";
},
{
name = top;
position = "{177, 495}";
}
);
layerId = "5E1A2ACF-25BB-4872-A226-5327BC7330DB";
paths = (
{
closed = 1;
nodes = (
"73 0 LINE",
"276 473 LINE",
"276 0 LINE",
"292 0 LINE",
"292 495 LINE",
"268 495 LINE",
"66 24 LINE",
"66 495 LINE",
"50 495 LINE",
"50 0 LINE"
);
}
);
width = 342;
}
);
leftKerningGroup = uni0431;
note = uni0438;
unicode = 0438;
},
{
color = 6;
glyphname = "ka-cy";
lastChange = "2022-04-05 04:50:37 +0000";
layers = (
{
layerId = "5E1A2ACF-25BB-4872-A226-5327BC7330DB";
paths = (
{
closed = 1;
nodes = (
"66 0 LINE",
"66 190 LINE",
"69 218 OFFCURVE",
"90 261 OFFCURVE",
"114 304 CURVE",
"263 0 LINE",
"281 0 LINE",
"125 318 LINE",
"159 375 OFFCURVE",
"219 447 OFFCURVE",
"282 468 CURVE",
"282 484 LINE",
"222 470 OFFCURVE",
"126 384 OFFCURVE",
"66 241 CURVE",
"66 496 LINE",
"50 496 LINE",
"50 0 LINE"
);
}
);
width = 312;
}
);
leftKerningGroup = uni0431;
note = uni043A;
unicode = 043A;
},
{
color = 6;
glyphname = "el-cy";
lastChange = "2022-04-05 22:44:43 +0000";
layers = (
{
layerId = "5E1A2ACF-25BB-4872-A226-5327BC7330DB";
paths = (
{
closed = 1;
nodes = (
"75 0 OFFCURVE",
"79 70 OFFCURVE",
"81 92 CURVE SMOOTH",
"116 479 LINE",
"288 479 LINE",
"288 1 LINE",
"304 1 LINE",
"304 495 LINE",
"100 495 LINE",
"65 94 LINE SMOOTH",
"60 38 OFFCURVE",
"47 16 OFFCURVE",
"20 16 CURVE",
"20 0 LINE"
);
}
);
width = 354;
}
);
leftKerningGroup = uni043B;
note = uni043B;
unicode = 043B;
},
{
color = 6;
glyphname = "em-cy";
lastChange = "2022-04-05 22:44:43 +0000";
layers = (
{
layerId = "5E1A2ACF-25BB-4872-A226-5327BC7330DB";
paths = (
{
closed = 1;
nodes = (
"66 0 LINE",
"66 447 LINE",
"215 0 LINE",
"232 0 LINE",
"381 447 LINE",
"381 0 LINE",
"397 0 LINE",
"397 495 LINE",
"380 495 LINE",
"224 24 LINE",
"67 495 LINE",
"50 495 LINE",
"50 0 LINE"
);
}
);
width = 447;
}
);
leftKerningGroup = uni0431;
note = uni043C;
unicode = 043C;
},
{
color = 6;
glyphname = "en-cy";
lastChange = "2022-04-05 22:44:43 +0000";
layers = (
{
layerId = "5E1A2ACF-25BB-4872-A226-5327BC7330DB";
paths = (
{
closed = 1;
nodes = (
"66 0 LINE",
"66 255 LINE",
"280 255 LINE",
"280 0 LINE",
"296 0 LINE",
"296 495 LINE",
"280 495 LINE",
"280 271 LINE",
"66 271 LINE",
"66 495 LINE",
"50 495 LINE",
"50 0 LINE"
);
}
);
width = 346;
}
);
leftKerningGroup = uni0431;
note = uni043D;
unicode = 043D;
},
{
color = 6;
glyphname = "pe-cy";
lastChange = "2022-04-05 22:44:43 +0000";
layers = (
{
layerId = "5E1A2ACF-25BB-4872-A226-5327BC7330DB";
paths = (
{
closed = 1;
nodes = (
"66 0 LINE",
"66 479 LINE",
"275 479 LINE",
"275 0 LINE",
"291 0 LINE",
"291 495 LINE",
"50 495 LINE",
"50 0 LINE"
);
}
);
width = 341;
}
);
leftKerningGroup = uni0431;
note = uni043F;
unicode = 043F;
},
{
color = 6;
glyphname = "te-cy";
lastChange = "2022-04-05 22:44:43 +0000";
layers = (
{
layerId = "5E1A2ACF-25BB-4872-A226-5327BC7330DB";
paths = (
{
closed = 1;
nodes = (
"152 0 LINE",
"152 479 LINE",
"264 479 LINE",
"264 495 LINE",
"25 495 LINE",
"25 479 LINE",
"136 479 LINE",
"136 0 LINE"
);
}
);
width = 289;
}
);
leftKerningGroup = uni0431;
note = uni0442;
unicode = 0442;
},
{
color = 6;
glyphname = "u-cy";
lastChange = "2022-04-05 04:56:36 +0000";
layers = (
{
anchors = (
{
name = bottom;
position = "{205, 0}";
},
{
name = top;
position = "{150, 495}";
}
);
layerId = "5E1A2ACF-25BB-4872-A226-5327BC7330DB";
paths = (
{
closed = 1;
nodes = (
"115 -115 OFFCURVE",
"143 -70 OFFCURVE",
"160 -1 CURVE SMOOTH",
"281 495 LINE",
"265 495 LINE",
"151 27 LINE",
"38 495 LINE",
"22 495 LINE",
"143 -4 LINE",
"130 -82 OFFCURVE",
"86 -101 OFFCURVE",
"55 -101 CURVE SMOOTH",
"32 -101 OFFCURVE",
"9 -96 OFFCURVE",
"6 -95 CURVE",
"6 -109 LINE",
"9 -110 OFFCURVE",
"35 -115 OFFCURVE",
"55 -115 CURVE SMOOTH"
);
}
);
width = 296;
}
);
leftKerningGroup = uni0431;
note = uni0443;
unicode = 0443;
},
{
color = 6;
glyphname = "ushort-cy";
lastChange = "2022-04-05 22:57:56 +0000";
layers = (
{
anchors = (
{
name = bottom;
position = "{205, 0}";
},
{
name = top;
position = "{150, 591}";
}
);
layerId = "5E1A2ACF-25BB-4872-A226-5327BC7330DB";
paths = (
{
closed = 1;
nodes = (
"115 -115 OFFCURVE",
"143 -70 OFFCURVE",
"160 -1 CURVE SMOOTH",
"281 495 LINE",
"265 495 LINE",
"151 27 LINE",
"38 495 LINE",
"22 495 LINE",
"143 -4 LINE",
"130 -82 OFFCURVE",
"86 -101 OFFCURVE",
"55 -101 CURVE SMOOTH",
"32 -101 OFFCURVE",
"9 -96 OFFCURVE",
"6 -95 CURVE",
"6 -109 LINE",
"9 -110 OFFCURVE",
"35 -115 OFFCURVE",
"55 -115 CURVE SMOOTH"
);
},
{
closed = 1;
nodes = (
"207 546 OFFCURVE",
"238 585 OFFCURVE",
"238 623 CURVE",
"222 623 LINE",
"222 582 OFFCURVE",
"184 562 OFFCURVE",
"149 562 CURVE SMOOTH",
"115 562 OFFCURVE",
"88 579 OFFCURVE",
"87 623 CURVE",
"71 623 LINE",
"71 586 OFFCURVE",
"90 546 OFFCURVE",
"148 546 CURVE SMOOTH"
);
}
);
width = 296;
}
);
leftKerningGroup = uni0431;
note = uni045E;
unicode = 045E;
},
{
color = 6;
glyphname = "ef-cy";
lastChange = "2022-04-05 22:44:43 +0000";
layers = (
{
layerId = "5E1A2ACF-25BB-4872-A226-5327BC7330DB";
paths = (
{
closed = 1;
nodes = (
"294 -116 LINE",
"294 37 LINE",
"309 11 OFFCURVE",
"339 -7 OFFCURVE",
"398 -7 CURVE SMOOTH",
"511 -7 OFFCURVE",
"522 62 OFFCURVE",
"522 124 CURVE SMOOTH",
"522 315 LINE SMOOTH",
"522 376 OFFCURVE",
"511 446 OFFCURVE",
"402 446 CURVE SMOOTH",
"341 446 OFFCURVE",
"310 427 OFFCURVE",
"294 401 CURVE",
"294 591 LINE",
"278 591 LINE",
"278 398 LINE",
"262 426 OFFCURVE",
"232 446 OFFCURVE",
"174 446 CURVE SMOOTH",
"55 446 OFFCURVE",
"50 376 OFFCURVE",
"50 315 CURVE SMOOTH",
"50 124 LINE SMOOTH",
"50 62 OFFCURVE",
"55 -7 OFFCURVE",
"170 -7 CURVE SMOOTH",
"231 -7 OFFCURVE",
"262 13 OFFCURVE",
"278 41 CURVE",
"278 -116 LINE"
);
},
{
closed = 1;
nodes = (
"66 9 OFFCURVE",
"66 74 OFFCURVE",
"66 127 CURVE SMOOTH",
"66 312 LINE SMOOTH",
"66 365 OFFCURVE",
"66 430 OFFCURVE",
"174 430 CURVE SMOOTH",
"273 430 OFFCURVE",
"278 365 OFFCURVE",
"278 312 CURVE SMOOTH",
"278 127 LINE SMOOTH",
"278 74 OFFCURVE",
"273 9 OFFCURVE",
"170 9 CURVE SMOOTH"
);
},
{
closed = 1;
nodes = (
"294 9 OFFCURVE",
"294 73 OFFCURVE",
"294 126 CURVE SMOOTH",
"294 313 LINE SMOOTH",
"294 366 OFFCURVE",
"294 430 OFFCURVE",
"402 430 CURVE SMOOTH",
"501 430 OFFCURVE",
"506 365 OFFCURVE",
"506 312 CURVE SMOOTH",
"506 127 LINE SMOOTH",
"506 74 OFFCURVE",
"501 9 OFFCURVE",
"398 9 CURVE SMOOTH"
);
}
);
width = 572;
}
);
note = uni0444;
unicode = 0444;
},
{
color = 6;
glyphname = "che-cy";
lastChange = "2022-04-05 22:44:43 +0000";
layers = (
{
layerId = "5E1A2ACF-25BB-4872-A226-5327BC7330DB";
paths = (
{
closed = 1;
nodes = (
"259 0 LINE",
"259 495 LINE",
"243 495 LINE",
"243 265 LINE",
"238 208 OFFCURVE",
"217 167 OFFCURVE",
"144 167 CURVE SMOOTH",
"64 167 OFFCURVE",
"61 232 OFFCURVE",
"61 291 CURVE SMOOTH",
"61 495 LINE",
"45 495 LINE",
"45 282 LINE SMOOTH",
"45 221 OFFCURVE",
"51 151 OFFCURVE",
"144 151 CURVE SMOOTH",
"207 151 OFFCURVE",
"228 178 OFFCURVE",
"243 209 CURVE",
"243 0 LINE"
);
}
);
width = 309;
}
);
note = uni0447;
unicode = 0447;
},
{
color = 6;
glyphname = "tse-cy";
lastChange = "2022-04-05 22:44:43 +0000";
layers = (
{
layerId = "5E1A2ACF-25BB-4872-A226-5327BC7330DB";
paths = (
{
closed = 1;
nodes = (
"318 -65 LINE",
"318 16 LINE",
"294 16 LINE",
"294 495 LINE",
"278 495 LINE",
"278 16 LINE",
"66 16 LINE",
"66 495 LINE",
"50 495 LINE",
"50 0 LINE",
"303 0 LINE",
"303 -65 LINE"
);
}
);
width = 363;
}
);
leftKerningGroup = uni0431;
note = uni0446;
rightKerningGroup = uni0432;
unicode = 0446;
},
{
color = 6;
glyphname = "sha-cy";
lastChange = "2022-04-05 22:44:43 +0000";
layers = (
{
layerId = "5E1A2ACF-25BB-4872-A226-5327BC7330DB";
paths = (
{
closed = 1;
nodes = (
"458 0 LINE",
"458 495 LINE",
"442 495 LINE",
"442 16 LINE",
"260 16 LINE",
"260 495 LINE",
"244 495 LINE",
"244 16 LINE",
"66 16 LINE",
"66 495 LINE",
"50 495 LINE",
"50 0 LINE"
);
}
);
width = 508;
}
);
leftKerningGroup = uni0431;
note = uni0448;
unicode = 0448;
},
{
color = 6;
glyphname = "shcha-cy";
lastChange = "2022-04-05 22:44:43 +0000";
layers = (
{
layerId = "5E1A2ACF-25BB-4872-A226-5327BC7330DB";
paths = (
{
closed = 1;
nodes = (
"482 -65 LINE",
"482 16 LINE",
"458 16 LINE",
"458 495 LINE",
"442 495 LINE",
"442 16 LINE",
"260 16 LINE",
"260 495 LINE",
"244 495 LINE",
"244 16 LINE",
"66 16 LINE",
"66 495 LINE",
"50 495 LINE",
"50 0 LINE",
"467 0 LINE",
"467 -65 LINE"
);
}
);
width = 527;
}
);
leftKerningGroup = uni0431;
note = uni0449;
rightKerningGroup = uni0432;
unicode = 0449;
},
{
color = 6;
glyphname = "dzhe-cy";
lastChange = "2022-04-05 22:44:43 +0000";
layers = (
{
layerId = "5E1A2ACF-25BB-4872-A226-5327BC7330DB";
paths = (
{
closed = 1;
nodes = (
"291 0 LINE",
"291 495 LINE",
"275 495 LINE",
"275 16 LINE",
"66 16 LINE",
"66 495 LINE",
"50 495 LINE",
"50 0 LINE"
);
},
{
closed = 1;
nodes = (
"180 -113 LINE",
"180 5 LINE",
"164 5 LINE",
"164 -113 LINE"
);
}
);
width = 341;
}
);
leftKerningGroup = uni0431;
note = uni045F;
unicode = 045F;
},
{
color = 6;
glyphname = "softsign-cy";
lastChange = "2022-04-05 22:44:43 +0000";
layers = (
{
layerId = "5E1A2ACF-25BB-4872-A226-5327BC7330DB";
paths = (
{
closed = 1;
nodes = (
"169 0 LINE SMOOTH",
"282 0 OFFCURVE",
"288 69 OFFCURVE",
"288 131 CURVE SMOOTH",
"288 207 LINE SMOOTH",
"288 268 OFFCURVE",
"282 338 OFFCURVE",
"169 338 CURVE SMOOTH",
"60 338 LINE",
"60 495 LINE",
"45 495 LINE",
"45 0 LINE"
);
},
{
closed = 1;
nodes = (
"60 323 LINE",
"165 323 LINE SMOOTH",
"268 323 OFFCURVE",
"273 263 OFFCURVE",
"273 204 CURVE SMOOTH",
"273 134 LINE SMOOTH",
"273 75 OFFCURVE",
"268 15 OFFCURVE",
"165 15 CURVE SMOOTH",
"60 15 LINE"
);
}
);
width = 328;
}
);
leftKerningGroup = uni0431;
note = uni044C;
unicode = 044C;
},
{
color = 6;
glyphname = "hardsign-cy";
lastChange = "2022-04-05 22:44:43 +0000";
layers = (
{
layerId = "5E1A2ACF-25BB-4872-A226-5327BC7330DB";
paths = (
{
closed = 1;
nodes = (
"217 0 LINE SMOOTH",
"330 0 OFFCURVE",
"337 69 OFFCURVE",
"336 131 CURVE SMOOTH",
"336 207 LINE SMOOTH",
"335 268 OFFCURVE",
"330 338 OFFCURVE",
"217 338 CURVE SMOOTH",
"108 338 LINE",
"108 495 LINE",
"93 495 LINE",
"93 0 LINE"
);
},
{
closed = 1;
nodes = (
"108 323 LINE",
"213 323 LINE SMOOTH",
"316 323 OFFCURVE",
"321 263 OFFCURVE",
"321 204 CURVE SMOOTH",
"321 134 LINE SMOOTH",
"321 75 OFFCURVE",
"316 15 OFFCURVE",
"213 15 CURVE SMOOTH",
"108 15 LINE"
);
},
{
closed = 1;
nodes = (
"105 479 LINE",
"105 495 LINE",
"5 495 LINE",
"5 479 LINE"
);
}
);
width = 376;
}
);
leftKerningGroup = uni0431;
note = uni044A;
unicode = 044A;
},
{
color = 6;
glyphname = "lje-cy";
lastChange = "2022-04-05 05:03:40 +0000";
layers = (
{
layerId = "5E1A2ACF-25BB-4872-A226-5327BC7330DB";
paths = (
{
closed = 1;
nodes = (
"60 0 OFFCURVE",
"64 66 OFFCURVE",
"66 92 CURVE SMOOTH",
"99 479 LINE",
"253 479 LINE",
"246 495 LINE",
"85 495 LINE",
"50 92 LINE SMOOTH",
"45 36 OFFCURVE",
"32 15 OFFCURVE",
"5 15 CURVE",
"5 0 LINE"
);
},
{
closed = 1;
nodes = (
"266 323 LINE",
"371 323 LINE SMOOTH",
"474 323 OFFCURVE",
"479 263 OFFCURVE",
"479 204 CURVE SMOOTH",
"479 134 LINE SMOOTH",
"479 75 OFFCURVE",
"474 15 OFFCURVE",
"371 15 CURVE SMOOTH",
"266 15 LINE"
);
},
{
closed = 1;
nodes = (
"375 0 LINE SMOOTH",
"488 0 OFFCURVE",
"494 69 OFFCURVE",
"494 131 CURVE SMOOTH",
"494 207 LINE SMOOTH",
"494 268 OFFCURVE",
"488 338 OFFCURVE",
"375 338 CURVE SMOOTH",
"266 338 LINE",
"266 495 LINE",
"251 495 LINE",
"251 0 LINE"
);
},
{
closed = 1;
nodes = (
"263 479 LINE",
"263 495 LINE",
"163 495 LINE",
"163 479 LINE"
);
}
);
width = 529;
}
);
leftKerningGroup = uni043B;
note = uni0459;
unicode = 0459;
},
{
color = 6;
glyphname = "nje-cy";
lastChange = "2022-04-05 22:44:43 +0000";
layers = (
{
layerId = "5E1A2ACF-25BB-4872-A226-5327BC7330DB";
paths = (
{
closed = 1;
nodes = (
"275 0 LINE SMOOTH",
"388 0 OFFCURVE",
"394 69 OFFCURVE",
"394 131 CURVE SMOOTH",
"394 207 LINE SMOOTH",
"394 268 OFFCURVE",
"388 338 OFFCURVE",
"275 338 CURVE SMOOTH",
"166 338 LINE",
"166 495 LINE",
"151 495 LINE",
"151 0 LINE"
);
},
{
closed = 1;
nodes = (
"66 0 LINE",
"66 495 LINE",
"50 495 LINE",
"50 0 LINE"
);
},
{
closed = 1;
nodes = (
"159 243 LINE",
"159 259 LINE",
"57 259 LINE",
"57 243 LINE"
);
},
{
closed = 1;
nodes = (
"166 323 LINE",
"271 323 LINE SMOOTH",
"374 323 OFFCURVE",
"379 263 OFFCURVE",
"379 204 CURVE SMOOTH",
"379 134 LINE SMOOTH",
"379 75 OFFCURVE",
"374 15 OFFCURVE",
"271 15 CURVE SMOOTH",
"166 15 LINE"
);
}
);
width = 434;
}
);
leftKerningGroup = uni0431;
note = uni045A;
unicode = 045A;
},
{
color = 6;
glyphname = "e-cy";
lastChange = "2022-04-05 22:44:43 +0000";
layers = (
{
layerId = "5E1A2ACF-25BB-4872-A226-5327BC7330DB";
paths = (
{
closed = 1;
nodes = (
"288 -7 OFFCURVE",
"294 62 OFFCURVE",
"294 124 CURVE SMOOTH",
"294 167 LINE",
"278 167 LINE",
"278 127 LINE SMOOTH",
"278 68 OFFCURVE",
"273 9 OFFCURVE",
"175 9 CURVE SMOOTH",
"71 9 OFFCURVE",
"66 68 OFFCURVE",
"66 127 CURVE SMOOTH",
"66 242 LINE",
"227 242 LINE",
"227 258 LINE",
"66 258 LINE",
"66 369 LINE SMOOTH",
"66 428 OFFCURVE",
"71 487 OFFCURVE",
"175 487 CURVE SMOOTH",
"273 487 OFFCURVE",
"278 428 OFFCURVE",
"278 369 CURVE SMOOTH",
"278 328 LINE",
"294 328 LINE",
"294 372 LINE SMOOTH",
"294 433 OFFCURVE",
"288 503 OFFCURVE",
"175 503 CURVE SMOOTH",
"56 503 OFFCURVE",
"50 433 OFFCURVE",
"50 372 CURVE SMOOTH",
"50 124 LINE SMOOTH",
"50 62 OFFCURVE",
"56 -7 OFFCURVE",
"175 -7 CURVE SMOOTH"
);
}
);
width = 339;
}
);
leftKerningGroup = uni0431;
note = uni0454;
unicode = 0454;
},
{
color = 6;
glyphname = "ereversed-cy";
lastChange = "2022-04-05 22:44:43 +0000";
layers = (
{
layerId = "5E1A2ACF-25BB-4872-A226-5327BC7330DB";
paths = (
{
closed = 1;
nodes = (
"283 -7 OFFCURVE",
"289 62 OFFCURVE",
"289 124 CURVE SMOOTH",
"289 372 LINE SMOOTH",
"289 433 OFFCURVE",
"283 503 OFFCURVE",
"164 503 CURVE SMOOTH",
"51 503 OFFCURVE",
"45 433 OFFCURVE",
"45 372 CURVE SMOOTH",
"45 328 LINE",
"61 328 LINE",
"61 369 LINE SMOOTH",
"61 428 OFFCURVE",
"66 487 OFFCURVE",
"164 487 CURVE SMOOTH",
"268 487 OFFCURVE",
"273 428 OFFCURVE",
"273 369 CURVE SMOOTH",
"273 258 LINE",
"112 258 LINE",
"112 242 LINE",
"273 242 LINE",
"273 127 LINE SMOOTH",
"273 68 OFFCURVE",
"268 9 OFFCURVE",
"164 9 CURVE SMOOTH",
"66 9 OFFCURVE",
"61 68 OFFCURVE",
"61 127 CURVE SMOOTH",
"61 167 LINE",
"45 167 LINE",
"45 124 LINE SMOOTH",
"45 62 OFFCURVE",
"51 -7 OFFCURVE",
"164 -7 CURVE SMOOTH"
);
}
);
width = 339;
}
);
note = uni044D;
unicode = 044D;
},
{
color = 6;
glyphname = "tshe-cy";
lastChange = "2022-04-05 22:44:43 +0000";
layers = (
{
layerId = "5E1A2ACF-25BB-4872-A226-5327BC7330DB";
paths = (
{
closed = 1;
nodes = (
"82 0 LINE",
"82 323 LINE",
"87 380 OFFCURVE",
"118 421 OFFCURVE",
"191 421 CURVE SMOOTH",
"291 421 OFFCURVE",
"294 356 OFFCURVE",
"294 297 CURVE SMOOTH",
"294 0 LINE",
"310 0 LINE",
"310 306 LINE SMOOTH",
"310 367 OFFCURVE",
"304 437 OFFCURVE",
"191 437 CURVE SMOOTH",
"128 437 OFFCURVE",
"97 410 OFFCURVE",
"82 379 CURVE",
"82 532 LINE",
"198 532 LINE",
"198 548 LINE",
"15 548 LINE",
"15 532 LINE",
"66 532 LINE",
"66 0 LINE"
);
},
{
closed = 1;
nodes = (
"82 535 LINE",
"82 630 LINE",
"66 630 LINE",
"66 535 LINE"
);
}
);
width = 350;
}
);
leftKerningGroup = uni0431;
note = uni045B;
unicode = 045B;
},
{
color = 6;
glyphname = "iu-cy";
lastChange = "2022-04-05 22:44:43 +0000";
layers = (
{
layerId = "5E1A2ACF-25BB-4872-A226-5327BC7330DB";
paths = (
{
closed = 1;
nodes = (
"410 -12 OFFCURVE",
"472 2 OFFCURVE",
"472 118 CURVE SMOOTH",
"472 376 LINE SMOOTH",
"472 490 OFFCURVE",
"409 506 OFFCURVE",
"346 506 CURVE SMOOTH",
"283 506 OFFCURVE",
"219 492 OFFCURVE",
"219 376 CURVE SMOOTH",
"219 118 LINE SMOOTH",
"219 4 OFFCURVE",
"282 -12 OFFCURVE",
"344 -12 CURVE SMOOTH"
);
},
{
closed = 1;
nodes = (
"56 0 LINE",
"56 242 LINE",
"228 242 LINE",
"228 258 LINE",
"56 258 LINE",
"56 498 LINE",
"40 498 LINE",
"40 0 LINE"
);
},
{
closed = 1;
nodes = (
"290 4 OFFCURVE",
"235 17 OFFCURVE",
"235 121 CURVE SMOOTH",
"235 373 LINE SMOOTH",
"235 477 OFFCURVE",
"290 490 OFFCURVE",
"345 490 CURVE SMOOTH",
"399 490 OFFCURVE",
"456 477 OFFCURVE",
"456 373 CURVE SMOOTH",
"456 121 LINE SMOOTH",
"456 17 OFFCURVE",
"401 4 OFFCURVE",
"345 4 CURVE SMOOTH"
);
}
);
width = 522;
}
);
leftKerningGroup = uni0431;
note = uni044E;
unicode = 044E;
},
{
color = 6;
glyphname = "ia-cy";
lastChange = "2022-04-05 22:44:43 +0000";
layers = (
{
layerId = "5E1A2ACF-25BB-4872-A226-5327BC7330DB";
paths = (
{
closed = 1;
nodes = (
"47 0 LINE",
"85 104 LINE SMOOTH",
"104 155 OFFCURVE",
"127 238 OFFCURVE",
"176 238 CURVE SMOOTH",
"271 238 LINE",
"271 0 LINE",
"287 0 LINE",
"287 495 LINE",
"154 495 LINE SMOOTH",
"97 495 OFFCURVE",
"48 470 OFFCURVE",
"48 398 CURVE SMOOTH",
"48 362 LINE SMOOTH",
"48 279 OFFCURVE",
"82 253 OFFCURVE",
"148 244 CURVE",
"112 237 OFFCURVE",
"87 160 OFFCURVE",
"76 128 CURVE SMOOTH",
"30 0 LINE"
);
},
{
closed = 1;
nodes = (
"107 254 OFFCURVE",
"64 282 OFFCURVE",
"64 360 CURVE SMOOTH",
"64 395 LINE SMOOTH",
"64 452 OFFCURVE",
"105 479 OFFCURVE",
"150 479 CURVE SMOOTH",
"271 479 LINE",
"271 254 LINE",
"183 254 LINE SMOOTH"
);
}
);
width = 357;
}
);
leftKerningGroup = uni043B;
note = uni044F;
unicode = 044F;
},
{
color = 6;
glyphname = "dje-cy";
lastChange = "2022-04-05 22:44:43 +0000";
layers = (
{
layerId = "5E1A2ACF-25BB-4872-A226-5327BC7330DB";
paths = (
{
closed = 1;
nodes = (
"292 -101 OFFCURVE",
"310 -56 OFFCURVE",
"310 45 CURVE SMOOTH",
"310 306 LINE SMOOTH",
"310 367 OFFCURVE",
"304 437 OFFCURVE",
"191 437 CURVE SMOOTH",
"128 437 OFFCURVE",
"97 410 OFFCURVE",
"82 379 CURVE",
"82 532 LINE",
"198 532 LINE",
"198 548 LINE",
"15 548 LINE",
"15 532 LINE",
"66 532 LINE",
"66 0 LINE",
"82 0 LINE",
"82 323 LINE",
"87 380 OFFCURVE",
"118 421 OFFCURVE",
"191 421 CURVE SMOOTH",
"291 421 OFFCURVE",
"294 356 OFFCURVE",
"294 297 CURVE SMOOTH",
"294 41 LINE SMOOTH",
"294 -46 OFFCURVE",
"275 -85 OFFCURVE",
"174 -85 CURVE",
"174 -101 LINE"
);
},
{
closed = 1;
nodes = (
"82 535 LINE",
"82 630 LINE",
"66 630 LINE",
"66 535 LINE"
);
}
);
width = 360;
}
);
leftKerningGroup = uni0431;
note = uni0452;
unicode = 0452;
},
{
glyphname = "yat-cy";
lastChange = "2021-12-09 03:35:29 +0000";
layers = (
{
associatedMasterId = "5E1A2ACF-25BB-4872-A226-5327BC7330DB";
background = {
components = (
{
name = hyphen;
transform = "{1.49953, 0, 0, 0.66803, -40, 220}";
}
);
paths = (
{
closed = 1;
nodes = (
"272 0 LINE SMOOTH",
"348 0 OFFCURVE",
"408 10 OFFCURVE",
"408 161 CURVE SMOOTH",
"408 228 LINE SMOOTH",
"408 327 OFFCURVE",
"346 340 OFFCURVE",
"297 340 CURVE SMOOTH",
"218 340 LINE",
"218 495 LINE",
"62 495 LINE",
"62 0 LINE"
);
},
{
closed = 1;
nodes = (
"218 245 LINE",
"235 245 LINE SMOOTH",
"251 245 OFFCURVE",
"252 238 OFFCURVE",
"252 206 CURVE SMOOTH",
"252 110 LINE SMOOTH",
"252 87 OFFCURVE",
"250 79 OFFCURVE",
"235 79 CURVE SMOOTH",
"218 79 LINE"
);
}
);
};
components = (
{
name = hyphen;
transform = "{1.49953, 0, 0, 0.66803, -40, 220}";
}
);
layerId = "8A3706BD-364F-4FE3-9C2E-7E87DF0DB4CC";
name = Black;
paths = (
{
closed = 1;
nodes = (
"272 0 LINE SMOOTH",
"348 0 OFFCURVE",
"408 10 OFFCURVE",
"408 161 CURVE SMOOTH",
"408 228 LINE SMOOTH",
"408 327 OFFCURVE",
"346 340 OFFCURVE",
"297 340 CURVE SMOOTH",
"218 340 LINE",
"218 495 LINE",
"62 495 LINE",
"62 0 LINE"
);
},
{
closed = 1;
nodes = (
"218 245 LINE",
"235 245 LINE SMOOTH",
"251 245 OFFCURVE",
"252 238 OFFCURVE",
"252 206 CURVE SMOOTH",
"252 110 LINE SMOOTH",
"252 87 OFFCURVE",
"250 79 OFFCURVE",
"235 79 CURVE SMOOTH",
"218 79 LINE"
);
}
);
width = 433;
},
{
components = (
{
name = "softsign-cy";
},
{
alignment = -1;
name = hyphen;
transform = "{1.01469, 0, 0, 0.99024, -39, 159}";
}
);
layerId = "5E1A2ACF-25BB-4872-A226-5327BC7330DB";
width = 337;
}
);
unicode = 0463;
},
{
glyphname = "yusbig-cy";
lastChange = "2022-04-05 22:57:56 +0000";
layers = (
{
associatedMasterId = "5E1A2ACF-25BB-4872-A226-5327BC7330DB";
background = {
paths = (
{
closed = 1;
nodes = (
"168 0 LINE",
"200 193 LINE SMOOTH",
"202 201 OFFCURVE",
"203 210 OFFCURVE",
"204 219 CURVE SMOOTH",
"209 250 LINE",
"210 0 LINE",
"350 0 LINE",
"350 251 LINE",
"358 209 LINE",
"358 202 OFFCURVE",
"360 194 OFFCURVE",
"361 188 CURVE SMOOTH",
"392 0 LINE",
"540 0 LINE",
"494 212 LINE",
"478 255 OFFCURVE",
"453 279 OFFCURVE",
"430 281 CURVE SMOOTH",
"385 284 LINE",
"533 405 LINE",
"533 495 LINE",
"22 495 LINE",
"22 405 LINE",
"170 283 LINE",
"130 281 LINE SMOOTH",
"107 279 OFFCURVE",
"82 255 OFFCURVE",
"66 212 CURVE",
"20 0 LINE"
);
},
{
closed = 1;
nodes = (
"174 405 LINE",
"380 405 LINE",
"277 331 LINE"
);
}
);
};
layerId = "8A3706BD-364F-4FE3-9C2E-7E87DF0DB4CC";
name = Black;
paths = (
{
closed = 1;
nodes = (
"168 0 LINE",
"200 193 LINE SMOOTH",
"202 201 OFFCURVE",
"203 210 OFFCURVE",
"204 219 CURVE SMOOTH",
"209 250 LINE",
"210 0 LINE",
"350 0 LINE",
"350 251 LINE",
"358 209 LINE",
"358 202 OFFCURVE",
"360 194 OFFCURVE",
"361 188 CURVE SMOOTH",
"392 0 LINE",
"540 0 LINE",
"494 212 LINE",
"478 255 OFFCURVE",
"453 279 OFFCURVE",
"430 281 CURVE SMOOTH",
"385 284 LINE",
"533 405 LINE",
"533 495 LINE",
"22 495 LINE",
"22 405 LINE",
"170 283 LINE",
"130 281 LINE SMOOTH",
"107 279 OFFCURVE",
"82 255 OFFCURVE",
"66 212 CURVE",
"20 0 LINE"
);
},
{
closed = 1;
nodes = (
"174 405 LINE",
"380 405 LINE",
"277 331 LINE"
);
}
);
width = 661;
},
{
layerId = "5E1A2ACF-25BB-4872-A226-5327BC7330DB";
paths = (
{
closed = 1;
nodes = (
"51 0 LINE",
"107 187 LINE SMOOTH",
"117 221 OFFCURVE",
"133 259 OFFCURVE",
"175 259 CURVE SMOOTH",
"364 259 LINE SMOOTH",
"406 258 OFFCURVE",
"423 221 OFFCURVE",
"433 187 CURVE SMOOTH",
"488 0 LINE",
"505 0 LINE",
"449 189 LINE SMOOTH",
"437 230 OFFCURVE",
"426 272 OFFCURVE",
"366 272 CURVE SMOOTH",
"293 272 LINE",
"523 479 LINE",
"523 495 LINE",
"15 495 LINE",
"15 479 LINE",
"244 272 LINE",
"170 272 LINE SMOOTH",
"117 272 OFFCURVE",
"102 230 OFFCURVE",
"90 189 CURVE SMOOTH",
"34 0 LINE"
);
},
{
closed = 1;
nodes = (
"279 0 LINE",
"279 591 LINE",
"263 591 LINE",
"263 0 LINE"
);
},
{
closed = 1;
nodes = (
"38 479 LINE",
"499 479 LINE",
"270 272 LINE"
);
}
);
width = 538;
}
);
unicode = 046B;
},
{
color = 6;
glyphname = Omega;
lastChange = "2022-04-05 22:44:43 +0000";
layers = (
{
background = {
paths = (
{
closed = 1;
nodes = (
"50 0 LINE",
"257 0 LINE",
"257 11 LINE",
"111 114 OFFCURVE",
"94 226 OFFCURVE",
"94 322 CURVE SMOOTH",
"94 453 OFFCURVE",
"169 548 OFFCURVE",
"299 548 CURVE SMOOTH",
"440 548 OFFCURVE",
"503 454 OFFCURVE",
"503 347 CURVE SMOOTH",
"503 227 OFFCURVE",
"488 118 OFFCURVE",
"339 11 CURVE",
"339 0 LINE",
"548 0 LINE",
"548 16 LINE",
"371 16 LINE",
"512 133 OFFCURVE",
"519 234 OFFCURVE",
"519 337 CURVE SMOOTH",
"519 465 OFFCURVE",
"447 564 OFFCURVE",
"299 564 CURVE SMOOTH",
"160 564 OFFCURVE",
"78 466 OFFCURVE",
"78 331 CURVE SMOOTH",
"78 231 OFFCURVE",
"88 134 OFFCURVE",
"226 16 CURVE",
"50 16 LINE"
);
}
);
};
layerId = "5E1A2ACF-25BB-4872-A226-5327BC7330DB";
paths = (
{
closed = 1;
nodes = (
"257 0 LINE",
"262 15 LINE",
"162 85 OFFCURVE",
"93 151 OFFCURVE",
"93 310 CURVE SMOOTH",
"93 474 OFFCURVE",
"158 549 OFFCURVE",
"298 549 CURVE SMOOTH",
"431 549 OFFCURVE",
"503 468 OFFCURVE",
"503 319 CURVE SMOOTH",
"503 185 OFFCURVE",
"449 88 OFFCURVE",
"334 15 CURVE",
"338 0 LINE",
"566 0 LINE",
"566 16 LINE",
"364 16 LINE",
"469 91 OFFCURVE",
"519 188 OFFCURVE",
"519 319 CURVE SMOOTH",
"519 476 OFFCURVE",
"440 565 OFFCURVE",
"298 565 CURVE SMOOTH",
"149 565 OFFCURVE",
"77 482 OFFCURVE",
"77 310 CURVE SMOOTH",
"77 155 OFFCURVE",
"142 83 OFFCURVE",
"232 16 CURVE",
"50 16 LINE",
"50 0 LINE"
);
}
);
width = 616;
}
);
note = uni03A9;
unicode = 03A9;
},
{
color = 6;
glyphname = pi;
lastChange = "2022-04-05 22:44:43 +0000";
layers = (
{
layerId = "5E1A2ACF-25BB-4872-A226-5327BC7330DB";
paths = (
{
closed = 1;
nodes = (
"126 0 LINE",
"161 168 OFFCURVE",
"192 344 OFFCURVE",
"192 478 CURVE",
"400 478 LINE",
"400 0 LINE",
"416 0 LINE",
"416 478 LINE",
"501 478 LINE",
"501 495 LINE",
"209 495 LINE SMOOTH",
"115 495 OFFCURVE",
"78 485 OFFCURVE",
"40 469 CURVE",
"40 452 LINE",
"81 468 OFFCURVE",
"119 476 OFFCURVE",
"176 479 CURVE",
"176 321 OFFCURVE",
"134 112 OFFCURVE",
"110 0 CURVE"
);
}
);
width = 541;
}
);
note = pi;
unicode = 03C0;
},
{
color = 6;
glyphname = zero;
lastChange = "2022-04-05 22:44:43 +0000";
layers = (
{
layerId = "5E1A2ACF-25BB-4872-A226-5327BC7330DB";
paths = (
{
closed = 1;
nodes = (
"274 -12 OFFCURVE",
"337 41 OFFCURVE",
"337 158 CURVE SMOOTH",
"337 428 LINE SMOOTH",
"337 544 OFFCURVE",
"274 599 OFFCURVE",
"197 599 CURVE SMOOTH",
"121 599 OFFCURVE",
"55 546 OFFCURVE",
"55 428 CURVE SMOOTH",
"55 158 LINE SMOOTH",
"55 41 OFFCURVE",
"119 -12 OFFCURVE",
"195 -12 CURVE SMOOTH"
);
},
{
closed = 1;
nodes = (
"124 4 OFFCURVE",
"71 63 OFFCURVE",
"71 161 CURVE SMOOTH",
"71 426 LINE SMOOTH",
"71 524 OFFCURVE",
"124 583 OFFCURVE",
"196 583 CURVE SMOOTH",
"268 583 OFFCURVE",
"321 524 OFFCURVE",
"321 426 CURVE SMOOTH",
"321 161 LINE SMOOTH",
"321 63 OFFCURVE",
"269 4 OFFCURVE",
"196 4 CURVE SMOOTH"
);
}
);
width = 392;
}
);
leftKerningGroup = zero;
note = zero;
rightKerningGroup = zero;
unicode = 0030;
},
{
color = 6;
glyphname = one;
lastChange = "2022-04-05 22:44:43 +0000";
layers = (
{
layerId = "5E1A2ACF-25BB-4872-A226-5327BC7330DB";
paths = (
{
closed = 1;
nodes = (
"131 0 LINE",
"131 591 LINE",
"116 591 LINE",
"116 552 LINE SMOOTH",
"116 528 OFFCURVE",
"105 511 OFFCURVE",
"77 511 CURVE SMOOTH",
"30 511 LINE",
"30 495 LINE",
"115 495 LINE",
"115 0 LINE"
);
}
);
width = 201;
}
);
leftKerningGroup = one;
note = one;
rightKerningGroup = one;
unicode = 0031;
},
{
color = 6;
glyphname = two;
lastChange = "2022-04-05 22:44:43 +0000";
layers = (
{
layerId = "5E1A2ACF-25BB-4872-A226-5327BC7330DB";
paths = (
{
closed = 1;
nodes = (
"336 0 LINE",
"336 16 LINE",
"82 16 LINE",
"82 105 LINE SMOOTH",
"82 184 OFFCURVE",
"136 215 OFFCURVE",
"204 254 CURVE SMOOTH",
"284 300 OFFCURVE",
"330 358 OFFCURVE",
"330 450 CURVE SMOOTH",
"330 545 OFFCURVE",
"287 595 OFFCURVE",
"194 595 CURVE SMOOTH",
"110 595 OFFCURVE",
"60 551 OFFCURVE",
"60 458 CURVE SMOOTH",
"60 409 LINE",
"76 409 LINE",
"76 462 LINE SMOOTH",
"76 543 OFFCURVE",
"124 578 OFFCURVE",
"194 578 CURVE SMOOTH",
"277 578 OFFCURVE",
"314 538 OFFCURVE",
"314 454 CURVE SMOOTH",
"314 440 LINE SMOOTH",
"314 355 OFFCURVE",
"261 307 OFFCURVE",
"193 266 CURVE SMOOTH",
"126 226 OFFCURVE",
"64 195 OFFCURVE",
"64 105 CURVE SMOOTH",
"64 0 LINE"
);
}
);
width = 386;
}
);
leftKerningGroup = two;
note = two;
rightKerningGroup = two;
unicode = 0032;
},
{
color = 6;
glyphname = three;
lastChange = "2022-04-05 22:44:43 +0000";
layers = (
{
layerId = "5E1A2ACF-25BB-4872-A226-5327BC7330DB";
paths = (
{
closed = 1;
nodes = (
"278 -8 OFFCURVE",
"332 41 OFFCURVE",
"332 137 CURVE SMOOTH",
"332 163 LINE SMOOTH",
"332 232 OFFCURVE",
"301 298 OFFCURVE",
"221 309 CURVE",
"285 321 OFFCURVE",
"326 373 OFFCURVE",
"326 442 CURVE SMOOTH",
"326 460 LINE SMOOTH",
"326 543 OFFCURVE",
"280 595 OFFCURVE",
"191 595 CURVE SMOOTH",
"102 595 OFFCURVE",
"56 543 OFFCURVE",
"56 460 CURVE SMOOTH",
"56 429 LINE",
"72 429 LINE",
"72 459 LINE SMOOTH",
"72 534 OFFCURVE",
"107 579 OFFCURVE",
"191 579 CURVE SMOOTH",
"275 579 OFFCURVE",
"309 534 OFFCURVE",
"309 459 CURVE SMOOTH",
"309 440 LINE SMOOTH",
"309 370 OFFCURVE",
"263 317 OFFCURVE",
"191 317 CURVE SMOOTH",
"127 317 LINE",
"127 301 LINE",
"191 301 LINE SMOOTH",
"274 301 OFFCURVE",
"316 247 OFFCURVE",
"316 163 CURVE SMOOTH",
"316 137 LINE SMOOTH",
"316 51 OFFCURVE",
"276 9 OFFCURVE",
"191 7 CURVE SMOOTH",
"109 9 OFFCURVE",
"66 48 OFFCURVE",
"66 137 CURVE SMOOTH",
"66 183 LINE",
"50 183 LINE",
"50 137 LINE SMOOTH",
"50 44 OFFCURVE",
"101 -8 OFFCURVE",
"191 -8 CURVE SMOOTH"
);
}
);
width = 383;
}
);
leftKerningGroup = three;
note = three;
rightKerningGroup = three;
unicode = 0033;
},
{
color = 6;
glyphname = four;
lastChange = "2022-04-05 22:44:43 +0000";
layers = (
{
background = {
paths = (
{
closed = 1;
nodes = (
"258 0 LINE",
"258 124 LINE",
"310 124 LINE",
"310 135 LINE",
"258 135 LINE",
"258 591 LINE",
"250 591 LINE",
"20 134 LINE",
"20 124 LINE",
"246 124 LINE",
"246 0 LINE"
);
},
{
closed = 1;
nodes = (
"246 559 LINE",
"246 135 LINE",
"33 135 LINE"
);
}
);
};
layerId = "5E1A2ACF-25BB-4872-A226-5327BC7330DB";
paths = (
{
closed = 1;
nodes = (
"277 0 LINE",
"277 119 LINE",
"329 119 LINE",
"329 135 LINE",
"277 135 LINE",
"277 591 LINE",
"264 591 LINE",
"35 134 LINE",
"35 119 LINE",
"261 119 LINE",
"261 0 LINE"
);
},
{
closed = 1;
nodes = (
"261 549 LINE",
"261 135 LINE",
"53 135 LINE"
);
}
);
width = 364;
}
);
leftKerningGroup = four;
note = four;
rightKerningGroup = parenright;
unicode = 0034;
},
{
color = 6;
glyphname = five;
lastChange = "2022-04-05 22:44:43 +0000";
layers = (
{
layerId = "5E1A2ACF-25BB-4872-A226-5327BC7330DB";
paths = (
{
closed = 1;
nodes = (
"263 -8 OFFCURVE",
"340 19 OFFCURVE",
"340 163 CURVE SMOOTH",
"340 241 LINE SMOOTH",
"340 360 OFFCURVE",
"281 392 OFFCURVE",
"195 392 CURVE SMOOTH",
"139 392 OFFCURVE",
"92 371 OFFCURVE",
"69 332 CURVE",
"73 326 LINE",
"73 575 LINE",
"315 575 LINE",
"315 591 LINE",
"58 591 LINE",
"58 296 LINE",
"73 296 LINE",
"76 332 OFFCURVE",
"118 376 OFFCURVE",
"195 376 CURVE SMOOTH",
"300 376 OFFCURVE",
"324 317 OFFCURVE",
"324 242 CURVE SMOOTH",
"324 160 LINE SMOOTH",
"324 56 OFFCURVE",
"272 4 OFFCURVE",
"192 4 CURVE SMOOTH",
"73 4 OFFCURVE",
"66 94 OFFCURVE",
"66 154 CURVE SMOOTH",
"66 168 LINE",
"50 168 LINE",
"50 151 LINE SMOOTH",
"50 0 OFFCURVE",
"136 -8 OFFCURVE",
"191 -8 CURVE SMOOTH"
);
}
);
width = 390;
}
);
leftKerningGroup = five;
note = five;
rightKerningGroup = five;
unicode = 0035;
},
{
color = 6;
glyphname = six;
lastChange = "2022-04-05 22:57:56 +0000";
layers = (
{
layerId = "5E1A2ACF-25BB-4872-A226-5327BC7330DB";
paths = (
{
closed = 1;
nodes = (
"276 -9 OFFCURVE",
"353 13 OFFCURVE",
"353 158 CURVE SMOOTH",
"353 205 LINE SMOOTH",
"353 322 OFFCURVE",
"296 355 OFFCURVE",
"214 355 CURVE SMOOTH",
"146 355 OFFCURVE",
"104 326 OFFCURVE",
"72 288 CURVE",
"72 454 LINE SMOOTH",
"72 525 OFFCURVE",
"121 577 OFFCURVE",
"201 577 CURVE SMOOTH",
"276 577 OFFCURVE",
"320 540 OFFCURVE",
"320 460 CURVE SMOOTH",
"320 449 LINE",
"336 449 LINE",
"336 456 LINE SMOOTH",
"336 549 OFFCURVE",
"288 593 OFFCURVE",
"201 593 CURVE SMOOTH",
"116 593 OFFCURVE",
"55 538 OFFCURVE",
"55 450 CURVE SMOOTH",
"55 149 LINE SMOOTH",
"55 -6 OFFCURVE",
"150 -9 OFFCURVE",
"203 -9 CURVE SMOOTH"
);
},
{
closed = 1;
nodes = (
"82 7 OFFCURVE",
"71 92 OFFCURVE",
"71 152 CURVE SMOOTH",
"71 234 LINE SMOOTH",
"71 279 OFFCURVE",
"133 339 OFFCURVE",
"214 339 CURVE SMOOTH",
"315 339 OFFCURVE",
"337 270 OFFCURVE",
"337 190 CURVE SMOOTH",
"337 158 LINE SMOOTH",
"337 54 OFFCURVE",
"286 7 OFFCURVE",
"203 7 CURVE SMOOTH"
);
}
);
width = 408;
}
);
leftKerningGroup = six;
note = six;
rightKerningGroup = six;
unicode = 0036;
},
{
color = 6;
glyphname = seven;
lastChange = "2022-04-05 05:16:08 +0000";
layers = (
{
layerId = "5E1A2ACF-25BB-4872-A226-5327BC7330DB";
paths = (
{
closed = 1;
nodes = (
"74 0 LINE",
"243 576 LINE",
"243 591 LINE",
"10 591 LINE",
"10 575 LINE",
"226 575 LINE",
"57 0 LINE"
);
}
);
width = 273;
}
);
leftKerningGroup = seven;
note = seven;
rightKerningGroup = seven;
unicode = 0037;
},
{
color = 6;
glyphname = eight;
lastChange = "2022-04-05 22:44:43 +0000";
layers = (
{
layerId = "5E1A2ACF-25BB-4872-A226-5327BC7330DB";
paths = (
{
closed = 1;
nodes = (
"283 -8 OFFCURVE",
"337 41 OFFCURVE",
"337 137 CURVE SMOOTH",
"337 163 LINE SMOOTH",
"337 232 OFFCURVE",
"309 298 OFFCURVE",
"226 309 CURVE",
"290 321 OFFCURVE",
"331 373 OFFCURVE",
"331 442 CURVE SMOOTH",
"331 460 LINE SMOOTH",
"331 543 OFFCURVE",
"285 595 OFFCURVE",
"196 595 CURVE SMOOTH",
"107 595 OFFCURVE",
"61 543 OFFCURVE",
"61 460 CURVE SMOOTH",
"61 442 LINE SMOOTH",
"61 373 OFFCURVE",
"102 321 OFFCURVE",
"166 309 CURVE",
"83 298 OFFCURVE",
"55 232 OFFCURVE",
"55 163 CURVE SMOOTH",
"55 137 LINE SMOOTH",
"55 44 OFFCURVE",
"106 -8 OFFCURVE",
"196 -8 CURVE SMOOTH"
);
},
{
closed = 1;
nodes = (
"117 10 OFFCURVE",
"71 54 OFFCURVE",
"71 137 CURVE SMOOTH",
"71 163 LINE SMOOTH",
"71 245 OFFCURVE",
"120 300 OFFCURVE",
"196 300 CURVE SMOOTH",
"273 300 OFFCURVE",
"321 245 OFFCURVE",
"321 163 CURVE SMOOTH",
"321 137 LINE SMOOTH",
"321 57 OFFCURVE",
"278 10 OFFCURVE",
"196 8 CURVE SMOOTH"
);
},
{
closed = 1;
nodes = (
"131 318 OFFCURVE",
"77 372 OFFCURVE",
"77 440 CURVE SMOOTH",
"77 459 LINE SMOOTH",
"77 530 OFFCURVE",
"114 579 OFFCURVE",
"196 579 CURVE SMOOTH",
"278 579 OFFCURVE",
"315 530 OFFCURVE",
"315 459 CURVE SMOOTH",
"315 440 LINE SMOOTH",
"315 372 OFFCURVE",
"262 318 OFFCURVE",
"196 318 CURVE SMOOTH"
);
}
);
width = 392;
}
);
leftKerningGroup = eight;
note = eight;
rightKerningGroup = eight;
unicode = 0038;
},
{
color = 6;
glyphname = nine;
lastChange = "2022-04-05 22:44:43 +0000";
layers = (
{
guideLines = (
{
position = "{-31, -8}";
}
);
layerId = "5E1A2ACF-25BB-4872-A226-5327BC7330DB";
paths = (
{
closed = 1;
nodes = (
"292 -9 OFFCURVE",
"353 46 OFFCURVE",
"353 134 CURVE SMOOTH",
"353 435 LINE SMOOTH",
"353 586 OFFCURVE",
"258 593 OFFCURVE",
"205 593 CURVE SMOOTH",
"132 593 OFFCURVE",
"55 571 OFFCURVE",
"55 426 CURVE SMOOTH",
"55 379 LINE SMOOTH",
"55 266 OFFCURVE",
"112 229 OFFCURVE",
"194 229 CURVE SMOOTH",
"262 229 OFFCURVE",
"304 258 OFFCURVE",
"336 296 CURVE",
"336 130 LINE SMOOTH",
"336 59 OFFCURVE",
"287 7 OFFCURVE",
"207 7 CURVE SMOOTH",
"132 7 OFFCURVE",
"88 44 OFFCURVE",
"88 124 CURVE SMOOTH",
"88 135 LINE",
"72 135 LINE",
"72 128 LINE SMOOTH",
"72 35 OFFCURVE",
"120 -9 OFFCURVE",
"207 -9 CURVE SMOOTH"
);
},
{
closed = 1;
nodes = (
"93 245 OFFCURVE",
"71 314 OFFCURVE",
"71 394 CURVE SMOOTH",
"71 426 LINE SMOOTH",
"71 530 OFFCURVE",
"118 577 OFFCURVE",
"205 577 CURVE SMOOTH",
"326 577 OFFCURVE",
"337 492 OFFCURVE",
"337 432 CURVE SMOOTH",
"337 327 LINE",
"324 301 OFFCURVE",
"275 245 OFFCURVE",
"194 245 CURVE SMOOTH"
);
}
);
width = 408;
}
);
leftKerningGroup = nine;
note = nine;
rightKerningGroup = nine;
unicode = 0039;
},
{
color = 6;
glyphname = onesuperior;
lastChange = "2022-04-05 22:44:43 +0000";
layers = (
{
layerId = "5E1A2ACF-25BB-4872-A226-5327BC7330DB";
paths = (
{
closed = 1;
nodes = (
"109 238 LINE",
"109 591 LINE",
"98 591 LINE",
"98 548 OFFCURVE",
"89 532 OFFCURVE",
"50 532 CURVE",
"50 522 LINE",
"93 522 LINE",
"93 238 LINE"
);
}
);
width = 186;
}
);
note = onesuperior;
unicode = 00B9;
},
{
color = 6;
glyphname = twosuperior;
lastChange = "2022-04-05 22:57:56 +0000";
layers = (
{
layerId = "5E1A2ACF-25BB-4872-A226-5327BC7330DB";
paths = (
{
closed = 1;
nodes = (
"221 237 LINE",
"221 252 LINE",
"72 252 LINE",
"72 301 LINE SMOOTH",
"72 340 OFFCURVE",
"90 359 OFFCURVE",
"120 376 CURVE",
"125 378 OFFCURVE",
"155 395 OFFCURVE",
"169 403 CURVE SMOOTH",
"199 420 OFFCURVE",
"218 455 OFFCURVE",
"218 505 CURVE SMOOTH",
"218 561 OFFCURVE",
"194 593 OFFCURVE",
"133 593 CURVE SMOOTH",
"81 593 OFFCURVE",
"50 566 OFFCURVE",
"50 510 CURVE SMOOTH",
"50 478 LINE",
"66 478 LINE",
"66 516 LINE SMOOTH",
"66 556 OFFCURVE",
"93 579 OFFCURVE",
"133 579 CURVE SMOOTH",
"180 579 OFFCURVE",
"202 550 OFFCURVE",
"202 510 CURVE SMOOTH",
"202 498 LINE SMOOTH",
"202 462 OFFCURVE",
"188 434 OFFCURVE",
"159 416 CURVE SMOOTH",
"146 408 OFFCURVE",
"115 391 OFFCURVE",
"108 387 CURVE SMOOTH",
"75 368 OFFCURVE",
"56 349 OFFCURVE",
"56 301 CURVE SMOOTH",
"56 237 LINE"
);
}
);
width = 271;
}
);
note = twosuperior;
unicode = 00B2;
},
{
color = 6;
glyphname = threesuperior;
lastChange = "2022-04-05 22:44:43 +0000";
layers = (
{
layerId = "5E1A2ACF-25BB-4872-A226-5327BC7330DB";
paths = (
{
closed = 1;
nodes = (
"193 238 OFFCURVE",
"222 272 OFFCURVE",
"222 332 CURVE SMOOTH",
"222 355 LINE SMOOTH",
"222 386 OFFCURVE",
"197 422 OFFCURVE",
"150 428 CURVE",
"189 434 OFFCURVE",
"219 472 OFFCURVE",
"219 512 CURVE SMOOTH",
"219 519 LINE SMOOTH",
"219 568 OFFCURVE",
"188 595 OFFCURVE",
"136 595 CURVE SMOOTH",
"83 595 OFFCURVE",
"55 570 OFFCURVE",
"55 511 CURVE SMOOTH",
"55 492 LINE",
"71 492 LINE",
"71 517 LINE SMOOTH",
"71 557 OFFCURVE",
"92 579 OFFCURVE",
"136 579 CURVE SMOOTH",
"178 579 OFFCURVE",
"203 552 OFFCURVE",
"203 518 CURVE SMOOTH",
"203 514 LINE SMOOTH",
"203 459 OFFCURVE",
"156 436 OFFCURVE",
"129 436 CURVE SMOOTH",
"99 436 LINE",
"99 420 LINE",
"131 420 LINE SMOOTH",
"165 420 OFFCURVE",
"206 397 OFFCURVE",
"206 346 CURVE SMOOTH",
"206 337 LINE SMOOTH",
"206 280 OFFCURVE",
"181 254 OFFCURVE",
"133 254 CURVE SMOOTH",
"87 254 OFFCURVE",
"61 272 OFFCURVE",
"61 330 CURVE SMOOTH",
"61 355 LINE",
"45 355 LINE",
"45 324 LINE SMOOTH",
"45 260 OFFCURVE",
"79 238 OFFCURVE",
"133 238 CURVE SMOOTH"
);
}
);
width = 267;
}
);
note = threesuperior;
unicode = 00B3;
},
{
color = 6;
glyphname = foursuperior;
lastChange = "2022-04-05 22:44:43 +0000";
layers = (
{
layerId = "5E1A2ACF-25BB-4872-A226-5327BC7330DB";
paths = (
{
closed = 1;
nodes = (
"177 242 LINE",
"177 313 LINE",
"218 313 LINE",
"218 329 LINE",
"177 329 LINE",
"177 597 LINE",
"163 597 LINE",
"25 322 LINE",
"25 313 LINE",
"161 313 LINE",
"161 242 LINE"
);
},
{
closed = 1;
nodes = (
"161 560 LINE",
"161 329 LINE",
"45 329 LINE"
);
}
);
width = 253;
}
);
unicode = 2074;
},
{
color = 6;
glyphname = fraction;
lastChange = "2022-04-05 18:20:49 +0000";
layers = (
{
layerId = "5E1A2ACF-25BB-4872-A226-5327BC7330DB";
paths = (
{
closed = 1;
nodes = (
"-80 0 LINE",
"241 585 LINE",
"222 585 LINE",
"-97 0 LINE"
);
}
);
width = 139;
}
);
note = fraction;
unicode = 2044;
},
{
color = 6;
glyphname = onehalf;
lastChange = "2022-04-05 21:39:13 +0000";
layers = (
{
background = {
paths = (
{
closed = 1;
nodes = (
"64 0 LINE",
"385 585 LINE",
"370 585 LINE",
"51 0 LINE"
);
}
);
};
components = (
{
alignment = -1;
name = onesuperior;
},
{
alignment = -1;
name = twosuperior;
transform = "{1, 0, 0, 1, 258, -236}";
},
{
name = fraction;
transform = "{1, 0, 0, 1, 145, 0}";
}
);
layerId = "5E1A2ACF-25BB-4872-A226-5327BC7330DB";
width = 526;
}
);
note = onehalf;
unicode = 00BD;
},
{
color = 6;
glyphname = onequarter;
lastChange = "2022-04-05 21:43:41 +0000";
layers = (
{
components = (
{
alignment = -1;
name = onesuperior;
},
{
name = foursuperior;
transform = "{1, 0, 0, 1, 262, -246}";
}
);
layerId = "5E1A2ACF-25BB-4872-A226-5327BC7330DB";
paths = (
{
closed = 1;
nodes = (
"69 0 LINE",
"385 585 LINE",
"366 585 LINE",
"51 0 LINE"
);
}
);
width = 530;
}
);
note = onequarter;
unicode = 00BC;
},
{
color = 6;
glyphname = threequarters;
lastChange = "2022-04-05 22:44:43 +0000";
layers = (
{
layerId = "5E1A2ACF-25BB-4872-A226-5327BC7330DB";
paths = (
{
closed = 1;
nodes = (
"155 0 LINE",
"476 585 LINE",
"457 585 LINE",
"138 0 LINE"
);
},
{
closed = 1;
nodes = (
"193 238 OFFCURVE",
"222 272 OFFCURVE",
"222 332 CURVE SMOOTH",
"222 355 LINE SMOOTH",
"222 386 OFFCURVE",
"197 422 OFFCURVE",
"150 428 CURVE",
"189 434 OFFCURVE",
"219 472 OFFCURVE",
"219 512 CURVE SMOOTH",
"219 519 LINE SMOOTH",
"219 568 OFFCURVE",
"188 595 OFFCURVE",
"136 595 CURVE SMOOTH",
"83 595 OFFCURVE",
"55 570 OFFCURVE",
"55 511 CURVE SMOOTH",
"55 492 LINE",
"71 492 LINE",
"71 517 LINE SMOOTH",
"71 557 OFFCURVE",
"92 579 OFFCURVE",
"136 579 CURVE SMOOTH",
"178 579 OFFCURVE",
"203 552 OFFCURVE",
"203 518 CURVE SMOOTH",
"203 514 LINE SMOOTH",
"203 459 OFFCURVE",
"156 436 OFFCURVE",
"129 436 CURVE SMOOTH",
"99 436 LINE",
"99 420 LINE",
"131 420 LINE SMOOTH",
"165 420 OFFCURVE",
"206 397 OFFCURVE",
"206 346 CURVE SMOOTH",
"206 337 LINE SMOOTH",
"206 280 OFFCURVE",
"181 254 OFFCURVE",
"133 254 CURVE SMOOTH",
"87 254 OFFCURVE",
"61 272 OFFCURVE",
"61 330 CURVE SMOOTH",
"61 355 LINE",
"45 355 LINE",
"45 324 LINE SMOOTH",
"45 260 OFFCURVE",
"79 238 OFFCURVE",
"133 238 CURVE SMOOTH"
);
},
{
closed = 1;
nodes = (
"479 -4 LINE",
"479 67 LINE",
"520 67 LINE",
"520 83 LINE",
"479 83 LINE",
"479 351 LINE",
"465 351 LINE",
"327 76 LINE",
"327 67 LINE",
"463 67 LINE",
"463 -4 LINE"
);
},
{
closed = 1;
nodes = (
"460 585 LINE",
"475 585 LINE",
"154 0 LINE",
"141 0 LINE"
);
},
{
closed = 1;
nodes = (
"463 314 LINE",
"463 83 LINE",
"347 83 LINE"
);
}
);
width = 562;
}
);
note = threequarters;
unicode = 00BE;
},
{
color = 6;
glyphname = period;
lastChange = "2021-12-09 03:35:29 +0000";
layers = (
{
layerId = "5E1A2ACF-25BB-4872-A226-5327BC7330DB";
paths = (
{
closed = 1;
nodes = (
"77 -3 OFFCURVE",
"82 2 OFFCURVE",
"82 13 CURVE SMOOTH",
"82 24 OFFCURVE",
"77 29 OFFCURVE",
"66 29 CURVE SMOOTH",
"55 29 OFFCURVE",
"50 24 OFFCURVE",
"50 13 CURVE SMOOTH",
"50 2 OFFCURVE",
"55 -3 OFFCURVE",
"66 -3 CURVE SMOOTH"
);
}
);
width = 132;
}
);
leftKerningGroup = period;
note = period;
rightKerningGroup = period;
unicode = 002E;
},
{
color = 6;
glyphname = comma;
lastChange = "2022-04-04 13:21:56 +0000";
layers = (
{
layerId = "5E1A2ACF-25BB-4872-A226-5327BC7330DB";
paths = (
{
closed = 1;
nodes = (
"63 -87 LINE",
"80 -62 OFFCURVE",
"98 -23 OFFCURVE",
"98 4 CURVE SMOOTH",
"98 17 OFFCURVE",
"92 29 OFFCURVE",
"77 29 CURVE SMOOTH",
"66 29 OFFCURVE",
"60 19 OFFCURVE",
"60 10 CURVE SMOOTH",
"60 -10 OFFCURVE",
"75 -10 OFFCURVE",
"75 -23 CURVE SMOOTH",
"75 -41 OFFCURVE",
"58 -73 OFFCURVE",
"50 -87 CURVE"
);
}
);
width = 148;
}
);
note = comma;
unicode = 002C;
},
{
color = 6;
glyphname = colon;
lastChange = "2021-12-09 03:35:29 +0000";
layers = (
{
layerId = "5E1A2ACF-25BB-4872-A226-5327BC7330DB";
paths = (
{
closed = 1;
nodes = (
"77 317 OFFCURVE",
"82 322 OFFCURVE",
"82 333 CURVE SMOOTH",
"82 344 OFFCURVE",
"77 349 OFFCURVE",
"66 349 CURVE SMOOTH",
"55 349 OFFCURVE",
"50 344 OFFCURVE",
"50 333 CURVE SMOOTH",
"50 322 OFFCURVE",
"55 317 OFFCURVE",
"66 317 CURVE SMOOTH"
);
},
{
closed = 1;
nodes = (
"77 -3 OFFCURVE",
"82 2 OFFCURVE",
"82 13 CURVE SMOOTH",
"82 24 OFFCURVE",
"77 29 OFFCURVE",
"66 29 CURVE SMOOTH",
"55 29 OFFCURVE",
"50 24 OFFCURVE",
"50 13 CURVE SMOOTH",
"50 2 OFFCURVE",
"55 -3 OFFCURVE",
"66 -3 CURVE SMOOTH"
);
}
);
width = 132;
}
);
note = colon;
unicode = 003A;
},
{
color = 6;
glyphname = semicolon;
lastChange = "2021-12-09 03:35:29 +0000";
layers = (
{
layerId = "5E1A2ACF-25BB-4872-A226-5327BC7330DB";
paths = (
{
closed = 1;
nodes = (
"60 -87 LINE",
"68 -78 OFFCURVE",
"83 -53 OFFCURVE",
"90 -36 CURVE SMOOTH",
"94 -25 OFFCURVE",
"98 -10 OFFCURVE",
"98 9 CURVE SMOOTH",
"98 20 OFFCURVE",
"92 30 OFFCURVE",
"79 30 CURVE SMOOTH",
"68 30 OFFCURVE",
"62 21 OFFCURVE",
"62 13 CURVE SMOOTH",
"62 8 OFFCURVE",
"64 2 OFFCURVE",
"68 -3 CURVE SMOOTH",
"73 -8 OFFCURVE",
"78 -16 OFFCURVE",
"78 -26 CURVE SMOOTH",
"78 -29 OFFCURVE",
"77 -33 OFFCURVE",
"76 -37 CURVE SMOOTH",
"71 -56 OFFCURVE",
"54 -82 OFFCURVE",
"50 -87 CURVE"
);
},
{
closed = 1;
nodes = (
"89 317 OFFCURVE",
"94 322 OFFCURVE",
"94 333 CURVE SMOOTH",
"94 344 OFFCURVE",
"89 349 OFFCURVE",
"78 349 CURVE SMOOTH",
"67 349 OFFCURVE",
"62 344 OFFCURVE",
"62 333 CURVE SMOOTH",
"62 322 OFFCURVE",
"67 317 OFFCURVE",
"78 317 CURVE SMOOTH"
);
}
);
width = 148;
}
);
leftMetricsKey = comma;
note = semicolon;
unicode = 003B;
},
{
color = 6;
glyphname = exclam;
lastChange = "2022-04-05 05:28:00 +0000";
layers = (
{
layerId = "5E1A2ACF-25BB-4872-A226-5327BC7330DB";
paths = (
{
closed = 1;
nodes = (
"70 195 LINE",
"74 357 LINE",
"74 630 LINE",
"58 630 LINE",
"58 357 LINE",
"61 195 LINE"
);
},
{
closed = 1;
nodes = (
"77 -3 OFFCURVE",
"82 2 OFFCURVE",
"82 13 CURVE SMOOTH",
"82 24 OFFCURVE",
"77 29 OFFCURVE",
"66 29 CURVE SMOOTH",
"55 29 OFFCURVE",
"50 24 OFFCURVE",
"50 13 CURVE SMOOTH",
"50 2 OFFCURVE",
"55 -3 OFFCURVE",
"66 -3 CURVE SMOOTH"
);
}
);
width = 132;
}
);
note = exclam;
unicode = 0021;
},
{
color = 6;
glyphname = exclamdown;
lastChange = "2022-04-05 22:44:43 +0000";
layers = (
{
layerId = "5E1A2ACF-25BB-4872-A226-5327BC7330DB";
paths = (
{
closed = 1;
nodes = (
"74 -151 LINE",
"74 122 LINE",
"70 284 LINE",
"61 284 LINE",
"58 122 LINE",
"58 -151 LINE"
);
},
{
closed = 1;
nodes = (
"77 415 OFFCURVE",
"82 420 OFFCURVE",
"82 431 CURVE SMOOTH",
"82 442 OFFCURVE",
"77 447 OFFCURVE",
"66 447 CURVE SMOOTH",
"55 447 OFFCURVE",
"50 442 OFFCURVE",
"50 431 CURVE SMOOTH",
"50 420 OFFCURVE",
"55 415 OFFCURVE",
"66 415 CURVE SMOOTH"
);
}
);
width = 132;
}
);
note = exclamdown;
unicode = 00A1;
},
{
color = 6;
glyphname = question;
lastChange = "2022-04-05 22:44:43 +0000";
layers = (
{
layerId = "5E1A2ACF-25BB-4872-A226-5327BC7330DB";
paths = (
{
closed = 1;
nodes = (
"137 144 LINE",
"137 250 LINE",
"184 250 LINE SMOOTH",
"235 250 OFFCURVE",
"311 285 OFFCURVE",
"311 378 CURVE SMOOTH",
"311 449 LINE SMOOTH",
"311 550 OFFCURVE",
"270 595 OFFCURVE",
"172 595 CURVE SMOOTH",
"91 595 OFFCURVE",
"50 549 OFFCURVE",
"50 458 CURVE SMOOTH",
"50 429 LINE",
"66 429 LINE",
"66 462 LINE SMOOTH",
"66 538 OFFCURVE",
"104 579 OFFCURVE",
"174 579 CURVE SMOOTH",
"255 579 OFFCURVE",
"295 534 OFFCURVE",
"295 451 CURVE SMOOTH",
"295 386 LINE SMOOTH",
"295 300 OFFCURVE",
"227 266 OFFCURVE",
"180 266 CURVE SMOOTH",
"121 266 LINE",
"121 144 LINE"
);
},
{
closed = 1;
nodes = (
"143 -3 OFFCURVE",
"148 2 OFFCURVE",
"148 13 CURVE SMOOTH",
"148 24 OFFCURVE",
"143 29 OFFCURVE",
"132 29 CURVE SMOOTH",
"121 29 OFFCURVE",
"116 24 OFFCURVE",
"116 13 CURVE SMOOTH",
"116 2 OFFCURVE",
"121 -3 OFFCURVE",
"132 -3 CURVE SMOOTH"
);
}
);
width = 361;
}
);
note = question;
unicode = 003F;
},
{
color = 6;
glyphname = questiondown;
lastChange = "2022-04-05 22:44:43 +0000";
layers = (
{
layerId = "5E1A2ACF-25BB-4872-A226-5327BC7330DB";
paths = (
{
closed = 1;
nodes = (
"270 -151 OFFCURVE",
"311 -105 OFFCURVE",
"311 -14 CURVE SMOOTH",
"311 15 LINE",
"295 15 LINE",
"295 -18 LINE SMOOTH",
"295 -94 OFFCURVE",
"257 -135 OFFCURVE",
"187 -135 CURVE SMOOTH",
"106 -135 OFFCURVE",
"66 -90 OFFCURVE",
"66 -7 CURVE SMOOTH",
"66 58 LINE SMOOTH",
"66 144 OFFCURVE",
"134 178 OFFCURVE",
"181 178 CURVE SMOOTH",
"240 178 LINE",
"240 300 LINE",
"224 300 LINE",
"224 194 LINE",
"177 194 LINE SMOOTH",
"126 194 OFFCURVE",
"50 159 OFFCURVE",
"50 66 CURVE SMOOTH",
"50 -5 LINE SMOOTH",
"50 -106 OFFCURVE",
"91 -151 OFFCURVE",
"189 -151 CURVE SMOOTH"
);
},
{
closed = 1;
nodes = (
"240 415 OFFCURVE",
"245 420 OFFCURVE",
"245 431 CURVE SMOOTH",
"245 442 OFFCURVE",
"240 447 OFFCURVE",
"229 447 CURVE SMOOTH",
"218 447 OFFCURVE",
"213 442 OFFCURVE",
"213 431 CURVE SMOOTH",
"213 420 OFFCURVE",
"218 415 OFFCURVE",
"229 415 CURVE SMOOTH"
);
}
);
width = 361;
}
);
note = questiondown;
unicode = 00BF;
},
{
color = 6;
glyphname = periodcentered;
lastChange = "2021-12-09 03:35:29 +0000";
layers = (
{
layerId = "5E1A2ACF-25BB-4872-A226-5327BC7330DB";
paths = (
{
closed = 1;
nodes = (
"77 248 OFFCURVE",
"82 253 OFFCURVE",
"82 264 CURVE SMOOTH",
"82 275 OFFCURVE",
"77 280 OFFCURVE",
"66 280 CURVE SMOOTH",
"55 280 OFFCURVE",
"50 275 OFFCURVE",
"50 264 CURVE SMOOTH",
"50 253 OFFCURVE",
"55 248 OFFCURVE",
"66 248 CURVE SMOOTH"
);
}
);
width = 132;
}
);
note = periodcentered;
unicode = 00B7;
},
{
color = 6;
glyphname = bullet;
lastChange = "2021-12-09 03:35:29 +0000";
layers = (
{
layerId = "5E1A2ACF-25BB-4872-A226-5327BC7330DB";
paths = (
{
closed = 1;
nodes = (
"166 223 OFFCURVE",
"193 250 OFFCURVE",
"193 285 CURVE SMOOTH",
"193 320 OFFCURVE",
"165 347 OFFCURVE",
"132 347 CURVE SMOOTH",
"96 347 OFFCURVE",
"69 320 OFFCURVE",
"69 285 CURVE SMOOTH",
"70 249 OFFCURVE",
"97 223 OFFCURVE",
"130 223 CURVE SMOOTH"
);
}
);
width = 262;
}
);
note = bullet;
unicode = 2022;
},
{
color = 6;
glyphname = asterisk;
lastChange = "2022-04-05 22:44:43 +0000";
layers = (
{
layerId = "5E1A2ACF-25BB-4872-A226-5327BC7330DB";
paths = (
{
closed = 1;
nodes = (
"244 294 LINE",
"357 137 LINE",
"371 147 LINE",
"255 304 LINE",
"439 360 LINE",
"434 375 LINE",
"251 315 LINE",
"253 503 LINE",
"237 503 LINE",
"237 315 LINE",
"55 376 LINE",
"50 361 LINE",
"232 302 LINE",
"118 146 LINE",
"131 137 LINE"
);
}
);
width = 489;
}
);
note = asterisk;
unicode = 002A;
},
{
color = 6;
glyphname = numbersign;
lastChange = "2022-04-05 22:44:43 +0000";
layers = (
{
layerId = "5E1A2ACF-25BB-4872-A226-5327BC7330DB";
paths = (
{
closed = 1;
nodes = (
"144 0 LINE",
"207 200 LINE",
"396 200 LINE",
"333 0 LINE",
"351 0 LINE",
"414 200 LINE",
"554 200 LINE",
"558 216 LINE",
"418 216 LINE",
"477 400 LINE",
"617 400 LINE",
"622 416 LINE",
"482 416 LINE",
"531 573 LINE",
"513 573 LINE",
"465 416 LINE",
"275 416 LINE",
"324 573 LINE",
"308 573 LINE",
"259 416 LINE",
"118 416 LINE",
"113 400 LINE",
"254 400 LINE",
"195 216 LINE",
"54 216 LINE",
"50 200 LINE",
"191 200 LINE",
"127 0 LINE"
);
},
{
closed = 1;
nodes = (
"270 400 LINE",
"460 400 LINE",
"401 216 LINE",
"211 216 LINE"
);
}
);
width = 672;
}
);
note = numbersign;
unicode = 0023;
},
{
color = 6;
glyphname = slash;
lastChange = "2022-04-05 22:44:43 +0000";
layers = (
{
layerId = "5E1A2ACF-25BB-4872-A226-5327BC7330DB";
paths = (
{
closed = 1;
nodes = (
"68 -46 LINE",
"411 631 LINE",
"394 631 LINE",
"50 -46 LINE"
);
}
);
width = 449;
}
);
note = slash;
unicode = 002F;
},
{
color = 6;
glyphname = backslash;
lastChange = "2022-04-05 22:44:43 +0000";
layers = (
{
layerId = "5E1A2ACF-25BB-4872-A226-5327BC7330DB";
paths = (
{
closed = 1;
nodes = (
"412 -46 LINE",
"69 631 LINE",
"50 631 LINE",
"394 -46 LINE"
);
}
);
width = 462;
}
);
note = backslash;
unicode = 005C;
},
{
color = 6;
glyphname = parenleft;
lastChange = "2022-04-05 22:44:43 +0000";
layers = (
{
background = {
paths = (
{
closed = 1;
nodes = (
"269 -116 LINE",
"141 -92 OFFCURVE",
"72 75 OFFCURVE",
"72 252 CURVE SMOOTH",
"72 444 OFFCURVE",
"167 625 OFFCURVE",
"280 663 CURVE",
"280 667 LINE",
"149 643 OFFCURVE",
"56 441 OFFCURVE",
"56 249 CURVE SMOOTH",
"56 65 OFFCURVE",
"131 -113 OFFCURVE",
"269 -124 CURVE"
);
}
);
};
layerId = "5E1A2ACF-25BB-4872-A226-5327BC7330DB";
paths = (
{
closed = 1;
nodes = (
"263 -112 LINE",
"135 -92 OFFCURVE",
"67 75 OFFCURVE",
"67 252 CURVE SMOOTH",
"67 444 OFFCURVE",
"157 619 OFFCURVE",
"274 655 CURVE",
"274 667 LINE",
"143 643 OFFCURVE",
"50 441 OFFCURVE",
"50 249 CURVE SMOOTH",
"50 65 OFFCURVE",
"125 -113 OFFCURVE",
"263 -124 CURVE"
);
}
);
width = 324;
}
);
note = parenleft;
unicode = 0028;
},
{
color = 6;
glyphname = parenright;
lastChange = "2022-01-21 01:14:50 +0000";
layers = (
{
background = {
paths = (
{
closed = 1;
nodes = (
"160 -98 OFFCURVE",
"253 102 OFFCURVE",
"253 296 CURVE SMOOTH",
"253 480 OFFCURVE",
"178 658 OFFCURVE",
"40 669 CURVE",
"40 662 LINE",
"168 638 OFFCURVE",
"237 472 OFFCURVE",
"237 293 CURVE SMOOTH",
"237 100 OFFCURVE",
"142 -83 OFFCURVE",
"29 -118 CURVE",
"29 -122 LINE"
);
}
);
};
components = (
{
name = parenleft;
transform = "{-1, 0, 0, -1, 320, 543}";
}
);
layerId = "5E1A2ACF-25BB-4872-A226-5327BC7330DB";
width = 320;
}
);
note = parenright;
rightKerningGroup = parenright;
unicode = 0029;
},
{
color = 6;
glyphname = braceleft;
lastChange = "2022-04-05 22:44:43 +0000";
layers = (
{
layerId = "5E1A2ACF-25BB-4872-A226-5327BC7330DB";
paths = (
{
closed = 1;
nodes = (
"204 -122 LINE",
"161 -113 OFFCURVE",
"116 -87 OFFCURVE",
"116 -16 CURVE SMOOTH",
"116 63 OFFCURVE",
"176 103 OFFCURVE",
"175 184 CURVE SMOOTH",
"175 221 OFFCURVE",
"146 255 OFFCURVE",
"99 268 CURVE",
"147 279 OFFCURVE",
"176 315 OFFCURVE",
"175 358 CURVE SMOOTH",
"174 429 OFFCURVE",
"115 479 OFFCURVE",
"116 551 CURVE SMOOTH",
"116 610 OFFCURVE",
"151 644 OFFCURVE",
"204 651 CURVE",
"204 665 LINE",
"146 656 OFFCURVE",
"99 623 OFFCURVE",
"99 551 CURVE SMOOTH",
"99 474 OFFCURVE",
"159 417 OFFCURVE",
"159 350 CURVE SMOOTH",
"159 307 OFFCURVE",
"103 273 OFFCURVE",
"50 273 CURVE",
"50 263 LINE",
"103 260 OFFCURVE",
"158 230 OFFCURVE",
"158 177 CURVE SMOOTH",
"159 117 OFFCURVE",
"100 69 OFFCURVE",
"100 -16 CURVE SMOOTH",
"100 -89 OFFCURVE",
"133 -121 OFFCURVE",
"204 -137 CURVE"
);
}
);
width = 284;
}
);
note = braceleft;
unicode = 007B;
},
{
color = 6;
glyphname = braceright;
lastChange = "2022-04-05 22:44:43 +0000";
layers = (
{
layerId = "5E1A2ACF-25BB-4872-A226-5327BC7330DB";
paths = (
{
closed = 1;
nodes = (
"138 -128 OFFCURVE",
"185 -95 OFFCURVE",
"185 -23 CURVE SMOOTH",
"185 54 OFFCURVE",
"125 111 OFFCURVE",
"125 178 CURVE SMOOTH",
"125 221 OFFCURVE",
"181 255 OFFCURVE",
"234 255 CURVE",
"234 265 LINE",
"181 268 OFFCURVE",
"126 298 OFFCURVE",
"126 351 CURVE SMOOTH",
"125 411 OFFCURVE",
"184 459 OFFCURVE",
"184 544 CURVE SMOOTH",
"184 617 OFFCURVE",
"151 649 OFFCURVE",
"80 665 CURVE",
"80 650 LINE",
"123 641 OFFCURVE",
"168 615 OFFCURVE",
"168 544 CURVE SMOOTH",
"168 465 OFFCURVE",
"108 425 OFFCURVE",
"109 344 CURVE SMOOTH",
"109 307 OFFCURVE",
"138 273 OFFCURVE",
"185 260 CURVE",
"137 249 OFFCURVE",
"108 213 OFFCURVE",
"109 170 CURVE SMOOTH",
"110 99 OFFCURVE",
"169 49 OFFCURVE",
"168 -23 CURVE SMOOTH",
"168 -82 OFFCURVE",
"133 -116 OFFCURVE",
"80 -123 CURVE",
"80 -137 LINE"
);
}
);
width = 284;
}
);
note = braceright;
unicode = 007D;
},
{
color = 6;
glyphname = bracketleft;
lastChange = "2022-04-05 22:44:43 +0000";
layers = (
{
layerId = "5E1A2ACF-25BB-4872-A226-5327BC7330DB";
paths = (
{
closed = 1;
nodes = (
"221 -62 LINE",
"221 -46 LINE",
"66 -46 LINE",
"66 614 LINE",
"221 614 LINE",
"221 630 LINE",
"50 630 LINE",
"50 -62 LINE"
);
}
);
width = 271;
}
);
note = bracketleft;
unicode = 005B;
},
{
color = 6;
glyphname = bracketright;
lastChange = "2022-04-05 22:44:43 +0000";
layers = (
{
layerId = "5E1A2ACF-25BB-4872-A226-5327BC7330DB";
paths = (
{
closed = 1;
nodes = (
"221 -62 LINE",
"221 630 LINE",
"50 630 LINE",
"50 614 LINE",
"205 614 LINE",
"205 -46 LINE",
"50 -46 LINE",
"50 -62 LINE"
);
}
);
width = 271;
}
);
note = bracketright;
unicode = 005D;
},
{
color = 6;
glyphname = hyphen;
lastChange = "2022-04-05 22:44:43 +0000";
layers = (
{
layerId = "5E1A2ACF-25BB-4872-A226-5327BC7330DB";
paths = (
{
closed = 1;
nodes = (
"229 244 LINE",
"229 260 LINE",
"50 260 LINE",
"50 244 LINE"
);
}
);
width = 277;
}
);
leftKerningGroup = hyphen;
note = hyphen;
unicode = 002D;
},
{
color = 6;
glyphname = endash;
lastChange = "2022-04-05 22:44:43 +0000";
layers = (
{
layerId = "5E1A2ACF-25BB-4872-A226-5327BC7330DB";
paths = (
{
closed = 1;
nodes = (
"294 244 LINE",
"294 260 LINE",
"20 260 LINE",
"20 244 LINE"
);
}
);
width = 314;
}
);
leftKerningGroup = hyphen;
note = endash;
unicode = 2013;
},
{
color = 6;
glyphname = emdash;
lastChange = "2022-04-05 22:44:43 +0000";
layers = (
{
layerId = "5E1A2ACF-25BB-4872-A226-5327BC7330DB";
paths = (
{
closed = 1;
nodes = (
"385 244 LINE",
"385 260 LINE",
"20 260 LINE",
"20 244 LINE"
);
}
);
width = 405;
}
);
leftKerningGroup = hyphen;
note = emdash;
unicode = 2014;
},
{
color = 6;
glyphname = underscore;
lastChange = "2022-04-05 22:44:43 +0000";
layers = (
{
layerId = "5E1A2ACF-25BB-4872-A226-5327BC7330DB";
paths = (
{
closed = 1;
nodes = (
"693 -108 LINE",
"693 -92 LINE",
"50 -92 LINE",
"50 -108 LINE"
);
}
);
width = 743;
}
);
note = underscore;
unicode = 005F;
},
{
color = 6;
glyphname = quotedblleft;
lastChange = "2021-12-10 04:54:08 +0000";
layers = (
{
background = {
paths = (
{
closed = 1;
nodes = (
"143 415 LINE",
"159 415 LINE",
"206 615 LINE",
"198 615 LINE"
);
},
{
closed = 1;
nodes = (
"39 415 LINE",
"55 415 LINE",
"102 615 LINE",
"94 615 LINE"
);
}
);
};
components = (
{
name = quoteleft;
},
{
name = quoteleft;
}
);
layerId = "5E1A2ACF-25BB-4872-A226-5327BC7330DB";
width = 142;
}
);
leftKerningGroup = quoteleft;
leftMetricsKey = quoteleft;
note = quotedblleft;
rightKerningGroup = quoteleft;
rightMetricsKey = quoteleft;
unicode = 201C;
},
{
color = 6;
glyphname = quotedblright;
lastChange = "2021-12-10 04:54:08 +0000";
layers = (
{
background = {
paths = (
{
closed = 1;
nodes = (
"93 615 LINE",
"77 615 LINE",
"30 415 LINE",
"38 415 LINE"
);
},
{
closed = 1;
nodes = (
"196 615 LINE",
"180 615 LINE",
"133 415 LINE",
"141 415 LINE"
);
}
);
};
components = (
{
name = quoteright;
},
{
name = quoteright;
}
);
layerId = "5E1A2ACF-25BB-4872-A226-5327BC7330DB";
width = 161;
}
);
leftKerningGroup = quoteright;
leftMetricsKey = quoteright;
note = quotedblright;
rightKerningGroup = quoteright;
rightMetricsKey = quoteright;
unicode = 201D;
},
{
color = 6;
glyphname = quoteright;
lastChange = "2022-04-04 13:05:58 +0000";
layers = (
{
layerId = "5E1A2ACF-25BB-4872-A226-5327BC7330DB";
paths = (
{
closed = 1;
nodes = (
"62 420 LINE",
"113 610 LINE",
"96 610 LINE",
"50 420 LINE"
);
}
);
width = 161;
}
);
leftKerningGroup = quoteright;
note = quoteright;
rightKerningGroup = quoteright;
unicode = 2019;
},
{
color = 6;
glyphname = guillemetleft;
lastChange = "2022-04-05 22:44:43 +0000";
layers = (
{
background = {
paths = (
{
closed = 1;
nodes = (
"381 115 LINE",
"266 284 LINE",
"393 468 LINE",
"379 468 LINE",
"250 284 LINE",
"367 115 LINE"
);
},
{
closed = 1;
nodes = (
"201 115 LINE",
"86 284 LINE",
"213 468 LINE",
"199 468 LINE",
"70 284 LINE",
"187 115 LINE"
);
}
);
};
layerId = "5E1A2ACF-25BB-4872-A226-5327BC7330DB";
paths = (
{
closed = 1;
nodes = (
"362 115 LINE",
"248 284 LINE",
"374 468 LINE",
"360 468 LINE",
"230 284 LINE",
"348 115 LINE"
);
},
{
closed = 1;
nodes = (
"182 115 LINE",
"68 284 LINE",
"194 468 LINE",
"180 468 LINE",
"50 284 LINE",
"168 115 LINE"
);
}
);
width = 424;
}
);
leftKerningGroup = guilsinglleft;
leftMetricsKey = guilsinglleft;
note = guillemotleft;
rightKerningGroup = guilsinglleft;
rightMetricsKey = guilsinglleft;
unicode = 00AB;
},
{
color = 6;
glyphname = guillemetright;
lastChange = "2022-04-05 22:44:43 +0000";
layers = (
{
layerId = "5E1A2ACF-25BB-4872-A226-5327BC7330DB";
paths = (
{
closed = 1;
nodes = (
"244 115 LINE",
"374 299 LINE",
"256 468 LINE",
"242 468 LINE",
"356 299 LINE",
"230 115 LINE"
);
},
{
closed = 1;
nodes = (
"64 115 LINE",
"194 299 LINE",
"76 468 LINE",
"62 468 LINE",
"176 299 LINE",
"50 115 LINE"
);
}
);
width = 424;
}
);
leftKerningGroup = guilsinglright;
leftMetricsKey = guilsinglright;
note = guillemotright;
rightKerningGroup = guilsinglright;
rightMetricsKey = guilsinglright;
unicode = 00BB;
},
{
color = 6;
glyphname = guilsinglleft;
lastChange = "2022-04-05 22:44:43 +0000";
layers = (
{
background = {
paths = (
{
closed = 1;
nodes = (
"180 115 LINE",
"65 284 LINE",
"192 468 LINE",
"178 468 LINE",
"49 284 LINE",
"166 115 LINE"
);
}
);
};
layerId = "5E1A2ACF-25BB-4872-A226-5327BC7330DB";
paths = (
{
closed = 1;
nodes = (
"182 75 LINE",
"68 244 LINE",
"194 428 LINE",
"180 428 LINE",
"50 244 LINE",
"168 75 LINE"
);
}
);
width = 244;
}
);
note = guilsinglleft;
unicode = 2039;
},
{
color = 6;
glyphname = guilsinglright;
lastChange = "2022-04-05 22:44:43 +0000";
layers = (
{
layerId = "5E1A2ACF-25BB-4872-A226-5327BC7330DB";
paths = (
{
closed = 1;
nodes = (
"76 75 LINE",
"194 244 LINE",
"64 428 LINE",
"50 428 LINE",
"176 244 LINE",
"62 75 LINE"
);
}
);
width = 244;
}
);
note = guilsinglright;
unicode = 203A;
},
{
color = 6;
glyphname = quotedbl;
lastChange = "2021-12-09 03:35:33 +0000";
layers = (
{
background = {
paths = (
{
closed = 1;
nodes = (
"175 431 LINE",
"190 631 LINE",
"156 631 LINE",
"168 431 LINE"
);
},
{
closed = 1;
nodes = (
"71 431 LINE",
"84 631 LINE",
"50 631 LINE",
"63 431 LINE"
);
}
);
};
components = (
{
name = quotesingle;
},
{
name = quotesingle;
transform = "{1, 0, 0, 1, 90, 0}";
}
);
layerId = "5E1A2ACF-25BB-4872-A226-5327BC7330DB";
width = 206;
}
);
leftKerningGroup = quotesingle;
leftMetricsKey = quotesingle;
note = quotedbl;
rightKerningGroup = quotesingle;
rightMetricsKey = quotesingle;
unicode = 0022;
},
{
color = 6;
glyphname = quotesingle;
lastChange = "2021-12-09 01:56:03 +0000";
layers = (
{
background = {
paths = (
{
closed = 1;
nodes = (
"60 441 LINE",
"70 631 LINE",
"46 631 LINE",
"52 441 LINE"
);
}
);
};
layerId = "5E1A2ACF-25BB-4872-A226-5327BC7330DB";
paths = (
{
closed = 1;
nodes = (
"60 431 LINE",
"66 631 LINE",
"50 631 LINE",
"52 431 LINE"
);
}
);
width = 116;
}
);
note = quotesingle;
unicode = 0027;
},
{
glyphname = "leftanglebracket-math";
lastChange = "2022-04-05 22:44:43 +0000";
layers = (
{
layerId = "5E1A2ACF-25BB-4872-A226-5327BC7330DB";
paths = (
{
closed = 1;
nodes = (
"200 -142 LINE",
"70 233 LINE",
"210 628 LINE",
"196 628 LINE",
"50 233 LINE",
"186 -142 LINE"
);
}
);
width = 260;
},
{
associatedMasterId = "5E1A2ACF-25BB-4872-A226-5327BC7330DB";
layerId = "8A3706BD-364F-4FE3-9C2E-7E87DF0DB4CC";
name = Black;
paths = (
{
closed = 1;
nodes = (
"303 -153 LINE",
"167 236 LINE",
"303 632 LINE",
"166 632 LINE",
"30 236 LINE",
"167 -153 LINE"
);
}
);
width = 333;
}
);
unicode = 27E8;
},
{
glyphname = "rightanglebracket-math";
lastChange = "2022-04-05 22:44:43 +0000";
layers = (
{
layerId = "5E1A2ACF-25BB-4872-A226-5327BC7330DB";
paths = (
{
closed = 1;
nodes = (
"74 -142 LINE",
"210 233 LINE",
"64 628 LINE",
"50 628 LINE",
"190 233 LINE",
"60 -142 LINE"
);
}
);
width = 260;
},
{
associatedMasterId = "5E1A2ACF-25BB-4872-A226-5327BC7330DB";
layerId = "8A3706BD-364F-4FE3-9C2E-7E87DF0DB4CC";
name = Black;
paths = (
{
closed = 1;
nodes = (
"303 236 LINE",
"167 632 LINE",
"30 632 LINE",
"166 236 LINE",
"30 -153 LINE",
"166 -153 LINE"
);
}
);
width = 333;
}
);
unicode = 27E9;
},
{
glyphname = cedi;
lastChange = "2022-04-05 22:44:43 +0000";
layers = (
{
components = (
{
name = C;
}
);
layerId = "5E1A2ACF-25BB-4872-A226-5327BC7330DB";
paths = (
{
closed = 1;
nodes = (
"148 -81 LINE",
"242 659 LINE",
"227 659 LINE",
"133 -81 LINE"
);
}
);
width = 399;
}
);
unicode = 20B5;
},
{
color = 6;
glyphname = cent;
lastChange = "2022-04-05 18:00:22 +0000";
layers = (
{
layerId = "5E1A2ACF-25BB-4872-A226-5327BC7330DB";
paths = (
{
closed = 1;
nodes = (
"180 -63 LINE",
"180 53 LINE",
"287 56 OFFCURVE",
"294 123 OFFCURVE",
"294 184 CURVE SMOOTH",
"294 227 LINE",
"278 227 LINE",
"278 187 LINE SMOOTH",
"278 128 OFFCURVE",
"273 67 OFFCURVE",
"170 67 CURVE SMOOTH",
"66 67 OFFCURVE",
"66 128 OFFCURVE",
"66 187 CURVE SMOOTH",
"66 429 LINE SMOOTH",
"66 488 OFFCURVE",
"71 549 OFFCURVE",
"170 549 CURVE SMOOTH",
"273 549 OFFCURVE",
"278 488 OFFCURVE",
"278 429 CURVE SMOOTH",
"278 388 LINE",
"294 388 LINE",
"294 432 LINE SMOOTH",
"294 492 OFFCURVE",
"287 560 OFFCURVE",
"180 563 CURVE",
"180 643 LINE",
"164 643 LINE",
"164 563 LINE",
"55 563 OFFCURVE",
"50 493 OFFCURVE",
"50 432 CURVE SMOOTH",
"50 184 LINE SMOOTH",
"50 123 OFFCURVE",
"53 53 OFFCURVE",
"163 53 CURVE",
"163 -63 LINE"
);
}
);
width = 344;
}
);
note = cent;
unicode = 00A2;
},
{
glyphname = colonsign;
lastChange = "2022-04-05 22:44:43 +0000";
layers = (
{
components = (
{
name = C;
transform = "{1, 0, 0, 1, -17, 0}";
}
);
layerId = "5E1A2ACF-25BB-4872-A226-5327BC7330DB";
paths = (
{
closed = 1;
nodes = (
"181 -81 LINE",
"275 659 LINE",
"260 659 LINE",
"166 -81 LINE"
);
},
{
closed = 1;
nodes = (
"98 -81 LINE",
"192 659 LINE",
"177 659 LINE",
"83 -81 LINE"
);
}
);
width = 373;
}
);
unicode = 20A1;
},
{
color = 6;
glyphname = currency;
lastChange = "2022-04-05 22:44:43 +0000";
layers = (
{
layerId = "5E1A2ACF-25BB-4872-A226-5327BC7330DB";
paths = (
{
closed = 1;
nodes = (
"118 215 LINE",
"137 199 OFFCURVE",
"162 190 OFFCURVE",
"191 190 CURVE SMOOTH",
"220 190 OFFCURVE",
"245 199 OFFCURVE",
"263 215 CURVE",
"325 159 LINE",
"332 166 LINE",
"275 225 LINE",
"291 246 OFFCURVE",
"301 271 OFFCURVE",
"301 300 CURVE SMOOTH",
"301 328 OFFCURVE",
"291 355 OFFCURVE",
"275 372 CURVE",
"332 434 LINE",
"325 441 LINE",
"265 384 LINE",
"246 400 OFFCURVE",
"219 410 OFFCURVE",
"191 410 CURVE SMOOTH",
"162 410 OFFCURVE",
"137 400 OFFCURVE",
"118 384 CURVE",
"57 441 LINE",
"50 434 LINE",
"106 374 LINE",
"90 354 OFFCURVE",
"81 329 OFFCURVE",
"81 300 CURVE SMOOTH",
"81 271 OFFCURVE",
"90 246 OFFCURVE",
"106 227 CURVE",
"50 166 LINE",
"57 159 LINE"
);
},
{
closed = 1;
nodes = (
"138 206 OFFCURVE",
"97 247 OFFCURVE",
"97 300 CURVE SMOOTH",
"97 353 OFFCURVE",
"138 394 OFFCURVE",
"191 394 CURVE SMOOTH",
"244 394 OFFCURVE",
"285 353 OFFCURVE",
"285 300 CURVE SMOOTH",
"285 247 OFFCURVE",
"244 206 OFFCURVE",
"191 206 CURVE SMOOTH"
);
}
);
width = 382;
}
);
note = currency;
unicode = 00A4;
},
{
color = 6;
glyphname = dollar;
lastChange = "2022-04-05 22:44:43 +0000";
layers = (
{
components = (
{
alignment = -1;
name = s;
transform = "{1, 0, 0, 1, -3, 60}";
}
);
layerId = "5E1A2ACF-25BB-4872-A226-5327BC7330DB";
paths = (
{
closed = 1;
nodes = (
"118 -81 LINE",
"212 659 LINE",
"196 659 LINE",
"102 -81 LINE"
);
}
);
width = 326;
}
);
note = dollar;
unicode = 0024;
},
{
color = 6;
glyphname = dong;
lastChange = "2021-12-09 03:35:29 +0000";
layers = (
{
layerId = "5E1A2ACF-25BB-4872-A226-5327BC7330DB";
paths = (
{
closed = 1;
nodes = (
"169 85 OFFCURVE",
"189 90 OFFCURVE",
"203 100 CURVE SMOOTH",
"215 108 OFFCURVE",
"224 120 OFFCURVE",
"230 137 CURVE",
"231 90 LINE",
"238 90 LINE",
"238 550 LINE",
"272 550 LINE",
"272 558 LINE",
"238 558 LINE",
"238 589 LINE",
"230 589 LINE",
"230 558 LINE",
"144 558 LINE",
"144 550 LINE",
"230 550 LINE",
"230 459 LINE",
"222 467 OFFCURVE",
"198 489 OFFCURVE",
"143 489 CURVE SMOOTH",
"54 489 OFFCURVE",
"49 433 OFFCURVE",
"49 385 CURVE SMOOTH",
"49 188 LINE SMOOTH",
"49 139 OFFCURVE",
"54 85 OFFCURVE",
"143 85 CURVE SMOOTH"
);
},
{
closed = 1;
nodes = (
"248 0 LINE",
"248 10 LINE",
"49 10 LINE",
"49 0 LINE"
);
},
{
closed = 1;
nodes = (
"61 93 OFFCURVE",
"58 144 OFFCURVE",
"58 191 CURVE SMOOTH",
"58 383 LINE SMOOTH",
"58 428 OFFCURVE",
"61 481 OFFCURVE",
"143 481 CURVE SMOOTH",
"208 480 OFFCURVE",
"230 449 OFFCURVE",
"230 448 CURVE SMOOTH",
"230 191 LINE SMOOTH",
"230 167 OFFCURVE",
"228 126 OFFCURVE",
"196 105 CURVE SMOOTH",
"183 97 OFFCURVE",
"165 93 OFFCURVE",
"143 93 CURVE SMOOTH"
);
}
);
width = 283;
}
);
note = dong;
unicode = 20AB;
},
{
color = 6;
glyphname = euro;
lastChange = "2022-04-05 22:44:43 +0000";
layers = (
{
layerId = "5E1A2ACF-25BB-4872-A226-5327BC7330DB";
paths = (
{
closed = 1;
nodes = (
"341 -12 OFFCURVE",
"399 2 OFFCURVE",
"399 118 CURVE SMOOTH",
"399 172 LINE",
"383 172 LINE",
"383 122 LINE SMOOTH",
"383 18 OFFCURVE",
"328 3 OFFCURVE",
"258 3 CURVE SMOOTH",
"189 3 OFFCURVE",
"134 18 OFFCURVE",
"134 122 CURVE SMOOTH",
"134 239 LINE",
"250 239 LINE",
"256 255 LINE",
"134 255 LINE",
"134 332 LINE",
"293 332 LINE",
"298 348 LINE",
"134 348 LINE",
"134 461 LINE SMOOTH",
"134 566 OFFCURVE",
"183 583 OFFCURVE",
"258 583 CURVE SMOOTH",
"316 583 OFFCURVE",
"366 568 OFFCURVE",
"366 467 CURVE SMOOTH",
"366 452 LINE",
"382 469 LINE",
"382 583 OFFCURVE",
"319 599 OFFCURVE",
"259 599 CURVE SMOOTH",
"178 599 OFFCURVE",
"118 585 OFFCURVE",
"118 469 CURVE SMOOTH",
"118 348 LINE",
"45 348 LINE",
"40 332 LINE",
"118 332 LINE",
"118 255 LINE",
"46 255 LINE",
"40 239 LINE",
"118 239 LINE",
"118 118 LINE SMOOTH",
"118 4 OFFCURVE",
"177 -12 OFFCURVE",
"257 -12 CURVE SMOOTH"
);
}
);
width = 449;
}
);
note = Euro;
unicode = 20AC;
},
{
color = 6;
glyphname = florin;
lastChange = "2022-04-05 22:44:43 +0000";
layers = (
{
layerId = "5E1A2ACF-25BB-4872-A226-5327BC7330DB";
paths = (
{
closed = 1;
nodes = (
"11 -149 OFFCURVE",
"35 -116 OFFCURVE",
"43 -60 CURVE SMOOTH",
"107 409 LINE",
"214 409 LINE",
"217 425 LINE",
"109 425 LINE",
"122 522 LINE SMOOTH",
"131 591 OFFCURVE",
"152 622 OFFCURVE",
"194 622 CURVE SMOOTH",
"211 622 OFFCURVE",
"225 621 OFFCURVE",
"236 620 CURVE SMOOTH",
"253 618 LINE",
"255 632 LINE",
"242 634 OFFCURVE",
"221 636 OFFCURVE",
"196 636 CURVE SMOOTH",
"144 636 OFFCURVE",
"118 603 OFFCURVE",
"109 542 CURVE SMOOTH",
"93 425 LINE",
"51 425 LINE",
"48 409 LINE",
"91 409 LINE",
"27 -59 LINE SMOOTH",
"22 -94 OFFCURVE",
"9 -134 OFFCURVE",
"-38 -134 CURVE SMOOTH",
"-55 -134 OFFCURVE",
"-68 -133 OFFCURVE",
"-79 -132 CURVE SMOOTH",
"-96 -130 LINE",
"-99 -145 LINE",
"-88 -147 OFFCURVE",
"-65 -149 OFFCURVE",
"-41 -149 CURVE SMOOTH"
);
}
);
width = 267;
}
);
note = florin;
rightKerningGroup = r;
unicode = 0192;
},
{
color = 6;
glyphname = franc;
lastChange = "2022-04-05 22:44:43 +0000";
layers = (
{
layerId = "5E1A2ACF-25BB-4872-A226-5327BC7330DB";
paths = (
{
closed = 1;
nodes = (
"106 0 LINE",
"106 162 LINE",
"209 162 LINE",
"209 178 LINE",
"106 178 LINE",
"106 303 LINE",
"284 303 LINE",
"284 320 LINE",
"106 320 LINE",
"106 575 LINE",
"335 575 LINE",
"335 591 LINE",
"90 591 LINE",
"90 178 LINE",
"45 178 LINE",
"45 162 LINE",
"90 162 LINE",
"90 0 LINE"
);
}
);
width = 375;
}
);
note = franc;
unicode = 20A3;
},
{
glyphname = guarani;
lastChange = "2022-04-05 22:44:43 +0000";
layers = (
{
layerId = "5E1A2ACF-25BB-4872-A226-5327BC7330DB";
paths = (
{
closed = 1;
nodes = (
"197 -81 LINE",
"197 -12 LINE",
"254 -9 OFFCURVE",
"300 29 OFFCURVE",
"311 63 CURVE",
"311 0 LINE",
"327 0 LINE",
"327 271 LINE",
"197 271 LINE",
"197 583 LINE",
"270 582 OFFCURVE",
"311 563 OFFCURVE",
"311 468 CURVE SMOOTH",
"311 401 LINE",
"327 401 LINE",
"327 469 LINE SMOOTH",
"327 581 OFFCURVE",
"275 598 OFFCURVE",
"197 599 CURVE",
"197 660 LINE",
"181 660 LINE",
"181 599 LINE",
"107 597 OFFCURVE",
"50 580 OFFCURVE",
"50 469 CURVE SMOOTH",
"50 118 LINE SMOOTH",
"50 8 OFFCURVE",
"109 -11 OFFCURVE",
"181 -12 CURVE",
"181 -81 LINE"
);
},
{
closed = 1;
nodes = (
"197 256 LINE",
"311 256 LINE",
"311 125 LINE SMOOTH",
"311 52 OFFCURVE",
"262 7 OFFCURVE",
"197 4 CURVE"
);
},
{
closed = 1;
nodes = (
"116 5 OFFCURVE",
"66 23 OFFCURVE",
"66 125 CURVE SMOOTH",
"66 468 LINE SMOOTH",
"66 562 OFFCURVE",
"109 582 OFFCURVE",
"181 583 CURVE",
"181 4 LINE"
);
}
);
width = 377;
}
);
unicode = 20B2;
},
{
color = 6;
glyphname = lira;
lastChange = "2022-04-05 22:44:43 +0000";
layers = (
{
layerId = "5E1A2ACF-25BB-4872-A226-5327BC7330DB";
paths = (
{
closed = 1;
nodes = (
"334 -2 OFFCURVE",
"351 35 OFFCURVE",
"351 91 CURVE SMOOTH",
"351 136 LINE",
"335 136 LINE",
"335 81 LINE SMOOTH",
"335 32 OFFCURVE",
"313 14 OFFCURVE",
"271 14 CURVE SMOOTH",
"248 14 OFFCURVE",
"226 18 OFFCURVE",
"207 21 CURVE SMOOTH",
"176 25 OFFCURVE",
"152 29 OFFCURVE",
"125 29 CURVE SMOOTH",
"110 29 OFFCURVE",
"92 28 OFFCURVE",
"84 26 CURVE",
"117 73 OFFCURVE",
"141 124 OFFCURVE",
"152 175 CURVE",
"238 175 LINE",
"238 191 LINE",
"155 191 LINE",
"160 219 OFFCURVE",
"161 247 OFFCURVE",
"157 275 CURVE",
"238 275 LINE",
"238 291 LINE",
"155 291 LINE",
"152 307 OFFCURVE",
"147 323 OFFCURVE",
"140 338 CURVE SMOOTH",
"129 364 OFFCURVE",
"95 428 OFFCURVE",
"95 477 CURVE SMOOTH",
"95 547 OFFCURVE",
"144 579 OFFCURVE",
"217 579 CURVE SMOOTH",
"278 579 OFFCURVE",
"336 552 OFFCURVE",
"336 477 CURVE SMOOTH",
"336 450 LINE",
"352 450 LINE",
"352 482 LINE SMOOTH",
"352 553 OFFCURVE",
"303 595 OFFCURVE",
"220 595 CURVE SMOOTH",
"127 595 OFFCURVE",
"79 556 OFFCURVE",
"79 478 CURVE SMOOTH",
"79 398 OFFCURVE",
"122 359 OFFCURVE",
"138 291 CURVE",
"61 291 LINE",
"61 275 LINE",
"141 275 LINE",
"142 265 OFFCURVE",
"143 254 OFFCURVE",
"143 243 CURVE SMOOTH",
"143 226 OFFCURVE",
"141 208 OFFCURVE",
"138 191 CURVE",
"61 191 LINE",
"61 175 LINE",
"135 175 LINE",
"119 107 OFFCURVE",
"82 43 OFFCURVE",
"50 14 CURVE",
"50 3 LINE",
"69 10 OFFCURVE",
"93 13 OFFCURVE",
"120 13 CURVE SMOOTH",
"151 13 OFFCURVE",
"180 9 OFFCURVE",
"208 5 CURVE SMOOTH",
"227 2 OFFCURVE",
"249 -2 OFFCURVE",
"269 -2 CURVE SMOOTH"
);
}
);
width = 402;
}
);
note = lira;
unicode = 20A4;
},
{
glyphname = liraTurkish;
lastChange = "2022-04-05 22:44:43 +0000";
layers = (
{
anchors = (
{
name = bottom;
position = "{227, 0}";
},
{
name = ogonek;
position = "{111, 0}";
},
{
name = top;
position = "{227, 495}";
},
{
name = topleft;
position = "{121, 495}";
}
);
layerId = "5E1A2ACF-25BB-4872-A226-5327BC7330DB";
paths = (
{
closed = 1;
nodes = (
"210 0 LINE SMOOTH",
"325 0 OFFCURVE",
"332 50 OFFCURVE",
"331 123 CURVE SMOOTH",
"331 405 LINE",
"315 405 LINE",
"315 122 LINE SMOOTH",
"315 53 OFFCURVE",
"307 16 OFFCURVE",
"206 16 CURVE SMOOTH",
"123 17 LINE SMOOTH",
"103 17 OFFCURVE",
"101 25 OFFCURVE",
"101 66 CURVE SMOOTH",
"101 227 LINE",
"200 256 LINE",
"199 273 LINE",
"101 244 LINE",
"100 335 LINE",
"200 364 LINE",
"199 381 LINE",
"100 352 LINE",
"100 591 LINE",
"84 591 LINE",
"84 347 LINE",
"-1 322 LINE",
"0 305 LINE",
"84 330 LINE",
"85 239 LINE",
"-1 214 LINE",
"0 197 LINE",
"85 222 LINE",
"85 55 LINE SMOOTH",
"85 3 OFFCURVE",
"95 0 OFFCURVE",
"125 0 CURVE SMOOTH"
);
}
);
width = 379;
}
);
unicode = 20BA;
},
{
glyphname = manat;
lastChange = "2022-04-05 22:44:43 +0000";
layers = (
{
anchors = (
{
name = bottom;
position = "{208, 0}";
},
{
name = bottomright;
position = "{328, 0}";
},
{
name = ogonek;
position = "{235, 591}";
},
{
name = top;
position = "{208, 591}";
}
);
layerId = "5E1A2ACF-25BB-4872-A226-5327BC7330DB";
paths = (
{
closed = 1;
nodes = (
"71 0 LINE",
"105 485 LINE SMOOTH",
"111 575 OFFCURVE",
"151 592 OFFCURVE",
"196 592 CURVE SMOOTH",
"241 592 OFFCURVE",
"281 575 OFFCURVE",
"287 485 CURVE SMOOTH",
"321 0 LINE",
"337 0 LINE",
"304 479 LINE SMOOTH",
"297 586 OFFCURVE",
"251 603 OFFCURVE",
"196 603 CURVE SMOOTH",
"141 603 OFFCURVE",
"95 586 OFFCURVE",
"88 479 CURVE SMOOTH",
"55 0 LINE"
);
},
{
closed = 1;
nodes = (
"204 0 LINE",
"204 631 LINE",
"188 631 LINE",
"188 0 LINE"
);
}
);
width = 392;
}
);
unicode = 20BC;
},
{
glyphname = naira;
lastChange = "2022-04-05 22:44:43 +0000";
layers = (
{
layerId = "5E1A2ACF-25BB-4872-A226-5327BC7330DB";
paths = (
{
closed = 1;
nodes = (
"96 0 LINE",
"96 234 LINE",
"240 234 LINE",
"341 0 LINE",
"362 0 LINE",
"362 234 LINE",
"405 234 LINE",
"405 250 LINE",
"362 250 LINE",
"362 354 LINE",
"405 354 LINE",
"405 370 LINE",
"362 370 LINE",
"362 591 LINE",
"346 591 LINE",
"346 370 LINE",
"198 370 LINE",
"102 591 LINE",
"80 591 LINE",
"80 370 LINE",
"40 370 LINE",
"40 354 LINE",
"80 354 LINE",
"80 250 LINE",
"40 250 LINE",
"40 234 LINE",
"80 234 LINE",
"80 0 LINE"
);
},
{
closed = 1;
nodes = (
"257 234 LINE",
"346 234 LINE",
"346 29 LINE"
);
},
{
closed = 1;
nodes = (
"96 354 LINE",
"187 354 LINE",
"233 250 LINE",
"96 250 LINE"
);
},
{
closed = 1;
nodes = (
"205 354 LINE",
"346 354 LINE",
"346 250 LINE",
"250 250 LINE"
);
},
{
closed = 1;
nodes = (
"96 565 LINE",
"181 370 LINE",
"96 370 LINE"
);
}
);
width = 445;
},
{
anchors = (
{
name = bottom;
position = "{225, 0}";
},
{
name = top;
position = "{228, 591}";
}
);
associatedMasterId = "5E1A2ACF-25BB-4872-A226-5327BC7330DB";
background = {
paths = (
{
closed = 1;
nodes = (
"448 296 LINE",
"448 399 LINE",
"310 399 LINE",
"310 296 LINE"
);
},
{
closed = 1;
nodes = (
"448 149 LINE",
"448 252 LINE",
"310 252 LINE",
"310 149 LINE"
);
}
);
};
layerId = "8A3706BD-364F-4FE3-9C2E-7E87DF0DB4CC";
name = Black;
paths = (
{
closed = 1;
nodes = (
"189 0 LINE",
"189 245 LINE",
"262 0 LINE",
"399 0 LINE",
"399 591 LINE",
"260 591 LINE",
"260 316 LINE",
"188 591 LINE",
"50 591 LINE",
"50 0 LINE"
);
},
{
closed = 1;
nodes = (
"448 296 LINE",
"448 399 LINE",
"10 399 LINE",
"10 296 LINE"
);
},
{
closed = 1;
nodes = (
"448 149 LINE",
"448 252 LINE",
"10 252 LINE",
"10 149 LINE"
);
}
);
width = 458;
}
);
unicode = 20A6;
},
{
glyphname = peso;
lastChange = "2022-04-05 18:14:30 +0000";
layers = (
{
background = {
paths = (
{
closed = 1;
nodes = (
"21 375 LINE",
"363 375 LINE",
"363 385 LINE",
"21 385 LINE"
);
},
{
closed = 1;
nodes = (
"21 465 LINE",
"363 465 LINE",
"363 475 LINE",
"21 475 LINE"
);
}
);
};
components = (
{
alignment = -1;
name = endash;
transform = "{1.41, 0, 0, 1, -8, 131}";
},
{
alignment = -1;
name = P;
transform = "{1, 0, 0, 1, 5, 0}";
},
{
alignment = -1;
name = endash;
transform = "{1.41, 0, 0, 1, -8, 221}";
}
);
layerId = "5E1A2ACF-25BB-4872-A226-5327BC7330DB";
width = 417;
}
);
unicode = 20B1;
},
{
glyphname = rupeeIndian;
lastChange = "2022-04-05 22:44:43 +0000";
layers = (
{
anchors = (
{
name = bottom;
position = "{220, 0}";
},
{
name = top;
position = "{207, 591}";
}
);
layerId = "5E1A2ACF-25BB-4872-A226-5327BC7330DB";
paths = (
{
closed = 1;
nodes = (
"341 0 LINE",
"272 224 LINE SMOOTH",
"262 256 OFFCURVE",
"243 287 OFFCURVE",
"225 292 CURVE",
"274 296 OFFCURVE",
"325 328 OFFCURVE",
"325 411 CURVE SMOOTH",
"325 428 LINE",
"397 428 LINE",
"397 444 LINE",
"325 444 LINE",
"325 494 LINE SMOOTH",
"325 535 OFFCURVE",
"309 560 OFFCURVE",
"285 575 CURVE",
"397 575 LINE",
"397 591 LINE",
"50 591 LINE",
"50 575 LINE",
"222 575 LINE SMOOTH",
"271 575 OFFCURVE",
"308 548 OFFCURVE",
"308 491 CURVE SMOOTH",
"308 444 LINE",
"50 444 LINE",
"50 428 LINE",
"308 428 LINE",
"308 409 LINE SMOOTH",
"308 331 OFFCURVE",
"257 303 OFFCURVE",
"189 303 CURVE SMOOTH",
"80 303 LINE",
"80 287 LINE",
"189 287 LINE SMOOTH",
"224 287 OFFCURVE",
"245 257 OFFCURVE",
"261 205 CURVE SMOOTH",
"322 0 LINE"
);
}
);
width = 442;
},
{
anchors = (
{
name = bottom;
position = "{242, 0}";
},
{
name = top;
position = "{242, 591}";
}
);
associatedMasterId = "5E1A2ACF-25BB-4872-A226-5327BC7330DB";
layerId = "8A3706BD-364F-4FE3-9C2E-7E87DF0DB4CC";
name = Black;
paths = (
{
closed = 1;
nodes = (
"473 385 LINE",
"473 471 LINE",
"55 471 LINE",
"55 385 LINE"
);
},
{
closed = 1;
nodes = (
"132 237 LINE",
"216 237 OFFCURVE",
"236 205 OFFCURVE",
"245 154 CURVE SMOOTH",
"272 0 LINE",
"449 0 LINE",
"397 204 LINE SMOOTH",
"385 252 OFFCURVE",
"373 269 OFFCURVE",
"326 278 CURVE",
"326 280 LINE",
"397 288 OFFCURVE",
"420 342 OFFCURVE",
"420 400 CURVE SMOOTH",
"420 490 LINE SMOOTH",
"420 549 OFFCURVE",
"383 591 OFFCURVE",
"295 591 CURVE SMOOTH",
"55 591 LINE",
"55 507 LINE",
"221 507 LINE",
"221 507 LINE",
"240 507 LINE SMOOTH",
"257 507 OFFCURVE",
"264 497 OFFCURVE",
"264 461 CURVE SMOOTH",
"264 396 LINE SMOOTH",
"264 360 OFFCURVE",
"254 347 OFFCURVE",
"237 347 CURVE",
"55 348 LINE",
"55 237 LINE"
);
},
{
closed = 1;
nodes = (
"473 506.227 LINE",
"473 591.655 LINE",
"55 591.655 LINE",
"55 506.227 LINE"
);
}
);
width = 478;
}
);
unicode = 20B9;
},
{
color = 6;
glyphname = sterling;
lastChange = "2022-04-05 22:44:43 +0000";
layers = (
{
layerId = "5E1A2ACF-25BB-4872-A226-5327BC7330DB";
paths = (
{
closed = 1;
nodes = (
"334 -2 OFFCURVE",
"351 35 OFFCURVE",
"351 91 CURVE SMOOTH",
"351 136 LINE",
"335 136 LINE",
"335 81 LINE SMOOTH",
"335 32 OFFCURVE",
"313 14 OFFCURVE",
"271 14 CURVE SMOOTH",
"248 14 OFFCURVE",
"226 18 OFFCURVE",
"207 21 CURVE SMOOTH",
"176 25 OFFCURVE",
"152 29 OFFCURVE",
"125 29 CURVE SMOOTH",
"110 29 OFFCURVE",
"92 28 OFFCURVE",
"84 26 CURVE",
"138 104 OFFCURVE",
"169 192 OFFCURVE",
"157 275 CURVE",
"238 275 LINE",
"238 291 LINE",
"155 291 LINE",
"152 307 OFFCURVE",
"147 323 OFFCURVE",
"140 338 CURVE SMOOTH",
"129 364 OFFCURVE",
"95 428 OFFCURVE",
"95 477 CURVE SMOOTH",
"95 547 OFFCURVE",
"144 579 OFFCURVE",
"217 579 CURVE SMOOTH",
"278 579 OFFCURVE",
"336 552 OFFCURVE",
"336 477 CURVE SMOOTH",
"336 450 LINE",
"352 450 LINE",
"352 482 LINE SMOOTH",
"352 553 OFFCURVE",
"303 595 OFFCURVE",
"220 595 CURVE SMOOTH",
"127 595 OFFCURVE",
"79 556 OFFCURVE",
"79 478 CURVE SMOOTH",
"79 398 OFFCURVE",
"122 359 OFFCURVE",
"138 291 CURVE",
"61 291 LINE",
"61 275 LINE",
"141 275 LINE",
"142 265 OFFCURVE",
"143 254 OFFCURVE",
"143 243 CURVE SMOOTH",
"143 152 OFFCURVE",
"93 53 OFFCURVE",
"50 14 CURVE",
"50 3 LINE",
"69 10 OFFCURVE",
"93 13 OFFCURVE",
"120 13 CURVE SMOOTH",
"151 13 OFFCURVE",
"180 9 OFFCURVE",
"208 5 CURVE SMOOTH",
"227 2 OFFCURVE",
"249 -2 OFFCURVE",
"269 -2 CURVE SMOOTH"
);
}
);
width = 401;
}
);
note = sterling;
unicode = 00A3;
},
